<svg width="24" height="24" viewBox="0 0 24 24" fill="none" xmlns="http://www.w3.org/2000/svg">
<rect width="24" height="24" rx="4" fill="#7F8A94"/>
<path d="M8.46458 7.28583C8.13914 6.96039 7.61151 6.96039 7.28607 7.28583C6.96063 7.61126 6.96063 8.1389 7.28607 8.46434L10.8216 11.9999L7.28607 15.5354C6.96063 15.8608 6.96063 16.3885 7.28607 16.7139C7.61151 17.0394 8.13914 17.0394 8.46458 16.7139L12.0001 13.1784L15.5356 16.7139C15.8611 17.0394 16.3887 17.0394 16.7142 16.7139C17.0396 16.3885 17.0396 15.8608 16.7142 15.5354L13.1786 11.9999L16.7142 8.46434C17.0396 8.1389 17.0396 7.61126 16.7142 7.28583C16.3887 6.96039 15.8611 6.96039 15.5356 7.28583L12.0001 10.8214L8.46458 7.28583Z" fill="white"/>
</svg>
