<svg width="24" height="24" viewBox="0 0 24 24" fill="none" xmlns="http://www.w3.org/2000/svg">
<rect width="24" height="24" rx="4" fill="#007CDB"/>
<path d="M18.3836 5.61625C18.2266 5.45911 18.0304 5.34669 17.8154 5.29055C17.6004 5.23441 17.3744 5.2366 17.1605 5.29688L17.1468 5.30125L5.1524 8.9375C4.90877 9.00814 4.6924 9.15122 4.53203 9.34775C4.37165 9.54428 4.27486 9.78495 4.25452 10.0378C4.23417 10.2906 4.29123 10.5437 4.41811 10.7633C4.545 10.983 4.7357 11.1588 4.9649 11.2675L10.2349 13.7675L12.7349 19.0375C12.8347 19.2516 12.9936 19.4326 13.193 19.5593C13.3923 19.686 13.6237 19.753 13.8599 19.7525C13.8955 19.7525 13.9318 19.7525 13.968 19.7481C14.2207 19.728 14.461 19.6308 14.6567 19.4698C14.8524 19.3087 14.994 19.0915 15.0624 18.8475L18.6986 6.85313C18.7005 6.84867 18.7019 6.84407 18.703 6.83938C18.7633 6.62551 18.7655 6.39945 18.7094 6.18447C18.6532 5.96948 18.5408 5.77334 18.3836 5.61625ZM13.8124 17.8075L11.7049 13.3581L14.533 10.53C14.6739 10.3891 14.7531 10.198 14.7531 9.99875C14.7531 9.79949 14.6739 9.6084 14.533 9.4675C14.3921 9.32661 14.201 9.24745 14.0018 9.24745C13.8025 9.24745 13.6114 9.32661 13.4705 9.4675L10.6424 12.2956L6.1924 10.1875L17.1249 6.875L13.8124 17.8075Z" fill="white"/>
</svg>
