<svg width="24" height="24" viewBox="0 0 24 24" fill="none" xmlns="http://www.w3.org/2000/svg">
<rect width="24" height="24" rx="4" fill="#007CDB"/>
<path d="M12.6665 7.33341C12.6665 6.96522 12.368 6.66675 11.9998 6.66675C11.6316 6.66675 11.3332 6.96522 11.3332 7.33341L11.3332 11.3334H7.33317C6.96498 11.3334 6.6665 11.6319 6.6665 12.0001C6.6665 12.3683 6.96498 12.6667 7.33317 12.6667H11.3332L11.3332 16.6667C11.3332 17.0349 11.6316 17.3334 11.9998 17.3334C12.368 17.3334 12.6665 17.0349 12.6665 16.6667L12.6665 12.6667H16.6665C17.0347 12.6667 17.3332 12.3683 17.3332 12.0001C17.3332 11.6319 17.0347 11.3334 16.6665 11.3334H12.6665L12.6665 7.33341Z" fill="white"/>
</svg>
