<svg width="25" height="25" viewBox="0 0 25 25" fill="none" xmlns="http://www.w3.org/2000/svg">
<path fill-rule="evenodd" clip-rule="evenodd" d="M18.5 4.5C18.5 3.94772 18.0523 3.5 17.5 3.5C16.9477 3.5 16.5 3.94772 16.5 4.5V5.44446H8.5L8.5 4.5C8.5 3.94772 8.05228 3.5 7.5 3.5C6.94772 3.5 6.5 3.94772 6.5 4.5L6.5 5.44446C4.84315 5.44446 3.5 6.78761 3.5 8.44446V18.5C3.5 20.1569 4.84315 21.5 6.5 21.5H18.5C20.1569 21.5 21.5 20.1569 21.5 18.5V8.44446C21.5 6.7876 20.1569 5.44446 18.5 5.44446V4.5ZM19.5 11.5V18.5C19.5 19.0523 19.0523 19.5 18.5 19.5H6.5C5.94772 19.5 5.5 19.0523 5.5 18.5V11.5H19.5ZM19.5 9.5V8.44446C19.5 7.89217 19.0523 7.44446 18.5 7.44446H6.5C5.94772 7.44446 5.5 7.89217 5.5 8.44446V9.5H19.5Z" fill="#A8B3BD"/>
</svg>
