<svg width="24" height="24" viewBox="0 0 24 24" fill="none" preserveAspectRatio="xMinYMin meet" xmlns="http://www.w3.org/2000/svg">
<path fill-rule="evenodd" clip-rule="evenodd" d="M12.0078 22.0039C17.5307 22.0039 22.0078 17.5268 22.0078 12.0039C22.0078 6.48106 17.5307 2.00391 12.0078 2.00391C6.48496 2.00391 2.00781 6.48106 2.00781 12.0039C2.00781 17.5268 6.48496 22.0039 12.0078 22.0039ZM12.0078 20.0039C16.4261 20.0039 20.0078 16.4222 20.0078 12.0039C20.0078 7.58563 16.4261 4.00391 12.0078 4.00391C7.58953 4.00391 4.00781 7.58563 4.00781 12.0039C4.00781 16.4222 7.58953 20.0039 12.0078 20.0039ZM9.71492 8.2968C9.3244 7.90628 8.69123 7.90628 8.30071 8.2968C7.91018 8.68732 7.91018 9.32049 8.30071 9.71101L10.5936 12.0039L8.30071 14.2968C7.91018 14.6873 7.91018 15.3205 8.30071 15.711C8.69123 16.1015 9.3244 16.1015 9.71492 15.711L12.0078 13.4181L14.3007 15.711C14.6912 16.1015 15.3244 16.1015 15.7149 15.711C16.1054 15.3205 16.1054 14.6873 15.7149 14.2968L13.422 12.0039L15.7149 9.71101C16.1054 9.32049 16.1054 8.68732 15.7149 8.2968C15.3244 7.90628 14.6912 7.90628 14.3007 8.2968L12.0078 10.5897L9.71492 8.2968Z" fill="#7F8A94"/>
</svg>
