<svg width="24" height="24" viewBox="0 0 24 24" fill="none" preserveAspectRatio="xMinYMin meet" xmlns="http://www.w3.org/2000/svg">
<path d="M12.8286 7.95762L14.9499 5.8363C15.3404 5.44578 15.3404 4.81261 14.9499 4.42209L12.8286 2.30077C12.438 1.91024 11.8049 1.91024 11.4143 2.30077C11.0238 2.69129 11.0238 3.32446 11.4143 3.71498L11.7123 4.01293C7.42728 4.1644 4 7.68589 4 12.0079C4 13.7062 4.53037 15.2837 5.4345 16.58C5.75046 17.0329 6.37381 17.144 6.82679 16.828C7.27976 16.5121 7.39084 15.8887 7.07487 15.4358C6.39726 14.4643 6 13.284 6 12.0079C6 8.71093 8.65914 6.03509 11.9497 6.00806L11.4143 6.54341C11.0238 6.93393 11.0238 7.5671 11.4143 7.95762C11.8049 8.34815 12.438 8.34815 12.8286 7.95762Z" fill="#7F8A94"/>
<path d="M9.29304 18.4221C8.90252 18.8126 8.90252 19.4458 9.29304 19.8363L11.4144 21.9576C11.8049 22.3481 12.4381 22.3481 12.8286 21.9576C13.2191 21.5671 13.2191 20.9339 12.8286 20.5434L12.2879 20.0028C16.5728 19.8512 20 16.3297 20 12.0079C20 10.3095 19.4696 8.73197 18.5655 7.43576C18.2495 6.98278 17.6262 6.87171 17.1732 7.18767C16.7202 7.50363 16.6092 8.12698 16.9251 8.57995C17.6027 9.55141 18 10.7317 18 12.0079C18 15.1322 15.612 17.6987 12.5616 17.9819L12.8286 17.715C13.2191 17.3245 13.2191 16.6913 12.8286 16.3008C12.4381 15.9102 11.8049 15.9102 11.4144 16.3008L9.29304 18.4221Z" fill="#7F8A94"/>
</svg>
