<svg width="10" height="11" viewBox="0 0 10 11" fill="none" xmlns="http://www.w3.org/2000/svg">
<path d="M4.97444 1.61111C2.83765 1.61111 1.10543 3.35223 1.10543 5.5C1.10543 7.64777 2.83765 9.38889 4.97444 9.38889C6.94704 9.38889 8.57557 7.90459 8.81349 5.98681C8.85127 5.68234 9.12744 5.4663 9.43035 5.50427C9.73326 5.54224 9.9482 5.81983 9.91043 6.1243C9.60437 8.59131 7.51159 10.5 4.97444 10.5C2.22713 10.5 0 8.26142 0 5.5C0 2.73858 2.22713 0.5 4.97444 0.5C6.55815 0.5 7.96876 1.2443 8.87907 2.40185L8.89562 2.13533C8.91464 1.8291 9.17704 1.59635 9.4817 1.61547C9.78636 1.63458 10.0179 1.89832 9.99891 2.20455L9.89561 3.86798C9.87659 4.17421 9.6142 4.40696 9.30953 4.38785L7.65461 4.28402C7.34994 4.2649 7.11838 4.00116 7.1374 3.69493C7.15641 3.3887 7.41881 3.15595 7.72347 3.17507L8.09336 3.19827C7.38823 2.23472 6.25372 1.61111 4.97444 1.61111Z" fill="white"/>
</svg>
