<svg width="24" height="24" viewBox="0 0 24 24" fill="none" preserveAspectRatio="xMinYMin meet" xmlns="http://www.w3.org/2000/svg">
<path fill-rule="evenodd" clip-rule="evenodd" d="M6.00757 11.9999C6.00757 8.68617 8.69386 5.99988 12.0076 5.99988C13.7839 5.99988 15.3803 6.77114 16.48 8H16.0078C15.4555 8 15.0078 8.44772 15.0078 9C15.0078 9.55229 15.4555 10 16.0078 10L19.0078 10C19.5601 10 20.0078 9.55228 20.0078 9V6C20.0078 5.44772 19.5601 5 19.0078 5C18.4555 5 18.0078 5.44772 18.0078 6V6.70861C16.543 5.04887 14.3979 3.99988 12.0076 3.99988C7.58929 3.99988 4.00757 7.5816 4.00757 11.9999C4.00757 16.4182 7.58929 19.9999 12.0076 19.9999C16.0879 19.9999 19.4535 16.946 19.9457 12.9986C20.0141 12.4506 19.6252 11.9509 19.0772 11.8826C18.5291 11.8142 18.0294 12.2031 17.9611 12.7511C17.5921 15.7098 15.0665 17.9999 12.0076 17.9999C8.69386 17.9999 6.00757 15.3136 6.00757 11.9999Z" fill="#7F8A94"/>
</svg>
