<svg width="45" height="45" viewBox="0 0 45 45" fill="none" xmlns="http://www.w3.org/2000/svg">
<g clip-path="url(#clip0_286_4)">
<path d="M22.5 42.5C33.5457 42.5 42.5 33.5457 42.5 22.5C42.5 11.4543 33.5457 2.5 22.5 2.5C11.4543 2.5 2.5 11.4543 2.5 22.5C2.5 33.5457 11.4543 42.5 22.5 42.5Z" stroke="#A8B3BD" stroke-opacity="0.2" stroke-width="5"/>
<path d="M22.5 2.5C26.4556 2.5 30.3224 3.67298 33.6114 5.87061C36.9004 8.06824 39.4638 11.1918 40.9776 14.8463C42.4913 18.5009 42.8874 22.5222 42.1157 26.4018C41.344 30.2814 39.4392 33.8451 36.6421 36.6421C33.8451 39.4392 30.2814 41.344 26.4018 42.1157C22.5222 42.8874 18.5009 42.4913 14.8463 40.9776C11.1918 39.4638 8.06824 36.9004 5.87061 33.6114C3.67298 30.3224 2.5 26.4556 2.5 22.5" stroke="#A8B3BD" stroke-width="5" stroke-linecap="round"/>
<path d="M19 18.5C19 19.3284 18.3284 20 17.5 20C16.6716 20 16 19.3284 16 18.5C16 17.6716 16.6716 17 17.5 17C18.3284 17 19 17.6716 19 18.5Z" fill="#A8B3BD"/>
<path d="M29 18.5C29 19.3284 28.3284 20 27.5 20C26.6716 20 26 19.3284 26 18.5C26 17.6716 26.6716 17 27.5 17C28.3284 17 29 17.6716 29 18.5Z" fill="#A8B3BD"/>
<path d="M28 27H17C16.4477 27 16 27.4477 16 28C16 28.5523 16.4477 29 17 29H28C28.5523 29 29 28.5523 29 28C29 27.4477 28.5523 27 28 27Z" fill="#A8B3BD"/>
</g>
<defs>
<clipPath id="clip0_286_4">
<rect width="45" height="45" fill="white"/>
</clipPath>
</defs>
</svg>
