<svg width="24" height="24" viewBox="0 0 24 24" fill="none" xmlns="http://www.w3.org/2000/svg">
<path fill-rule="evenodd" clip-rule="evenodd" d="M15.1206 14.8936C15.9249 14.8936 16.6858 14.7082 17.363 14.3779L20.2928 17.3078C20.6834 17.6983 21.3165 17.6983 21.7071 17.3078C22.0976 16.9172 22.0976 16.2841 21.7071 15.8935L18.967 13.1535C19.7602 12.2516 20.2413 11.0685 20.2413 9.77299C20.2413 6.94494 17.9487 4.65234 15.1206 4.65234C12.2926 4.65234 10 6.94494 10 9.77299C10 12.601 12.2926 14.8936 15.1206 14.8936ZM15.1206 12.8936C16.8441 12.8936 18.2413 11.4965 18.2413 9.77299C18.2413 8.0495 16.8441 6.65234 15.1206 6.65234C13.3972 6.65234 12 8.0495 12 9.77299C12 11.4965 13.3972 12.8936 15.1206 12.8936Z" fill="#7F8A94"/>
<path d="M5 11C4.44772 11 4 11.4477 4 12C4 12.5523 4.44772 13 5 13H8C8.55228 13 9 12.5523 9 12C9 11.4477 8.55228 11 8 11H5Z" fill="#7F8A94"/>
<path d="M4 6C4 5.44772 4.44772 5 5 5H8C8.55228 5 9 5.44772 9 6C9 6.55228 8.55228 7 8 7H5C4.44772 7 4 6.55228 4 6Z" fill="#7F8A94"/>
<path d="M5 17C4.44772 17 4 17.4477 4 18C4 18.5523 4.44772 19 5 19H14C14.5523 19 15 18.5523 15 18C15 17.4477 14.5523 17 14 17H5Z" fill="#7F8A94"/>
</svg>
