<svg width="24" height="24" viewBox="0 0 24 24" fill="none" xmlns="http://www.w3.org/2000/svg">
<path fill-rule="evenodd" clip-rule="evenodd" d="M12 22C17.5228 22 22 17.5228 22 12C22 6.47715 17.5228 2 12 2C6.47715 2 2 6.47715 2 12C2 17.5228 6.47715 22 12 22ZM12 7C12.6628 7 13.2 7.44772 13.2 8V13C13.2 13.5523 12.6628 14 12 14C11.3373 14 10.8 13.5523 10.8 13V8C10.8 7.44772 11.3373 7 12 7ZM12 17.4C12.6628 17.4 13.2 16.8627 13.2 16.2C13.2 15.5373 12.6628 15 12 15C11.3373 15 10.8 15.5373 10.8 16.2C10.8 16.8627 11.3373 17.4 12 17.4Z" fill="#7F8A94"/>
</svg>
