<svg width="12" height="14" viewBox="0 0 12 14" fill="none" xmlns="http://www.w3.org/2000/svg">
<path d="M3.33333 0.666667C3.33333 0.298477 3.63181 0 4 0H8C8.36819 0 8.66667 0.298477 8.66667 0.666667C8.66667 1.03486 8.36819 1.33333 8 1.33333H4C3.63181 1.33333 3.33333 1.03486 3.33333 0.666667Z" fill="#A8B3BD"/>
<path d="M6.66667 5.33333C6.66667 4.96514 6.36819 4.66667 6 4.66667C5.63181 4.66667 5.33333 4.96514 5.33333 5.33333L5.33333 8.66667C5.33333 9.03486 5.63181 9.33333 6 9.33333C6.36819 9.33333 6.66667 9.03486 6.66667 8.66667V5.33333Z" fill="#A8B3BD"/>
<path fill-rule="evenodd" clip-rule="evenodd" d="M12 8C12 11.3137 9.31371 14 6 14C2.68629 14 0 11.3137 0 8C0 4.68629 2.68629 2 6 2C7.41668 2 8.71868 2.49098 9.74512 3.31207L10.1953 2.86193C10.4556 2.60158 10.8777 2.60158 11.1381 2.86193C11.3984 3.12228 11.3984 3.54439 11.1381 3.80474L10.6879 4.25488C11.509 5.28132 12 6.58332 12 8ZM10.6667 8C10.6667 10.5773 8.57733 12.6667 6 12.6667C3.42267 12.6667 1.33333 10.5773 1.33333 8C1.33333 5.42267 3.42267 3.33333 6 3.33333C8.57733 3.33333 10.6667 5.42267 10.6667 8Z" fill="#A8B3BD"/>
</svg>
