<svg width="24" height="25" viewBox="0 0 24 25" fill="none" xmlns="http://www.w3.org/2000/svg">
<path d="M2.99609 3.5C2.99609 2.94772 3.44381 2.5 3.99609 2.5H11.9961C12.5484 2.5 12.9961 2.94772 12.9961 3.5C12.9961 4.05228 12.5484 4.5 11.9961 4.5H4.99609V20.5H11.9961C12.5484 20.5 12.9961 20.9477 12.9961 21.5C12.9961 22.0523 12.5484 22.5 11.9961 22.5H3.99609C3.44381 22.5 2.99609 22.0523 2.99609 21.5V3.5Z" fill="#7F8A94"/>
<path d="M20.7032 13.2071L16.7032 17.2071C16.3126 17.5976 15.6795 17.5976 15.289 17.2071C14.8984 16.8166 14.8984 16.1834 15.289 15.7929L17.5819 13.5H9.59607C9.04378 13.5 8.59607 13.0523 8.59607 12.5C8.59607 11.9477 9.04378 11.5 9.59607 11.5H17.5819L15.289 9.20711C14.8984 8.81658 14.8984 8.18342 15.289 7.79289C15.6795 7.40237 16.3126 7.40237 16.7032 7.79289L20.7032 11.7929C21.0937 12.1834 21.0937 12.8166 20.7032 13.2071Z" fill="#7F8A94"/>
</svg>
