<svg width="16" height="16" viewBox="0 0 16 16" fill="none" xmlns="http://www.w3.org/2000/svg">
<path fill-rule="evenodd" clip-rule="evenodd" d="M7.99609 0C5.54149 0 3.55165 1.98985 3.55165 4.44444C3.55165 6.89904 5.54149 8.88889 7.99609 8.88889C10.4507 8.88889 12.4405 6.89904 12.4405 4.44444C12.4405 1.98985 10.4507 0 7.99609 0ZM5.32943 4.44444C5.32943 2.97168 6.52333 1.77778 7.99609 1.77778C9.46885 1.77778 10.6628 2.97168 10.6628 4.44444C10.6628 5.9172 9.46885 7.11111 7.99609 7.11111C6.52333 7.11111 5.32943 5.9172 5.32943 4.44444Z" fill="#7F8A94"/>
<path d="M4.44054 9.77778C3.3089 9.77778 2.19809 10.151 1.35733 10.8516C0.511837 11.5562 -0.00390625 12.5503 -0.00390625 13.6296V15.1111C-0.00390625 15.602 0.394063 16 0.884983 16C1.3759 16 1.77387 15.602 1.77387 15.1111V13.6296C1.77387 13.1373 2.00733 12.6241 2.49543 12.2174C2.98826 11.8067 3.6862 11.5556 4.44054 11.5556H11.5516C12.306 11.5556 13.0039 11.8067 13.4968 12.2174C13.9849 12.6241 14.2183 13.1373 14.2183 13.6296V15.1111C14.2183 15.602 14.6163 16 15.1072 16C15.5981 16 15.9961 15.602 15.9961 15.1111V13.6296C15.9961 12.5503 15.4803 11.5562 14.6349 10.8516C13.7941 10.151 12.6833 9.77778 11.5516 9.77778H4.44054Z" fill="#7F8A94"/>
</svg>
