<svg width="23" height="22" viewBox="0 0 23 22" fill="none" xmlns="http://www.w3.org/2000/svg">
<rect x="1" y="0.5" width="21" height="21" rx="10.5" stroke="#A8B3BD"/>
<path fill-rule="evenodd" clip-rule="evenodd" d="M12.7857 9.11328C13.2676 8.14272 14.1944 7.09559 15.4963 6.0561C15.76 5.84585 15.9212 5.53115 15.939 5.19296C15.9569 4.84505 15.8231 4.50435 15.5733 4.25871C14.2389 2.94782 11.7966 2.60462 10.1278 3.49619C9.51713 3.82271 9.12239 4.44828 9.07164 5.17009C8.97577 6.56222 9.25984 8.08522 9.85602 9.41605C9.76702 9.50838 9.68571 9.60817 9.61311 9.71437C8.64281 9.2326 7.59554 8.30564 6.55573 7.00299C6.34548 6.73958 6.031 6.57843 5.69256 6.56112C5.34519 6.54358 5.00393 6.67686 4.75805 6.92719C3.44713 8.26212 3.10532 10.7046 3.99582 12.3723C4.32251 12.9831 4.94763 13.3776 5.66914 13.4278C5.8559 13.4409 6.04384 13.4473 6.23287 13.4473C7.47451 13.4473 8.75176 13.169 9.91597 12.6441C10.0083 12.7331 10.1081 12.8144 10.2142 12.8869C9.73242 13.8575 8.80553 14.9046 7.5037 15.9441C7.23997 16.1544 7.07881 16.4691 7.06096 16.8073C7.04311 17.1552 7.17693 17.4959 7.42673 17.7415C8.2592 18.5592 9.5222 19 10.7601 19C11.5066 19 12.2444 18.8393 12.8723 18.5039C13.4829 18.1774 13.8777 17.5518 13.9284 16.83C14.0243 15.4379 13.7402 13.9149 13.144 12.584C13.233 12.4917 13.3143 12.3919 13.3869 12.2857C14.3572 12.7675 15.4045 13.6945 16.4443 14.9971C16.6545 15.2605 16.969 15.4217 17.3074 15.439C17.328 15.4401 17.3487 15.4404 17.3693 15.4404C17.6955 15.4404 18.0106 15.3086 18.2419 15.073C19.5529 13.7381 19.8947 11.2956 19.0042 9.62789C18.6775 9.01704 18.0524 8.62255 17.3309 8.57235C15.9189 8.4736 14.4258 8.75131 13.084 9.35612C12.9917 9.26714 12.8919 9.18585 12.7857 9.11328ZM10.4157 10.6415C10.4158 10.6412 10.4159 10.641 10.416 10.6407C10.4181 10.6347 10.4202 10.6288 10.4221 10.6228C10.5035 10.3909 10.6577 10.1931 10.8572 10.0567C10.8698 10.0492 10.882 10.0411 10.8938 10.0327C11.0696 9.92218 11.2775 9.85819 11.5 9.85819C11.6221 9.85819 11.7398 9.87745 11.8502 9.9131C11.8533 9.91428 11.8564 9.91544 11.8596 9.91657C11.8685 9.91979 11.8775 9.92277 11.8865 9.92551C12.1145 10.0078 12.3091 10.1607 12.4437 10.3578C12.4513 10.3703 12.4592 10.3825 12.4676 10.3943C12.578 10.57 12.6419 10.7777 12.6419 11.0001C12.6419 11.1256 12.6216 11.2465 12.584 11.3595C12.582 11.3651 12.58 11.3708 12.5782 11.3764C12.4968 11.6089 12.3423 11.8072 12.1424 11.9437C12.1301 11.9511 12.1182 11.959 12.1066 11.9672C11.9307 12.0779 11.7227 12.142 11.5 12.142C11.3779 12.142 11.2603 12.1228 11.1499 12.0871C11.1467 12.0859 11.1436 12.0848 11.1404 12.0836C11.1318 12.0806 11.1231 12.0777 11.1145 12.075C10.8863 11.993 10.6915 11.8401 10.5568 11.6432C10.549 11.6302 10.5407 11.6177 10.5321 11.6055C10.4218 11.4299 10.358 11.2223 10.358 11.0001C10.358 10.8749 10.3783 10.7543 10.4157 10.6415ZM10.8388 8.81372C10.3574 7.68432 10.1307 6.41265 10.2113 5.24902C10.2336 4.92704 10.4075 4.64123 10.6657 4.50325C11.9053 3.84284 13.785 4.10265 14.773 5.0737C14.7976 5.09766 14.7986 5.12413 14.7842 5.16343C13.283 6.36195 12.2495 7.55779 11.7048 8.7253C11.6373 8.71928 11.569 8.71621 11.5 8.71621C11.2702 8.71621 11.0482 8.75031 10.8388 8.81372ZM13.6864 10.339C13.7498 10.5484 13.7839 10.7703 13.7839 11.0001C13.7839 11.0691 13.7809 11.1373 13.7748 11.2047C14.9422 11.7495 16.138 12.783 17.3364 14.2846C17.3771 14.2994 17.4033 14.2982 17.4268 14.2728C18.397 13.2848 18.6585 11.4043 17.9972 10.1662C17.859 9.90838 17.5734 9.73384 17.2518 9.71152C16.086 9.62922 14.8158 9.85725 13.6864 10.339ZM12.1612 13.1865C11.9518 13.2499 11.7298 13.284 11.5 13.284C11.431 13.284 11.3627 13.2809 11.2952 13.2749C10.7505 14.4424 9.71697 15.6383 8.21582 16.8368C8.20133 16.8761 8.20243 16.9025 8.22694 16.9265C9.21501 17.8972 11.0947 18.1577 12.3343 17.497C12.5924 17.359 12.7664 17.0732 12.7887 16.7512C12.8693 15.5875 12.6425 14.3159 12.1612 13.1865ZM9.31351 11.6611C8.18432 12.1429 6.91489 12.3711 5.74823 12.2886C5.42655 12.2663 5.14105 12.0917 5.00276 11.8339C4.34146 10.5958 4.603 8.71534 5.57322 7.7273C5.59781 7.70272 5.62396 7.70107 5.66358 7.71556C6.86197 9.21708 8.05773 10.2506 9.22511 10.7953C9.21909 10.8628 9.21602 10.9311 9.21602 11.0001C9.21602 11.2299 9.25011 11.4518 9.31351 11.6611Z" fill="#A8B3BD"/>
</svg>
