<svg width="20" height="20" viewBox="0 0 20 20" fill="none" xmlns="http://www.w3.org/2000/svg">
<rect x="0.5" y="0.5" width="19" height="19" rx="1.5" stroke="#A8B3BD"/>
<circle cx="10.0002" cy="10.0002" r="8.16667" stroke="#A8B3BD"/>
<path fill-rule="evenodd" clip-rule="evenodd" d="M11.0716 8.42789C11.4731 7.6191 12.2455 6.74649 13.3304 5.88025C13.5502 5.70504 13.6845 5.44279 13.6993 5.16096C13.7142 4.87104 13.6027 4.58712 13.3945 4.38242C12.2826 3.29002 10.2473 3.00401 8.85663 3.74698C8.34777 4.01909 8.01882 4.5404 7.97653 5.14191C7.89664 6.30201 8.13336 7.57118 8.63018 8.68021C8.55601 8.75715 8.48825 8.8403 8.42776 8.9288C7.61917 8.52733 6.74645 7.75486 5.87994 6.66932C5.70473 6.44981 5.44266 6.31552 5.16063 6.3011C4.87116 6.28648 4.58677 6.39754 4.38187 6.60616C3.28943 7.7186 3.0046 9.75398 3.74668 11.1437C4.01892 11.6528 4.53986 11.9815 5.14112 12.0234C5.29675 12.0343 5.45336 12.0396 5.61089 12.0396C6.64559 12.0396 7.70996 11.8077 8.68013 11.3702C8.75707 11.4444 8.84021 11.5121 8.9287 11.5726C8.52718 12.3814 7.75477 13.254 6.66991 14.1203C6.45014 14.2955 6.31584 14.5577 6.30096 14.8395C6.28608 15.1295 6.3976 15.4134 6.60577 15.6181C7.2995 16.2995 8.352 16.6668 9.38355 16.6668C10.0057 16.6668 10.6205 16.5329 11.1437 16.2535C11.6526 15.9813 11.9816 15.46 12.0238 14.8585C12.1037 13.6984 11.867 12.4293 11.3702 11.3202C11.4443 11.2433 11.5121 11.1601 11.5726 11.0716C12.3812 11.4731 13.2539 12.2456 14.1204 13.3311C14.2956 13.5506 14.5577 13.6849 14.8397 13.6993C14.8569 13.7002 14.8741 13.7005 14.8913 13.7005C15.1631 13.7005 15.4256 13.5907 15.6185 13.3943C16.7109 12.282 16.9957 10.2465 16.2536 8.85674C15.9814 8.3477 15.4605 8.01895 14.8592 7.97712C13.6826 7.89483 12.4384 8.12626 11.3202 8.63026C11.2432 8.55612 11.1601 8.48837 11.0716 8.42789ZM9.09657 9.70143C9.09666 9.7012 9.09674 9.70096 9.09682 9.70073C9.0986 9.69577 9.10029 9.6908 9.1019 9.68582C9.16973 9.49261 9.29825 9.32772 9.46446 9.21411C9.47496 9.20779 9.48512 9.20112 9.49496 9.19411C9.64146 9.10198 9.81471 9.04866 10.0001 9.04866C10.1019 9.04866 10.2 9.06471 10.292 9.09442C10.2946 9.0954 10.2972 9.09636 10.2998 9.0973C10.3073 9.09998 10.3147 9.10247 10.3222 9.10476C10.5123 9.17332 10.6744 9.30076 10.7866 9.46496C10.7929 9.47544 10.7995 9.4856 10.8065 9.49542C10.8985 9.64182 10.9518 9.81492 10.9518 10.0002C10.9518 10.1048 10.9348 10.2056 10.9035 10.2998C10.9018 10.3045 10.9002 10.3092 10.8987 10.3139C10.8309 10.5075 10.7021 10.6728 10.5355 10.7866C10.5252 10.7928 10.5153 10.7993 10.5057 10.8062C10.3591 10.8984 10.1857 10.9518 10.0001 10.9518C9.89842 10.9518 9.80037 10.9358 9.70839 10.9061C9.70577 10.9051 9.70314 10.9041 9.7005 10.9032C9.69332 10.9006 9.68612 10.8982 9.67891 10.896C9.48873 10.8276 9.32641 10.7003 9.21413 10.5361C9.20764 10.5253 9.20078 10.5149 9.19357 10.5048C9.1017 10.3584 9.04852 10.1854 9.04852 10.0002C9.04852 9.8959 9.0654 9.79543 9.09657 9.70143ZM9.44917 8.17826C9.04804 7.23709 8.8591 6.17737 8.92626 5.20768C8.94479 4.93936 9.08979 4.70118 9.30493 4.58621C10.3379 4.03586 11.9043 4.25237 12.7277 5.06158C12.7481 5.08155 12.749 5.1036 12.737 5.13636C11.486 6.13512 10.6248 7.13165 10.1708 8.10458C10.1146 8.09956 10.0576 8.097 10.0001 8.097C9.80863 8.097 9.62364 8.12542 9.44917 8.17826ZM11.8222 9.44936C11.875 9.62381 11.9034 9.80877 11.9034 10.0002C11.9034 10.0577 11.9009 10.1146 11.8959 10.1708C12.8687 10.6247 13.8652 11.486 14.8638 12.7373C14.8978 12.7496 14.9196 12.7486 14.9391 12.7275C15.7477 11.9041 15.9656 10.3371 15.4145 9.30536C15.2993 9.09048 15.0614 8.94503 14.7933 8.92643C13.8218 8.85785 12.7634 9.04787 11.8222 9.44936ZM10.5511 11.8222C10.3767 11.8751 10.1917 11.9035 10.0001 11.9035C9.94265 11.9035 9.88574 11.9009 9.82953 11.8959C9.37556 12.8689 8.51431 13.8654 7.26335 14.8641C7.25127 14.8969 7.25219 14.919 7.27261 14.9389C8.096 15.7479 9.66239 15.9649 10.6954 15.4143C10.9105 15.2993 11.0555 15.0611 11.0741 14.7928C11.1412 13.8231 10.9523 12.7634 10.5511 11.8222ZM8.17809 10.5511C7.2371 10.9526 6.17924 11.1427 5.20702 11.074C4.93896 11.0554 4.70104 10.9099 4.58579 10.6951C4.03471 9.66334 4.25267 8.09628 5.06118 7.27292C5.08167 7.25243 5.10346 7.25106 5.13648 7.26313C6.13514 8.51439 7.1316 9.37569 8.10442 9.82962C8.09941 9.88583 8.09684 9.94275 8.09684 10.0002C8.09684 10.1917 8.12526 10.3767 8.17809 10.5511Z" fill="#A8B3BD"/>
</svg>
