<svg width="18" height="18" viewBox="0 0 18 18" fill="none" xmlns="http://www.w3.org/2000/svg">
<path fill-rule="evenodd" clip-rule="evenodd" d="M3.40179 2.44767C3.13823 2.18411 2.71091 2.18411 2.44735 2.44767C2.18379 2.71123 2.18379 3.13855 2.44735 3.40211L4.00865 4.9634C1.56427 6.56287 0.899902 8.99888 0.899902 8.99888C0.899902 8.99888 2.37239 14.398 8.99858 14.398C10.4949 14.398 11.7285 14.1227 12.7416 13.6963L14.5954 15.5501C14.8589 15.8137 15.2863 15.8137 15.5498 15.5501C15.8134 15.2866 15.8134 14.8593 15.5498 14.5957L3.40179 2.44767ZM11.6933 12.648L10.8595 11.8143C10.3261 12.1676 9.68635 12.3733 8.99858 12.3733C7.13492 12.3733 5.62413 10.8625 5.62413 8.99888C5.62413 8.31112 5.82989 7.67141 6.1832 7.13796L4.98818 5.94293C4.35143 6.31969 3.85769 6.76235 3.47452 7.19464C2.97746 7.75543 2.65154 8.31787 2.45166 8.73666C2.40563 8.83311 2.36665 8.92116 2.33412 8.99888C2.36665 9.0766 2.40563 9.16465 2.45166 9.2611C2.65154 9.67989 2.97746 10.2423 3.47452 10.8031C4.44031 11.8927 6.10864 13.0482 8.99858 13.0482C10.0502 13.0482 10.9401 12.8952 11.6933 12.648ZM7.17122 8.12598C7.04474 8.39029 6.97391 8.68631 6.97391 8.99888C6.97391 10.1171 7.88039 11.0236 8.99858 11.0236C9.31115 11.0236 9.60717 10.9527 9.87148 10.8262L7.17122 8.12598Z" fill="#525960"/>
<path d="M17.0971 8.99474C17.0433 8.80547 15.5054 3.60003 8.99859 3.60003C8.0974 3.60003 7.29153 3.69988 6.57171 3.87242L7.72933 5.03004C8.12382 4.97811 8.54624 4.94981 8.99859 4.94981C11.8891 4.94981 13.5577 6.10552 14.5237 7.19535C15.0209 7.75625 15.3469 8.3188 15.5468 8.73767C15.5928 8.83417 15.6318 8.92228 15.6644 9.00003C15.6318 9.07778 15.5928 9.16588 15.5468 9.26239C15.3469 9.68126 15.0209 10.2438 14.5237 10.8047C14.3724 10.9754 14.2039 11.1477 14.0162 11.3169L14.9715 12.2723C16.5658 10.8095 17.0668 9.11191 17.0971 9.00532V8.99474Z" fill="#525960"/>
<path d="M12.3173 9.61799C12.3543 9.41779 12.3736 9.21139 12.3736 9.00048C12.3736 7.13652 10.8626 5.62548 8.99864 5.62548C8.78773 5.62548 8.58133 5.64483 8.38113 5.68184L9.87204 7.17275C10.2889 7.3723 10.6268 7.71025 10.8264 8.12709L12.3173 9.61799Z" fill="#525960"/>
</svg>
