<svg width="190" height="95" viewBox="0 0 190 95" fill="none" xmlns="http://www.w3.org/2000/svg">
<path fill-rule="evenodd" clip-rule="evenodd" d="M30.0539 32.8161C32.1297 34.6206 32.3496 37.7662 30.5452 39.8419C18.7242 53.4403 11.5117 70.4319 9.94133 88.3814C9.70161 91.1214 7.28607 93.1483 4.54608 92.9086C1.80609 92.6688 -0.220777 90.2533 0.0189466 87.5133C1.77268 67.4684 9.82714 48.4933 23.028 33.3074C24.8325 31.2316 27.9781 31.0116 30.0539 32.8161Z" fill="#E22A21"/>
<path fill-rule="evenodd" clip-rule="evenodd" d="M30.0539 32.8161C32.1297 34.6206 32.3496 37.7662 30.5452 39.8419C18.7242 53.4403 11.5117 70.4319 9.94133 88.3814C9.70161 91.1214 7.28607 93.1483 4.54608 92.9086C1.80609 92.6688 -0.220777 90.2533 0.0189466 87.5133C1.77268 67.4684 9.82714 48.4933 23.028 33.3074C24.8325 31.2316 27.9781 31.0116 30.0539 32.8161Z" fill="white" fill-opacity="0.2"/>
<path fill-rule="evenodd" clip-rule="evenodd" d="M93.6067 5.38909C93.7986 8.13284 91.7299 10.5126 88.9861 10.7045C71.0119 11.9614 53.897 18.8762 40.0944 30.458C37.9874 32.226 34.8462 31.9511 33.0782 29.8442C31.3102 27.7372 31.5851 24.5959 33.692 22.828C49.1059 9.89411 68.2188 2.17208 88.2913 0.768471C91.0351 0.576608 93.4149 2.64533 93.6067 5.38909Z" fill="#F86800"/>
<path fill-rule="evenodd" clip-rule="evenodd" d="M93.6067 5.38909C93.7986 8.13284 91.7299 10.5126 88.9861 10.7045C71.0119 11.9614 53.897 18.8762 40.0944 30.458C37.9874 32.226 34.8462 31.9511 33.0782 29.8442C31.3102 27.7372 31.5851 24.5959 33.692 22.828C49.1059 9.89411 68.2188 2.17208 88.2913 0.768471C91.0351 0.576608 93.4149 2.64533 93.6067 5.38909Z" fill="white" fill-opacity="0.2"/>
<path fill-rule="evenodd" clip-rule="evenodd" d="M97.8469 5.42647C98.0866 2.68648 100.502 0.659603 103.242 0.899316C123.287 2.65299 142.262 10.7076 157.449 23.9084C159.524 25.7128 159.744 28.8584 157.94 30.9342C156.135 33.01 152.99 33.2301 150.914 31.4256C137.315 19.6046 120.324 12.3921 102.374 10.8217C99.6341 10.582 97.6072 8.16646 97.8469 5.42647Z" fill="#00AA02"/>
<path fill-rule="evenodd" clip-rule="evenodd" d="M97.8469 5.42647C98.0866 2.68648 100.502 0.659603 103.242 0.899316C123.287 2.65299 142.262 10.7076 157.449 23.9084C159.524 25.7128 159.744 28.8584 157.94 30.9342C156.135 33.01 152.99 33.2301 150.914 31.4256C137.315 19.6046 120.324 12.3921 102.374 10.8217C99.6341 10.582 97.6072 8.16646 97.8469 5.42647Z" fill="white" fill-opacity="0.2"/>
<path fill-rule="evenodd" clip-rule="evenodd" d="M160.911 33.9585C163.018 32.1905 166.16 32.4653 167.928 34.5722C180.862 49.9863 188.583 69.0991 189.987 89.1714C190.179 91.9152 188.111 94.295 185.367 94.4869C182.623 94.6789 180.243 92.6102 180.051 89.8665C178.794 71.8921 171.88 54.7773 160.298 40.9747C158.53 38.8677 158.805 35.7264 160.911 33.9585Z" fill="#007CDB"/>
<path fill-rule="evenodd" clip-rule="evenodd" d="M160.911 33.9586C163.018 32.1906 166.16 32.4654 167.928 34.5723C180.862 49.9864 188.583 69.0993 189.987 89.1715C190.179 91.9153 188.111 94.2951 185.367 94.487C182.623 94.679 180.243 92.6103 180.051 89.8666C178.794 71.8922 171.88 54.7774 160.298 40.9747C158.53 38.8678 158.805 35.7265 160.911 33.9586Z" fill="white" fill-opacity="0.2"/>
<path fill-rule="evenodd" clip-rule="evenodd" d="M94.0773 18.2747C93.7481 18.2747 93.4191 18.2768 93.0904 18.2811L93.0773 17.2852C93.4104 17.2808 93.7438 17.2786 94.0773 17.2786C94.4109 17.2786 94.7442 17.2808 95.0773 17.2852L95.0643 18.2811C94.7355 18.2768 94.4065 18.2747 94.0773 18.2747ZM99.0062 18.4359C98.3508 18.393 97.6941 18.3585 97.0363 18.3327L97.0753 17.3374C97.7419 17.3636 98.4073 17.3985 99.0713 17.442L99.0062 18.4359ZM91.1183 18.3327C90.4605 18.3585 89.8038 18.393 89.1484 18.4359L89.0833 17.442C89.7474 17.3985 90.4127 17.3636 91.0793 17.3374L91.1183 18.3327ZM102.935 18.7967C102.282 18.7195 101.628 18.6508 100.973 18.5906L101.064 17.5987C101.728 17.6597 102.391 17.7294 103.052 17.8076L102.935 18.7967ZM87.1818 18.5906C86.5263 18.6508 85.8723 18.7195 85.2199 18.7967L85.1029 17.8076C85.7639 17.7294 86.4266 17.6597 87.0907 17.5987L87.1818 18.5906ZM106.839 19.3628C106.191 19.2515 105.542 19.1486 104.89 19.0542L105.033 18.0685C105.693 18.1641 106.351 18.2684 107.007 18.3811L106.839 19.3628ZM83.2642 19.0542C82.6129 19.1486 81.9634 19.2515 81.3158 19.3628L81.1471 18.3811C81.8033 18.2684 82.4614 18.1641 83.1212 18.0685L83.2642 19.0542ZM79.3762 19.7223C78.7308 19.8507 78.0876 19.9874 77.4466 20.1325L77.2267 19.161C77.8762 19.014 78.528 18.8755 79.1818 18.7454L79.3762 19.7223ZM110.708 20.1325C110.067 19.9874 109.424 19.8507 108.778 19.7223L108.973 18.7454C109.627 18.8755 110.278 19.014 110.928 19.161L110.708 20.1325ZM75.5283 20.5931C74.8907 20.755 74.2554 20.9253 73.6228 21.1037L73.3524 20.1451C73.9934 19.9643 74.637 19.7918 75.2831 19.6277L75.5283 20.5931ZM114.532 21.1037C113.899 20.9253 113.264 20.755 112.626 20.5931L112.871 19.6277C113.517 19.7918 114.161 19.9643 114.802 20.1451L114.532 21.1037ZM71.7313 21.6641C71.1031 21.8591 70.4777 22.0624 69.8551 22.2737L69.535 21.3305C70.1657 21.1164 70.7994 20.9105 71.4359 20.7128L71.7313 21.6641ZM118.299 22.2737C117.677 22.0624 117.051 21.8591 116.423 21.6641L116.719 20.7128C117.355 20.9105 117.989 21.1164 118.619 21.3306L118.299 22.2737ZM67.9956 22.9322C67.3786 23.1599 66.7646 23.3956 66.1539 23.6392L65.7848 22.7141C66.4036 22.4672 67.0257 22.2284 67.6508 21.9978L67.9956 22.9322ZM122 23.6393C121.39 23.3956 120.776 23.1599 120.159 22.9323L120.504 21.9978C121.129 22.2285 121.751 22.4673 122.37 22.7141L122 23.6393ZM64.3314 24.3942C63.7272 24.6537 63.1264 24.9212 62.5292 25.1965L62.1122 24.292C62.7173 24.013 63.3261 23.742 63.9382 23.479L64.3314 24.3942ZM125.625 25.1965C125.028 24.9212 124.427 24.6537 123.823 24.3942L124.216 23.479C124.828 23.742 125.437 24.013 126.042 24.292L125.625 25.1965ZM60.7486 26.0458C60.159 26.3365 59.573 26.6351 58.9909 26.9413L58.5271 26.0598C59.117 25.7495 59.7107 25.447 60.3081 25.1524L60.7486 26.0458ZM129.163 26.9414C128.581 26.6351 127.995 26.3366 127.406 26.0458L127.846 25.1525C128.444 25.4471 129.037 25.7496 129.627 26.0599L129.163 26.9414ZM57.2572 27.8826C56.6836 28.2038 56.1141 28.5326 55.5487 28.8689L55.0394 28.0129C55.6123 27.6721 56.1894 27.339 56.7705 27.0135L57.2572 27.8826ZM132.606 28.869C132.04 28.5326 131.471 28.2038 130.897 27.8826L131.384 27.0136C131.965 27.339 132.542 27.6721 133.115 28.013L132.606 28.869ZM53.8666 29.8996C53.3107 30.2503 52.7592 30.6085 52.2121 30.974L51.6588 30.1459C52.2131 29.7755 52.7719 29.4126 53.3351 29.0573L53.8666 29.8996ZM135.942 30.9741C135.395 30.6085 134.843 30.2504 134.288 29.8997L134.819 29.0573C135.382 29.4126 135.941 29.7755 136.495 30.1459L135.942 30.9741ZM50.5864 32.0913C50.0498 32.4706 49.5178 32.8571 48.9905 33.2509L48.3945 32.4528C48.9288 32.0538 49.4678 31.6622 50.0115 31.2779L50.5864 32.0913ZM139.164 33.2509C138.636 32.8571 138.104 32.4706 137.568 32.0914L138.143 31.278C138.686 31.6622 139.225 32.0539 139.76 32.4528L139.164 33.2509ZM47.4255 34.4518C46.9096 34.8585 46.3985 35.2723 45.8925 35.6932L45.2556 34.9275C45.7683 34.501 46.2861 34.0817 46.8088 33.6696L47.4255 34.4518ZM142.262 35.6933C141.756 35.2724 141.245 34.8585 140.729 34.4518L141.345 33.6696C141.868 34.0817 142.386 34.501 142.899 34.9275L142.262 35.6933ZM44.3925 36.9744C43.8987 37.4075 43.41 37.8476 42.9266 38.2945L42.2504 37.5631C42.7402 37.1103 43.2354 36.6644 43.7357 36.2256L44.3925 36.9744ZM145.228 38.2945C144.744 37.8476 144.255 37.4075 143.762 36.9744L144.418 36.2256C144.919 36.6644 145.414 37.1103 145.904 37.5631L145.228 38.2945ZM41.4957 39.6524C41.2602 39.8818 41.026 40.1129 40.7932 40.3457C40.5604 40.5785 40.3293 40.8127 40.0999 41.0482L39.3864 40.3531C39.6189 40.1145 39.8531 39.8773 40.0889 39.6414C40.3248 39.4056 40.562 39.1714 40.8006 38.9389L41.4957 39.6524ZM147.361 40.3457C147.128 40.1129 146.894 39.8818 146.658 39.6524L147.354 38.9389C147.592 39.1714 147.829 39.4056 148.065 39.6414C148.301 39.8773 148.535 40.1145 148.768 40.3531L148.054 41.0482C147.825 40.8127 147.594 40.5785 147.361 40.3457ZM38.742 42.4791C38.2951 42.9625 37.855 43.4512 37.4219 43.945L36.6731 43.2883C37.1119 42.7879 37.5578 42.2928 38.0106 41.8029L38.742 42.4791ZM150.732 43.945C150.299 43.4512 149.859 42.9625 149.412 42.4791L150.144 41.8029C150.596 42.2927 151.042 42.7879 151.481 43.2883L150.732 43.945ZM153.255 46.978C152.848 46.4621 152.434 45.951 152.013 45.445L152.779 44.8081C153.206 45.3208 153.625 45.8386 154.037 46.3613L153.255 46.978ZM36.1408 45.445C35.7199 45.951 35.306 46.4621 34.8993 46.978L34.1171 46.3613C34.5292 45.8386 34.9485 45.3208 35.375 44.8081L36.1408 45.445ZM155.615 50.1389C155.236 49.6023 154.85 49.0703 154.456 48.543L155.254 47.947C155.653 48.4813 156.044 49.0203 156.429 49.564L155.615 50.1389ZM33.6984 48.543C33.3046 49.0703 32.9181 49.6023 32.5389 50.1389L31.7255 49.564C32.1097 49.0203 32.5014 48.4813 32.9003 47.947L33.6984 48.543ZM157.807 53.4191C157.456 52.8632 157.098 52.3117 156.733 51.7646L157.561 51.2112C157.931 51.7656 158.294 52.3244 158.649 52.8876L157.807 53.4191ZM31.4216 51.7646C31.056 52.3117 30.6979 52.8632 30.3472 53.4191L29.5048 52.8876C29.8601 52.3244 30.223 51.7656 30.5934 51.2113L31.4216 51.7646ZM159.824 56.8096C159.503 56.2361 159.174 55.6665 158.838 55.1012L159.694 54.5919C160.035 55.1648 160.368 55.7418 160.693 56.323L159.824 56.8096ZM29.3165 55.1012C28.9801 55.6666 28.6513 56.2361 28.3301 56.8097L27.4611 56.323C27.7865 55.7419 28.1197 55.1648 28.4605 54.5919L29.3165 55.1012ZM161.661 60.3011C161.37 59.7114 161.072 59.1254 160.765 58.5433L161.647 58.0796C161.957 58.6694 162.26 59.2631 162.554 59.8605L161.661 60.3011ZM27.3889 58.5434C27.0826 59.1255 26.7841 59.7115 26.4933 60.3011L25.6 59.8606C25.8946 59.2631 26.1971 58.6694 26.5074 58.0796L27.3889 58.5434ZM163.313 63.8838C163.053 63.2796 162.786 62.6789 162.51 62.0816L163.415 61.6646C163.694 62.2698 163.965 62.8785 164.228 63.4906L163.313 63.8838ZM25.6441 62.0817C25.3688 62.6789 25.1013 63.2797 24.8417 63.8838L23.9266 63.4907C24.1896 62.8785 24.4606 62.2698 24.7395 61.6647L25.6441 62.0817ZM164.775 67.548C164.547 66.931 164.311 66.3171 164.068 65.7063L164.993 65.3372C165.24 65.956 165.478 66.5781 165.709 67.2032L164.775 67.548ZM24.0868 65.7064C23.8431 66.3171 23.6075 66.931 23.3798 67.548L22.4454 67.2033C22.676 66.5781 22.9148 65.9561 23.1617 65.3373L24.0868 65.7064ZM166.043 71.2837C165.848 70.6555 165.645 70.0301 165.433 69.4075L166.376 69.0873C166.591 69.7181 166.796 70.3518 166.994 70.9883L166.043 71.2837ZM22.7213 69.4076C22.51 70.0301 22.3067 70.6556 22.1116 71.2838L21.1604 70.9884C21.3581 70.3519 21.564 69.7182 21.7781 69.0874L22.7213 69.4076ZM167.114 75.0807C166.952 74.4431 166.782 73.8078 166.603 73.1752L167.562 72.9048C167.743 73.5458 167.915 74.1894 168.079 74.8355L167.114 75.0807ZM21.5513 73.1752C21.3728 73.8079 21.2026 74.4431 21.0407 75.0808L20.0753 74.8356C20.2394 74.1895 20.4119 73.5459 20.5927 72.9048L21.5513 73.1752ZM167.985 78.9286C167.856 78.2832 167.72 77.64 167.575 76.999L168.546 76.7791C168.693 77.4286 168.832 78.0804 168.962 78.7342L167.985 78.9286ZM20.5801 76.999C20.435 77.64 20.2983 78.2833 20.1699 78.9286L19.193 78.7343C19.3231 78.0804 19.4616 77.4287 19.6086 76.7792L20.5801 76.999ZM168.653 82.8166C168.558 82.1653 168.456 81.5158 168.344 80.8682L169.326 80.6995C169.439 81.3557 169.543 82.0137 169.639 82.6736L168.653 82.8166ZM19.8104 80.8682C19.6991 81.5158 19.5962 82.1653 19.5018 82.8166L18.5161 82.6737C18.6117 82.0138 18.716 81.3557 18.8287 80.6995L19.8104 80.8682ZM169.117 86.7342C169.056 86.0787 168.988 85.4247 168.91 84.7723L169.899 84.6553C169.978 85.3163 170.047 85.979 170.108 86.6431L169.117 86.7342ZM19.2443 84.7724C19.1671 85.4248 19.0984 86.0788 19.0382 86.7342L18.0463 86.6431C18.1073 85.979 18.177 85.3163 18.2552 84.6553L19.2443 84.7724ZM169.374 90.6708C169.349 90.0129 169.314 89.3562 169.271 88.7008L170.265 88.6357C170.309 89.2998 170.344 89.9651 170.37 90.6317L169.374 90.6708ZM18.8835 88.7008C18.8406 89.3562 18.8061 90.0129 18.7803 90.6708L17.785 90.6317C17.8112 89.9652 17.8461 89.2998 17.8896 88.6357L18.8835 88.7008ZM169.432 93.6297C169.432 93.3005 169.43 92.9715 169.426 92.6428L170.422 92.6297C170.426 92.9628 170.429 93.2962 170.429 93.6297H169.432ZM18.7287 92.6428C18.7244 92.9715 18.7223 93.3005 18.7223 93.6297H17.7262C17.7262 93.2962 17.7284 92.9628 17.7328 92.6297L18.7287 92.6428Z" fill="black" fill-opacity="0.2"/>
</svg>
