<svg width="24" height="25" viewBox="0 0 24 25" fill="none" xmlns="http://www.w3.org/2000/svg">
<path fill-rule="evenodd" clip-rule="evenodd" d="M18 15.6602V18.5C18 19.0523 17.5523 19.5 17 19.5H3C2.44772 19.5 2 19.0523 2 18.5V5.5C2 4.94772 2.44772 4.5 3 4.5H17C17.5523 4.5 18 4.94772 18 5.5V7.33984L19.3125 6.32075C20.8141 5.15475 23 6.22493 23 8.12612V14.8739C23 16.7751 20.8141 17.8453 19.3125 16.6793L18 15.6602ZM4 6.5H16V17.5H4V6.5ZM18 13.1281L20.5391 15.0996C20.7268 15.2453 21 15.1116 21 14.8739V8.12612C21 7.88848 20.7268 7.7547 20.5391 7.90045L18 9.87195V13.1281Z" fill="#A8B3BD"/>
</svg>
