<svg width="22" height="23" viewBox="0 0 22 23" fill="none" xmlns="http://www.w3.org/2000/svg">
<path d="M18.3333 7.99837V3.25004C18.3333 3.00693 18.2368 2.77377 18.0648 2.60186C17.8929 2.42995 17.6598 2.33337 17.4167 2.33337C17.1736 2.33337 16.9404 2.42995 16.7685 2.60186C16.5966 2.77377 16.5 3.00693 16.5 3.25004V7.99837C15.9691 8.19106 15.5104 8.54253 15.1863 9.00503C14.8621 9.46752 14.6882 10.0186 14.6882 10.5834C14.6882 11.1482 14.8621 11.6992 15.1863 12.1617C15.5104 12.6242 15.9691 12.9757 16.5 13.1684V19.75C16.5 19.9932 16.5966 20.2263 16.7685 20.3982C16.9404 20.5701 17.1736 20.6667 17.4167 20.6667C17.6598 20.6667 17.8929 20.5701 18.0648 20.3982C18.2368 20.2263 18.3333 19.9932 18.3333 19.75V13.1684C18.8642 12.9757 19.3229 12.6242 19.6471 12.1617C19.9712 11.6992 20.1451 11.1482 20.1451 10.5834C20.1451 10.0186 19.9712 9.46752 19.6471 9.00503C19.3229 8.54253 18.8642 8.19106 18.3333 7.99837ZM17.4167 11.5C17.2354 11.5 17.0581 11.4463 16.9074 11.3456C16.7566 11.2448 16.6392 11.1017 16.5698 10.9342C16.5004 10.7667 16.4822 10.5824 16.5176 10.4045C16.553 10.2267 16.6403 10.0634 16.7685 9.93519C16.8967 9.80699 17.06 9.71969 17.2378 9.68432C17.4156 9.64895 17.6 9.6671 17.7675 9.73648C17.935 9.80586 18.0781 9.92336 18.1788 10.0741C18.2796 10.2248 18.3333 10.4021 18.3333 10.5834C18.3333 10.8265 18.2368 11.0596 18.0648 11.2316C17.8929 11.4035 17.6598 11.5 17.4167 11.5ZM11.9167 13.4984V3.25004C11.9167 3.00693 11.8201 2.77377 11.6482 2.60186C11.4763 2.42995 11.2431 2.33337 11 2.33337C10.7569 2.33337 10.5237 2.42995 10.3518 2.60186C10.1799 2.77377 10.0833 3.00693 10.0833 3.25004V13.4984C9.55244 13.6911 9.09376 14.0425 8.76961 14.505C8.44545 14.9675 8.27156 15.5186 8.27156 16.0834C8.27156 16.6482 8.44545 17.1992 8.76961 17.6617C9.09376 18.1242 9.55244 18.4757 10.0833 18.6684V19.75C10.0833 19.9932 10.1799 20.2263 10.3518 20.3982C10.5237 20.5701 10.7569 20.6667 11 20.6667C11.2431 20.6667 11.4763 20.5701 11.6482 20.3982C11.8201 20.2263 11.9167 19.9932 11.9167 19.75V18.6684C12.4476 18.4757 12.9062 18.1242 13.2304 17.6617C13.5545 17.1992 13.7284 16.6482 13.7284 16.0834C13.7284 15.5186 13.5545 14.9675 13.2304 14.505C12.9062 14.0425 12.4476 13.6911 11.9167 13.4984ZM11 17C10.8187 17 10.6415 16.9463 10.4907 16.8456C10.34 16.7448 10.2225 16.6017 10.1531 16.4342C10.0837 16.2667 10.0656 16.0824 10.1009 15.9045C10.1363 15.7267 10.2236 15.5634 10.3518 15.4352C10.48 15.307 10.6434 15.2197 10.8212 15.1843C10.999 15.149 11.1833 15.1671 11.3508 15.2365C11.5183 15.3059 11.6615 15.4234 11.7622 15.5741C11.8629 15.7248 11.9167 15.9021 11.9167 16.0834C11.9167 16.3265 11.8201 16.5596 11.6482 16.7316C11.4763 16.9035 11.2431 17 11 17ZM5.5 6.16504V3.25004C5.5 3.00693 5.40342 2.77377 5.23151 2.60186C5.05961 2.42995 4.82645 2.33337 4.58333 2.33337C4.34022 2.33337 4.10706 2.42995 3.93515 2.60186C3.76324 2.77377 3.66667 3.00693 3.66667 3.25004V6.16504C3.13578 6.35773 2.67709 6.7092 2.35294 7.17169C2.02879 7.63418 1.8549 8.18526 1.8549 8.75004C1.8549 9.31482 2.02879 9.8659 2.35294 10.3284C2.67709 10.7909 3.13578 11.1424 3.66667 11.335V19.75C3.66667 19.9932 3.76324 20.2263 3.93515 20.3982C4.10706 20.5701 4.34022 20.6667 4.58333 20.6667C4.82645 20.6667 5.05961 20.5701 5.23151 20.3982C5.40342 20.2263 5.5 19.9932 5.5 19.75V11.335C6.03089 11.1424 6.48958 10.7909 6.81373 10.3284C7.13788 9.8659 7.31177 9.31482 7.31177 8.75004C7.31177 8.18526 7.13788 7.63418 6.81373 7.17169C6.48958 6.7092 6.03089 6.35773 5.5 6.16504ZM4.58333 9.66671C4.40203 9.66671 4.22481 9.61295 4.07406 9.51222C3.92332 9.4115 3.80582 9.26833 3.73644 9.10083C3.66706 8.93334 3.64891 8.74902 3.68428 8.57121C3.71965 8.39339 3.80695 8.23006 3.93515 8.10186C4.06335 7.97366 4.22668 7.88636 4.4045 7.85099C4.58232 7.81562 4.76663 7.83377 4.93413 7.90315C5.10163 7.97253 5.24479 8.09002 5.34551 8.24077C5.44624 8.39151 5.5 8.56874 5.5 8.75004C5.5 8.99316 5.40342 9.22631 5.23151 9.39822C5.05961 9.57013 4.82645 9.66671 4.58333 9.66671Z" fill="#A8B3BD"/>
</svg>
