<svg width="20" height="17" viewBox="0 0 20 17" fill="none" xmlns="http://www.w3.org/2000/svg">
<path fill-rule="evenodd" clip-rule="evenodd" d="M1.44772 0.781049C1.94781 0.280952 2.62609 0 3.33333 0H8.33333C8.88562 0 9.33333 0.447715 9.33333 1V16C9.33333 16.5523 8.88562 17 8.33333 17H3.33333C2.62609 17 1.94781 16.719 1.44772 16.219C0.947618 15.7189 0.666666 15.0406 0.666666 14.3333V2.66667C0.666666 1.95942 0.947618 1.28115 1.44772 0.781049ZM3.33333 2C3.15652 2 2.98695 2.07024 2.86193 2.19526C2.7369 2.32029 2.66667 2.48986 2.66667 2.66667V14.3333C2.66667 14.5101 2.7369 14.6797 2.86193 14.8047C2.98695 14.9298 3.15652 15 3.33333 15H7.33333V2H3.33333Z" fill="#A8B3BD"/>
<path fill-rule="evenodd" clip-rule="evenodd" d="M10.6667 1C10.6667 0.447715 11.1144 0 11.6667 0H16.6667C17.3739 0 18.0522 0.280952 18.5523 0.781049C19.0524 1.28115 19.3333 1.95942 19.3333 2.66667V6.83333C19.3333 7.38562 18.8856 7.83333 18.3333 7.83333H11.6667C11.1144 7.83333 10.6667 7.38562 10.6667 6.83333V1ZM12.6667 2V5.83333H17.3333V2.66667C17.3333 2.48986 17.2631 2.32029 17.1381 2.19526C17.013 2.07024 16.8435 2 16.6667 2H12.6667Z" fill="#A8B3BD"/>
<path fill-rule="evenodd" clip-rule="evenodd" d="M11.6667 9.16667C11.1144 9.16667 10.6667 9.61438 10.6667 10.1667V16C10.6667 16.5523 11.1144 17 11.6667 17H16.6667C17.3739 17 18.0522 16.719 18.5523 16.219C19.0524 15.7189 19.3333 15.0406 19.3333 14.3333V10.1667C19.3333 9.61438 18.8856 9.16667 18.3333 9.16667H11.6667ZM12.6667 15V11.1667H17.3333V14.3333C17.3333 14.5101 17.2631 14.6797 17.1381 14.8047C17.013 14.9298 16.8435 15 16.6667 15H12.6667Z" fill="#A8B3BD"/>
</svg>
