<svg width="24" height="25" viewBox="0 0 24 25" fill="none" xmlns="http://www.w3.org/2000/svg">
<path d="M21 2.5H3C2.73478 2.5 2.48043 2.60536 2.29289 2.79289C2.10536 2.98043 2 3.23478 2 3.5V21.5C2 21.7652 2.10536 22.0196 2.29289 22.2071C2.48043 22.3946 2.73478 22.5 3 22.5H21C21.2652 22.5 21.5196 22.3946 21.7071 22.2071C21.8946 22.0196 22 21.7652 22 21.5V3.5C22 3.23478 21.8946 2.98043 21.7071 2.79289C21.5196 2.60536 21.2652 2.5 21 2.5ZM8 20.5H4V16.5H8V20.5ZM8 14.5H4V10.5H8V14.5ZM8 8.5H4V4.5H8V8.5ZM14 20.5H10V16.5H14V20.5ZM14 14.5H10V10.5H14V14.5ZM14 8.5H10V4.5H14V8.5ZM20 20.5H16V16.5H20V20.5ZM20 14.5H16V10.5H20V14.5ZM20 8.5H16V4.5H20V8.5Z" fill="#A8B3BD"/>
</svg>
