<svg width="24" height="25" viewBox="0 0 24 25" fill="none" xmlns="http://www.w3.org/2000/svg">
<path fill-rule="evenodd" clip-rule="evenodd" d="M3.6378 11.5763L3.48731 12.0674C3.16539 13.1812 3 14.2101 3 15C3 18.0376 5.46243 20.5 8.5 20.5C9.67954 20.5 10.7723 20.1287 11.6679 19.4966C12.071 19.2118 12.4342 18.8741 12.7472 18.4933L12.8123 18.4141C13.5559 17.4762 14 16.2899 14 15C14 14.2101 13.8346 13.1812 13.5127 12.0675L13.3622 11.5762C13.2225 11.1445 13.063 10.7121 12.8862 10.2878L12.879 10.2708C12.844 10.187 12.8083 10.1036 12.772 10.0207C12.3676 9.09652 11.8864 8.23018 11.3565 7.50604C11.2966 7.42429 11.2361 7.34428 11.175 7.26613C11.1559 7.24169 11.1367 7.21751 11.1176 7.1936C11.0101 7.05911 10.9008 6.93067 10.79 6.80893C10.5392 6.53324 10.2916 6.30356 10.049 6.11758C9.50519 5.70118 8.98082 5.5 8.5 5.5C7.69308 5.5 6.76352 6.06659 5.82502 7.26613C4.91435 8.43009 4.14538 10.0078 3.6378 11.5763ZM11.2666 4.53177C10.4596 3.91201 9.53143 3.5 8.5 3.5C6.76139 3.5 5.3163 4.67065 4.24984 6.03372C3.15693 7.4306 2.29159 9.2378 1.73237 10.9685L1.73003 10.9757L1.57049 11.4964L1.56835 11.5038C1.211 12.7379 1 13.9641 1 15C1 19.1421 4.35786 22.5 8.5 22.5C8.62944 22.5 8.75812 22.4967 8.88595 22.4902C10.7081 22.3979 12.3587 21.6552 13.6102 20.4897C14.5745 21.1509 15.7426 21.5385 17 21.5385C20.3137 21.5385 23 18.8522 23 15.5385C23 13.9527 22.3781 11.7704 21.4153 9.98898C20.9291 9.0895 20.3262 8.23555 19.6173 7.59385C18.9109 6.95445 18.0244 6.46154 17 6.46154C16.0972 6.46154 15.3002 6.84552 14.6441 7.37111C14.4185 7.55179 14.2036 7.7538 13.9994 7.97195C13.6941 7.40285 13.3566 6.85569 12.9899 6.35161C12.9113 6.24352 12.8313 6.13749 12.7502 6.03372C12.7492 6.0325 12.7482 6.03129 12.7473 6.03007C12.7259 6.00273 12.7044 5.97555 12.6828 5.94853C12.5484 5.78028 12.4105 5.61806 12.2692 5.46278C11.962 5.12522 11.6271 4.80835 11.2666 4.53177ZM14.9251 9.99989C15.2393 9.55644 15.5673 9.19412 15.8945 8.93201C16.3169 8.59366 16.6859 8.46154 17 8.46154C17.3563 8.46154 17.7851 8.63307 18.2751 9.07661C18.7626 9.51787 19.2372 10.1654 19.6558 10.94C20.5026 12.5067 21 14.3628 21 15.5385C21 17.7476 19.2091 19.5385 17 19.5385C16.2234 19.5385 15.4994 19.3178 14.886 18.935C15.5924 17.7911 16 16.4432 16 15C16 13.9641 15.789 12.7379 15.4317 11.5038L15.4295 11.4964L15.27 10.9757L15.2676 10.9685C15.1638 10.6472 15.0495 10.3233 14.9251 9.99989Z" fill="#A8B3BD"/>
</svg>
