<svg width="24" height="19" viewBox="0 0 24 19" fill="none" xmlns="http://www.w3.org/2000/svg">
<path fill-rule="evenodd" clip-rule="evenodd" d="M12.0005 0.5C11.6602 0.5 11.3276 0.600709 11.0445 0.789435L2.61891 6.40682C2.38277 6.56411 2.18912 6.77727 2.05515 7.02737C1.92117 7.27747 1.85102 7.55685 1.8509 7.84058V16.5851H1.27643C1.02249 16.5851 0.778959 16.6859 0.5994 16.8655C0.419841 17.0451 0.318966 17.2886 0.318966 17.5425C0.318966 17.7965 0.419841 18.04 0.5994 18.2196C0.778959 18.3991 1.02249 18.5 1.27643 18.5H22.7236C22.9775 18.5 23.221 18.3991 23.4006 18.2196C23.5802 18.04 23.681 17.7965 23.681 17.5425C23.681 17.2886 23.5802 17.0451 23.4006 16.8655C23.221 16.6859 22.9775 16.5851 22.7236 16.5851H22.1491V7.84058C22.1491 7.55696 22.0791 7.27771 21.9453 7.02762C21.8115 6.77753 21.6181 6.56428 21.3821 6.40687L12.9564 0.789435C12.6733 0.600709 12.3407 0.5 12.0005 0.5ZM3.76583 7.94306L12 2.45329L20.2342 7.94211V16.5851H18.3192V11.4148C18.3192 11.1608 18.2184 10.9173 18.0388 10.7378C17.8593 10.5582 17.6157 10.4573 17.3618 10.4573H6.63821C6.38428 10.4573 6.14075 10.5582 5.96119 10.7378C5.78163 10.9173 5.68075 11.1608 5.68075 11.4148V16.5851H3.76583V7.94306ZM7.59568 13.5212V12.3722H11.0425V13.5212H7.59568ZM12.9575 13.5212V12.3722H16.4043V13.5212H12.9575ZM7.59568 16.5851V15.4361H11.0425V16.5851H7.59568ZM12.9575 16.5851V15.4361H16.4043V16.5851H12.9575Z" fill="white"/>
</svg>
