<svg width="18" height="25" viewBox="0 0 18 25" fill="none" xmlns="http://www.w3.org/2000/svg">
<g clip-path="url(#clip0_1087_1689)">
<path d="M15.4272 4.73512C15.4272 4.3854 15.2859 4.12635 15.0069 3.96464C14.769 3.82726 14.5292 3.68046 14.2972 3.53838C14.2062 3.48264 14.1155 3.42691 14.0233 3.37078C13.6484 3.14509 13.2748 2.9194 12.9011 2.69371C12.527 2.46802 12.153 2.24233 11.7789 2.01703L11.3193 1.73875C10.7761 1.40944 10.2148 1.06914 9.65744 0.736689C9.41016 0.589108 8.95015 0.314356 8.42891 0.686449C8.22559 0.82932 8.00932 0.951389 7.78049 1.08131C7.6596 1.15 7.53439 1.22065 7.41272 1.29365C6.97507 1.55349 6.53351 1.81882 6.10607 2.07513C5.79168 2.26392 5.47768 2.45232 5.1625 2.64072C4.48739 3.04579 3.78913 3.46459 3.10303 3.8724C2.76469 4.07336 2.58532 4.36106 2.55392 4.7516L2.55274 5.64259C2.55588 6.41739 2.5547 7.20828 2.55392 7.97327C2.55353 8.3646 2.55274 8.7571 2.55274 9.15039V11.308C2.55392 11.4406 2.5547 11.5733 2.55667 11.7079C2.55667 11.724 2.55627 11.7342 2.55549 11.7401L2.55274 11.7605V13.2344L2.55549 13.2552C2.55627 13.2607 2.55667 13.2677 2.55667 13.2756C2.55274 16.4513 2.55274 19.6738 2.55667 22.8531C2.55667 22.8696 2.55588 22.877 2.55549 22.879L2.55274 22.8998V24.4977H9.93965C11.6655 24.4977 13.3894 24.498 15.1125 24.4996H15.4268V22.8978L15.4241 22.8774C15.4241 22.8747 15.4229 22.8664 15.4229 22.8495C15.4268 19.6738 15.4268 16.4415 15.4268 13.3152V4.73512H15.4272ZM13.6508 19.8712C13.6512 19.9772 13.6516 20.0832 13.6516 20.1884C13.6516 20.4184 13.6516 20.646 13.6512 20.8717C13.6504 21.5103 13.6496 22.1156 13.6547 22.7239C12.1031 22.722 10.5414 22.7212 8.97841 22.7212C7.41546 22.7212 5.85723 22.722 4.30645 22.7239C4.30998 21.3035 4.30998 19.8649 4.30998 18.468C4.55529 18.6235 4.80885 18.784 5.06084 18.9375C5.36777 19.1251 5.68256 19.3115 5.98675 19.4917C6.225 19.633 6.47149 19.7786 6.71092 19.9234C6.9162 20.0475 7.1203 20.1723 7.3244 20.2967C7.71494 20.5353 8.11883 20.7822 8.51997 21.0165C8.99921 21.298 9.42979 21.0303 9.65823 20.8886C10.2752 20.5137 10.9068 20.1362 11.5179 19.7711L11.5269 19.7656C11.9077 19.5341 12.2892 19.3025 12.6707 19.0709C13.0063 18.8676 13.3415 18.6639 13.6763 18.4602C13.6743 18.523 13.672 18.585 13.6696 18.6466C13.6629 18.8354 13.6559 19.0305 13.6519 19.2259C13.6492 19.4406 13.6504 19.6593 13.6512 19.8704L13.6508 19.8712ZM13.6527 6.04255C10.5512 6.03901 7.41036 6.03901 4.31273 6.04255C4.32254 5.81843 4.32843 5.58842 4.30017 5.35959C4.28407 5.21986 4.29585 5.1653 4.49406 5.05108L4.49563 5.04991C5.17859 4.65073 5.86704 4.23546 6.53312 3.83354C6.89736 3.61374 7.26121 3.39433 7.6282 3.17492L7.81856 3.05913C8.19811 2.82834 8.59062 2.5897 8.9788 2.37029C9.58954 2.72904 10.2081 3.10074 10.8067 3.46066C10.97 3.55879 11.1333 3.65691 11.2961 3.75465C11.3091 3.76878 11.3268 3.78762 11.3499 3.80685L11.3707 3.82412L11.3943 3.83746C12.1675 4.28256 12.9148 4.73198 13.6378 5.16648L13.6437 5.17001C13.6476 5.17237 13.6512 5.17472 13.6543 5.17669C13.6441 5.48048 13.6465 5.77839 13.6516 6.04215L13.6527 6.04255ZM4.31076 9.08876C4.31076 8.79831 4.31037 8.50786 4.31037 8.21701C4.31037 8.15068 4.30959 8.08749 4.3088 8.02665C4.30802 7.94736 4.30723 7.87436 4.30802 7.80489C5.34226 7.80489 6.37651 7.80528 7.41075 7.80567C9.45726 7.80646 11.5725 7.80724 13.6547 7.80489C13.648 9.07071 13.648 10.3518 13.6547 11.6157C10.5523 11.6118 7.4084 11.6118 4.30645 11.6157C4.31155 10.771 4.31116 9.91616 4.31037 9.08837L4.31076 9.08876ZM4.30723 13.3521C4.4238 13.3529 4.53999 13.3521 4.65342 13.3517C4.73153 13.3513 4.80924 13.351 4.88735 13.351H13.6519C13.6519 13.6088 13.6512 13.8663 13.6504 14.1246C13.648 14.8507 13.6457 15.6016 13.6602 16.3434C13.6618 16.4415 13.6504 16.4737 13.542 16.5397C13.1511 16.7732 12.7606 17.0079 12.37 17.2426C11.9795 17.4769 11.5893 17.7117 11.2 17.944C11.0834 18.0131 10.9617 18.0763 10.833 18.143C10.7608 18.1803 10.6889 18.2176 10.6179 18.2561L10.5994 18.2667C10.2501 18.4869 9.90668 18.6972 9.57462 18.9006L9.33088 19.0497L9.32538 19.0532C9.30537 19.0662 9.28613 19.0776 9.26729 19.089C9.23315 19.1094 9.19782 19.131 9.16132 19.1561C9.11696 19.1863 9.03101 19.2452 8.98705 19.2672C8.94309 19.2475 8.85516 19.1938 8.79864 19.1588C8.19183 18.7903 7.57286 18.4197 6.97468 18.0614C6.73957 17.9209 6.50486 17.78 6.27053 17.6394C5.98557 17.4671 5.70062 17.296 5.41605 17.1257C5.05259 16.9078 4.67658 16.6825 4.3088 16.4584L4.30645 16.4568C4.3139 15.4269 4.3143 14.3832 4.30723 13.3525V13.3521Z" fill="#A8B3BD"/>
<path d="M1.4345 22.7235H2.57276V24.4976H1.39525C0.961928 24.4976 0.610245 24.1459 0.610245 23.7126V23.5478C0.610245 23.0929 0.97959 22.7235 1.4345 22.7235Z" fill="#A8B3BD"/>
<path d="M15.4272 22.7235H16.6047C17.0381 22.7235 17.3898 23.0752 17.3898 23.5085V23.7126C17.3898 24.1459 17.0381 24.4976 16.6047 24.4976H15.4272V22.7235Z" fill="#A8B3BD"/>
<path d="M1.39525 11.6079H2.57276V13.3506H1.39525C0.961928 13.3506 0.610245 12.9989 0.610245 12.5656V12.3929C0.610245 11.9596 0.961928 11.6079 1.39525 11.6079Z" fill="#A8B3BD"/>
<path d="M15.4272 11.6079H16.6047C17.0381 11.6079 17.3898 11.9596 17.3898 12.3929V12.5656C17.3898 12.9989 17.0381 13.3506 16.6047 13.3506H15.4272V11.6079Z" fill="#A8B3BD"/>
</g>
<defs>
<clipPath id="clip0_1087_1689">
<rect width="16.7795" height="24" fill="white" transform="translate(0.610245 0.5)"/>
</clipPath>
</defs>
</svg>
