<svg width="24" height="25" viewBox="0 0 24 25" fill="none" xmlns="http://www.w3.org/2000/svg">
<g clip-path="url(#clip0_1087_1701)">
<path d="M17.9156 12.1486C17.7356 11.9657 17.4944 11.8621 17.235 11.8591H17.23H17.224C16.6882 11.8712 16.2791 12.2773 16.2721 12.804C16.2459 14.6224 15.7061 15.9392 14.6668 16.7162C12.959 17.9948 10.4138 17.5375 10.1957 17.4953C9.71017 17.3596 9.19048 17.636 9.03166 18.1155C8.95024 18.3577 8.96834 18.6181 9.08293 18.8472C9.19752 19.0764 9.39554 19.2483 9.6388 19.3287C9.87402 19.4071 10.5807 19.5308 11.4743 19.5308C12.6333 19.5308 14.3079 19.3227 15.7041 18.3316C17.3165 17.1867 18.1528 15.3361 18.189 12.8312C18.193 12.5738 18.0955 12.3316 17.9156 12.1486Z" fill="#A8B3BD"/>
<path d="M23.9799 10.4387C23.9236 10.1663 23.7477 9.93816 23.4974 9.8115C22.1283 9.12797 18.6855 10.2669 16.9556 11.6601C16.5636 11.7736 14.7311 11.8721 12.5157 11.85L10.9365 7.28445C10.5455 5.61482 9.08092 4.45081 7.36304 4.45081H6.84738C4.83498 4.45081 3.11208 5.89326 2.73513 7.84635L0.478472 9.05962C0.182945 9.21844 0 9.52502 0 9.85975C0 10.1945 0.18395 10.5031 0.478472 10.6599L2.65472 11.8299V18.1385C2.65472 20.3208 4.61283 22.8137 7.21126 23.9395C7.32585 23.9888 7.44647 24.0129 7.57112 24.0129C7.93399 24.0129 8.26068 23.7978 8.40442 23.465C8.60245 23.0057 8.39136 22.4699 7.93098 22.2709C6.02312 21.4456 4.4711 19.591 4.4711 18.1385V11.2871C4.4711 10.9504 4.28715 10.6438 3.99263 10.487L2.8266 9.85975L4.00369 9.22748C4.28212 9.07872 4.46004 8.80128 4.48015 8.48666C4.56257 7.24323 5.60194 6.2692 6.84738 6.2692H7.36304C8.24862 6.2692 8.97939 6.86729 9.18244 7.75789L9.18847 7.78403L11.0059 13.0462C11.1295 13.4031 11.4672 13.6483 11.8472 13.6574C17.2642 13.7629 17.8201 13.3417 18.0643 13.0985C19.0374 12.3014 20.52 11.7354 21.5926 11.5143C21.3001 12.3667 21.1734 13.3397 21.0337 14.4213C20.895 15.4959 20.7371 16.7132 20.3873 18.1476C20.0958 19.4403 19.0816 20.6585 17.605 21.4888C16.9204 21.8738 16.459 22.0296 15.4599 22.2116C15.2206 22.2548 15.0136 22.3885 14.8749 22.5875C14.7361 22.7875 14.6839 23.0288 14.7281 23.268C14.8186 23.7596 15.292 24.0873 15.7846 23.9988C16.8279 23.8088 17.5336 23.6128 18.4966 23.071C20.4195 21.9894 21.7534 20.3429 22.1555 18.5617C22.5244 17.0479 22.6892 15.7763 22.835 14.6535C23.039 13.0764 23.1868 11.9365 23.7919 11.2007C23.9688 10.9846 24.0372 10.7051 23.9789 10.4377L23.9799 10.4387Z" fill="#A8B3BD"/>
<path d="M6.39002 13.0804C6.29653 11.7274 5.31044 11.1897 4.16452 10.5654C3.82275 10.3825 3.39353 10.5101 3.20556 10.8509C3.0196 11.1937 3.14827 11.6239 3.49003 11.8099C4.71235 12.4743 4.94053 12.6763 4.97671 13.1387C4.9737 13.3729 4.88424 13.577 4.73044 13.6996C4.57765 13.8213 4.36757 13.8584 4.13537 13.8042C3.7554 13.7197 3.37645 13.96 3.29 14.3369C3.20355 14.7169 3.44279 15.0968 3.82175 15.1843C3.99464 15.2245 4.16954 15.2446 4.34143 15.2446C4.81287 15.2446 5.25214 15.0938 5.612 14.8063C6.10756 14.4103 6.39203 13.7881 6.39002 13.0995V13.0794V13.0804Z" fill="#A8B3BD"/>
<path d="M10.2349 7.51978C10.0107 7.51978 9.82878 7.33784 9.82878 7.11368C9.82878 6.88952 10.0107 6.70758 10.2349 6.70758C10.9285 6.70758 11.4934 6.14266 11.4934 5.44908C11.4934 4.7555 10.9285 4.18957 10.2349 4.18957C10.1394 4.18957 10.0348 4.20566 9.90719 4.23983C9.78455 4.27502 9.65086 4.24687 9.54934 4.16746C9.44882 4.08805 9.39152 3.96542 9.39554 3.83675C9.39554 3.82167 9.40057 3.78147 9.40258 3.76639C9.40057 2.97228 8.7301 2.30082 7.90585 2.30082C7.20724 2.30082 6.59407 2.79638 6.44731 3.4789C6.41615 3.62264 6.3096 3.73824 6.16887 3.78147C6.02814 3.82569 5.87636 3.7885 5.76981 3.68698C5.53258 3.46081 5.22499 3.33616 4.90233 3.33616C4.20774 3.33616 3.64383 3.90108 3.64383 4.59467C3.64383 5.05203 3.89814 5.47321 4.30826 5.69535C4.50528 5.8019 4.57866 6.04818 4.4711 6.2462C4.36455 6.44221 4.11828 6.5166 3.92126 6.40904C3.24979 6.04516 2.83163 5.34957 2.83163 4.59467C2.83163 3.45277 3.76043 2.52397 4.90233 2.52397C5.23505 2.52397 5.55872 2.60438 5.84922 2.75516C6.23521 1.99725 7.02731 1.48962 7.90585 1.48962C9.03568 1.48962 9.97856 2.30584 10.1746 3.38039C11.3466 3.36029 12.3046 4.28909 12.3046 5.45009C12.3046 6.61108 11.3758 7.52079 10.2339 7.52079L10.2349 7.51978Z" fill="#A8B3BD"/>
<path d="M10.2349 8.02235C9.73429 8.02235 9.32618 7.61424 9.32618 7.11365C9.32618 6.61306 9.73429 6.20496 10.2349 6.20496C10.652 6.20496 10.9908 5.8652 10.9908 5.44905C10.9908 5.0329 10.651 4.69214 10.2349 4.69214C10.1846 4.69214 10.1203 4.7032 10.0379 4.72531C9.76747 4.80171 9.46591 4.74139 9.23873 4.56146C9.01458 4.38354 8.88491 4.10712 8.89395 3.82164C8.89395 3.80254 8.89797 3.77038 8.89998 3.74123C8.8849 3.22958 8.43558 2.80238 7.90685 2.80238C7.44346 2.80238 7.03635 3.13107 6.93885 3.58341C6.86748 3.90708 6.62925 4.16542 6.31563 4.26091C6.00603 4.35741 5.66326 4.27699 5.42402 4.04982C5.28028 3.91211 5.09533 3.83672 4.90333 3.83672C4.48618 3.83672 4.14743 4.17647 4.14743 4.59262C4.14743 4.86503 4.30122 5.11734 4.5485 5.25203C4.98878 5.49127 5.15262 6.04312 4.91439 6.4844C4.79879 6.6975 4.60781 6.8523 4.37561 6.92166C4.1424 6.99202 3.89613 6.96589 3.68202 6.84928C2.84872 6.39795 2.33004 5.53349 2.33004 4.59363C2.33004 3.1743 3.484 2.02033 4.90333 2.02033C5.15564 2.02033 5.40694 2.05853 5.64718 2.13091C6.17289 1.42325 7.01726 0.984985 7.90685 0.984985C9.12816 0.984985 10.1917 1.76904 10.5706 2.89887C11.1255 2.97326 11.6371 3.22255 12.0422 3.6206C12.5368 4.10712 12.8092 4.75547 12.8092 5.44804C12.8092 6.86738 11.6552 8.02134 10.2359 8.02134L10.2349 8.02235Z" fill="#A8B3BD"/>
</g>
<defs>
<clipPath id="clip0_1087_1701">
<rect width="24" height="23.028" fill="white" transform="translate(0 0.985962)"/>
</clipPath>
</defs>
</svg>
