<svg width="24" height="25" viewBox="0 0 24 25" fill="none" xmlns="http://www.w3.org/2000/svg">
<path fill-rule="evenodd" clip-rule="evenodd" d="M10 3.5C8.89543 3.5 8 4.39543 8 5.5V6.5H4C3.44772 6.5 3 6.94772 3 7.5V20.5C3 21.0523 3.44772 21.5 4 21.5H20C20.5523 21.5 21 21.0523 21 20.5V7.5C21 6.94772 20.5523 6.5 20 6.5H16V5.5C16 4.39543 15.1046 3.5 14 3.5H10ZM14 6.5V5.5H10V6.5H14ZM5 8.5V19.5H19V8.5H5Z" fill="#A8B3BD"/>
<path d="M10.6667 10.9922C10.6667 10.716 10.8906 10.4922 11.1667 10.4922H12.8334C13.1096 10.4922 13.3334 10.716 13.3334 10.9922V13.1589H15.5C15.7761 13.1589 16 13.3828 16 13.6589V15.3256C16 15.6017 15.7761 15.8256 15.5 15.8256H13.3334V17.9922C13.3334 18.2683 13.1096 18.4922 12.8334 18.4922H11.1667C10.8906 18.4922 10.6667 18.2683 10.6667 17.9922V15.8256H8.5C8.22386 15.8256 8 15.6017 8 15.3256V13.6589C8 13.3828 8.22386 13.1589 8.5 13.1589H10.6667V10.9922Z" fill="#A8B3BD"/>
</svg>
