<svg width="44" height="24" viewBox="0 0 44 24" fill="none" xmlns="http://www.w3.org/2000/svg">
<path d="M9.53483 24V18.0011C9.53483 18.0011 9.81196 13.1259 16.0018 13.1259C23.8102 13.1259 26.8497 19.6641 29.9225 21.0113C31.1263 21.6021 32.4521 21.9266 33.8 21.9631C36.7819 21.9631 43.7499 19.2859 43.7499 6.05264C43.7499 6.05264 39.9367 10.3928 35.3497 10.3928C30.7627 10.3928 29.4347 7.92838 29.4347 7.92838C29.4347 7.92838 33.4697 7.66195 33.4697 0C33.4697 0 30.8713 3.05318 28.6055 3.26804C26.3375 3.4829 19.5402 2.6256 14.3457 7.2838C14.011 6.38997 13.9533 5.42095 14.1795 4.49705C14.1795 4.49705 7.93415 8.83724 7.93415 18.2116C5.11855 17.9624 2.32734 18.8799 0.25 20.7341C0.25 20.7341 5.66837 21.0005 9.53483 24Z" fill="#007CDB"/>
</svg>
