<svg width="24" height="25" viewBox="0 0 24 25" fill="none" xmlns="http://www.w3.org/2000/svg">
<path d="M16.6839 11.2295C17.0869 10.8518 17.1073 10.219 16.7295 9.81606C16.3518 9.41315 15.719 9.39274 15.3161 9.77047L10.6667 14.1293L8.68394 12.2705C8.28103 11.8927 7.6482 11.9131 7.27047 12.3161C6.89274 12.719 6.91315 13.3518 7.31606 13.7295L9.98273 16.2295C10.3674 16.5902 10.966 16.5902 11.3506 16.2295L16.6839 11.2295Z" fill="#7F8A94"/>
<path fill-rule="evenodd" clip-rule="evenodd" d="M22 12.5C22 18.0228 17.5228 22.5 12 22.5C6.47715 22.5 2 18.0228 2 12.5C2 6.97715 6.47715 2.5 12 2.5C17.5228 2.5 22 6.97715 22 12.5ZM20 12.5C20 16.9183 16.4183 20.5 12 20.5C7.58172 20.5 4 16.9183 4 12.5C4 8.08172 7.58172 4.5 12 4.5C16.4183 4.5 20 8.08172 20 12.5Z" fill="#7F8A94"/>
</svg>
