<svg width="24" height="25" viewBox="0 0 24 25" fill="none" xmlns="http://www.w3.org/2000/svg">
<path fill-rule="evenodd" clip-rule="evenodd" d="M22 12.5C22 18.0228 17.5228 22.5 12 22.5C6.47715 22.5 2 18.0228 2 12.5C2 6.97715 6.47715 2.5 12 2.5C17.5228 2.5 22 6.97715 22 12.5ZM9.70711 8.79289C9.31658 8.40237 8.68342 8.40237 8.29289 8.79289C7.90237 9.18342 7.90237 9.81658 8.29289 10.2071L10.5858 12.5L8.29289 14.7929C7.90237 15.1834 7.90237 15.8166 8.29289 16.2071C8.68342 16.5976 9.31658 16.5976 9.70711 16.2071L12 13.9142L14.2929 16.2071C14.6834 16.5976 15.3166 16.5976 15.7071 16.2071C16.0976 15.8166 16.0976 15.1834 15.7071 14.7929L13.4142 12.5L15.7071 10.2071C16.0976 9.81658 16.0976 9.18342 15.7071 8.79289C15.3166 8.40237 14.6834 8.40237 14.2929 8.79289L12 11.0858L9.70711 8.79289Z" fill="#7F8A94"/>
</svg>
