<svg width="24" height="24" viewBox="0 0 24 24" fill="none" xmlns="http://www.w3.org/2000/svg">
<path fill-rule="evenodd" clip-rule="evenodd" d="M4.53659 3.26C4.18512 2.90853 3.61527 2.90853 3.2638 3.26C2.91233 3.61147 2.91233 4.18132 3.2638 4.5328L5.34586 6.61486C2.08616 8.74783 1.2002 11.9964 1.2002 11.9964C1.2002 11.9964 3.16383 19.1964 12.0002 19.1964C13.9957 19.1964 15.6406 18.8292 16.9917 18.2607L19.4638 20.7328C19.8153 21.0843 20.3851 21.0843 20.7366 20.7328C21.0881 20.3813 21.0881 19.8115 20.7366 19.46L4.53659 3.26ZM15.5937 16.8627L14.4818 15.7508C13.7704 16.222 12.9174 16.4964 12.0002 16.4964C9.51491 16.4964 7.50019 14.4817 7.50019 11.9964C7.50019 11.0792 7.77458 10.2261 8.24574 9.51474L6.65211 7.92111C5.80299 8.42354 5.14455 9.01385 4.63358 9.59032C3.97072 10.3382 3.53609 11.0882 3.26955 11.6467C3.20816 11.7753 3.15618 11.8927 3.11279 11.9964C3.15618 12.1 3.20816 12.2174 3.26955 12.3461C3.53609 12.9045 3.97072 13.6546 4.63358 14.4024C5.92151 15.8555 8.14631 17.3964 12.0002 17.3964C13.4026 17.3964 14.5894 17.1923 15.5937 16.8627ZM9.56332 10.8323C9.39465 11.1848 9.30019 11.5795 9.30019 11.9964C9.30019 13.4875 10.509 14.6964 12.0002 14.6964C12.417 14.6964 12.8118 14.6019 13.1642 14.4332L9.56332 10.8323Z" fill="#7F8A94"/>
<path d="M22.8 11.9908C22.7283 11.7384 20.6773 4.79673 12.0002 4.79673C10.7984 4.79673 9.72375 4.92988 8.76384 5.15998L10.3076 6.70372C10.8336 6.63447 11.397 6.59673 12.0002 6.59673C15.8548 6.59673 18.08 8.13793 19.3682 9.59127C20.0312 10.3393 20.4659 11.0894 20.7325 11.648C20.794 11.7767 20.846 11.8942 20.8894 11.9979C20.846 12.1016 20.794 12.2191 20.7325 12.3478C20.4659 12.9064 20.0312 13.6565 19.3682 14.4045C19.1665 14.6321 18.9418 14.8619 18.6914 15.0875L19.9654 16.3616C22.0914 14.4109 22.7596 12.1471 22.8 12.005V11.9908Z" fill="#7F8A94"/>
<path d="M16.4258 12.822C16.4752 12.555 16.501 12.2798 16.501 11.9985C16.501 9.51282 14.486 7.49777 12.0003 7.49777C11.719 7.49777 11.4438 7.52357 11.1768 7.57294L13.165 9.56113C13.7209 9.82724 14.1715 10.2779 14.4376 10.8338L16.4258 12.822Z" fill="#7F8A94"/>
</svg>
