<svg width="24" height="24" viewBox="0 0 24 24" fill="none" xmlns="http://www.w3.org/2000/svg">
<path fill-rule="evenodd" clip-rule="evenodd" d="M16.5002 12C16.5002 14.4853 14.4855 16.5 12.0002 16.5C9.51491 16.5 7.5002 14.4853 7.5002 12C7.5002 9.51471 9.51491 7.49999 12.0002 7.49999C14.4855 7.49999 16.5002 9.51471 16.5002 12ZM14.7002 12C14.7002 13.4912 13.4914 14.7 12.0002 14.7C10.509 14.7 9.3002 13.4912 9.3002 12C9.3002 10.5088 10.509 9.29999 12.0002 9.29999C13.4914 9.29999 14.7002 10.5088 14.7002 12Z" fill="#7F8A94"/>
<path fill-rule="evenodd" clip-rule="evenodd" d="M12.0002 19.2C3.16383 19.2 1.2002 12 1.2002 12C1.2002 12 3.16383 4.79999 12.0002 4.79999C20.8366 4.79999 22.8002 12 22.8002 12C22.8002 12 20.8366 19.2 12.0002 19.2ZM3.26955 12.3497C3.20816 12.2211 3.15618 12.1036 3.11279 12C3.15618 11.8963 3.20816 11.7789 3.26955 11.6503C3.53609 11.0918 3.97072 10.3418 4.63358 9.59394C5.92151 8.14089 8.14632 6.59999 12.0002 6.59999C15.8541 6.59999 18.0789 8.14089 19.3668 9.59394C20.0297 10.3418 20.4643 11.0918 20.7308 11.6503C20.7922 11.7789 20.8442 11.8963 20.8876 12C20.8442 12.1036 20.7922 12.2211 20.7308 12.3497C20.4643 12.9081 20.0297 13.6582 19.3668 14.406C18.0789 15.8591 15.8541 17.4 12.0002 17.4C8.14632 17.4 5.92151 15.8591 4.63358 14.406C3.97072 13.6582 3.53609 12.9081 3.26955 12.3497Z" fill="#7F8A94"/>
</svg>
