<svg width="24" height="24" viewBox="0 0 24 24" fill="none" xmlns="http://www.w3.org/2000/svg">
<path d="M15.5356 8.46453C15.9261 8.85506 15.9261 9.48822 15.5356 9.87874L13.4143 12.0001L15.5356 14.1214C15.9261 14.5119 15.9261 15.1451 15.5356 15.5356C15.1451 15.9261 14.5119 15.9261 14.1214 15.5356L12.0001 13.4143L9.87875 15.5356C9.48821 15.9261 8.85507 15.9261 8.46453 15.5356C8.074 15.1451 8.074 14.5119 8.46453 14.1214L10.5859 12.0001L8.46453 9.87874C8.074 9.48822 8.074 8.85506 8.46453 8.46453C8.85507 8.07399 9.48822 8.074 9.87875 8.46453L12.0001 10.5858L14.1214 8.46453C14.5119 8.074 15.1451 8.07399 15.5356 8.46453Z" fill="#7F8A94"/>
<path fill-rule="evenodd" clip-rule="evenodd" d="M12 22C17.5228 22 22 17.5228 22 12C22 6.47715 17.5228 2 12 2C6.47715 2 2 6.47715 2 12C2 17.5228 6.47715 22 12 22ZM12 20C16.4183 20 20 16.4183 20 12C20 7.58172 16.4183 4 12 4C7.58172 4 4 7.58172 4 12C4 16.4183 7.58172 20 12 20Z" fill="#7F8A94"/>
</svg>
