<svg width="16" height="16" viewBox="0 0 16 16" fill="none" xmlns="http://www.w3.org/2000/svg">
<path fill-rule="evenodd" clip-rule="evenodd" d="M14.6667 8.00004C14.6667 11.6819 11.6819 14.6667 8.00004 14.6667C4.31814 14.6667 1.33337 11.6819 1.33337 8.00004C1.33337 4.31814 4.31814 1.33337 8.00004 1.33337C11.6819 1.33337 14.6667 4.31814 14.6667 8.00004ZM8.00004 4.66671C8.36823 4.66671 8.66671 4.96518 8.66671 5.33337L8.66671 7.33337H10.6667C11.0349 7.33337 11.3334 7.63185 11.3334 8.00004C11.3334 8.36823 11.0349 8.66671 10.6667 8.66671H8.66671L8.66671 10.6667C8.66671 11.0349 8.36823 11.3334 8.00004 11.3334C7.63185 11.3334 7.33337 11.0349 7.33337 10.6667L7.33337 8.66671H5.33337C4.96518 8.66671 4.66671 8.36823 4.66671 8.00004C4.66671 7.63185 4.96518 7.33337 5.33337 7.33337H7.33337L7.33337 5.33337C7.33337 4.96518 7.63185 4.66671 8.00004 4.66671Z" fill="#007CDB"/>
</svg>
