<svg width="20" height="20" viewBox="0 0 20 20" fill="none" xmlns="http://www.w3.org/2000/svg">
<rect x="1" y="1" width="18" height="18" rx="3" stroke="#A8B3BD" stroke-width="2"/>
<path fill-rule="evenodd" clip-rule="evenodd" d="M9.41071 5.24418C9.73612 4.91877 10.2637 4.91877 10.5891 5.24418C10.9146 5.5696 10.9146 6.0972 10.5891 6.42262L7.84494 9.16682H14.1667C14.6269 9.16682 15 9.53989 15 10.0001C15 10.4603 14.6269 10.8334 14.1667 10.8334H7.84514L10.5891 13.5774C10.9146 13.9028 10.9146 14.4304 10.5891 14.7558C10.2637 15.0812 9.73612 15.0812 9.41071 14.7558L5.25367 10.5988C5.09724 10.4473 5 10.235 5 10.0001C5 9.88349 5.02395 9.77249 5.0672 9.67172C5.10778 9.57694 5.16675 9.48814 5.24411 9.41078L9.41071 5.24418Z" fill="#A8B3BD"/>
</svg>
