<svg width="18" height="18" viewBox="0 0 18 18" fill="none" xmlns="http://www.w3.org/2000/svg">
<g clip-path="url(#clip0_1578_372)">
<path fill-rule="evenodd" clip-rule="evenodd" d="M9 18C13.9706 18 18 13.9706 18 9C18 4.02944 13.9706 0 9 0C4.02944 0 0 4.02944 0 9C0 13.9706 4.02944 18 9 18ZM9 16.2C12.9764 16.2 16.2 12.9764 16.2 9C16.2 5.02355 12.9764 1.8 9 1.8C5.02355 1.8 1.8 5.02355 1.8 9C1.8 12.9764 5.02355 16.2 9 16.2ZM6.9364 5.6636C6.58492 5.31213 6.01508 5.31213 5.6636 5.6636C5.31213 6.01508 5.31213 6.58492 5.6636 6.9364L7.72721 9L5.6636 11.0636C5.31213 11.4151 5.31213 11.9849 5.6636 12.3364C6.01508 12.6879 6.58492 12.6879 6.9364 12.3364L9 10.2728L11.0636 12.3364C11.4151 12.6879 11.9849 12.6879 12.3364 12.3364C12.6879 11.9849 12.6879 11.4151 12.3364 11.0636L10.2728 9L12.3364 6.9364C12.6879 6.58492 12.6879 6.01508 12.3364 5.6636C11.9849 5.31213 11.4151 5.31213 11.0636 5.6636L9 7.72721L6.9364 5.6636Z" fill="#7F8A94"/>
</g>
<defs>
<clipPath id="clip0_1578_372">
<rect width="18" height="18" fill="white"/>
</clipPath>
</defs>
</svg>
