<svg width="16" height="16" viewBox="0 0 16 16" fill="none" preserveAspectRatio="xMinYMin meet" xmlns="http://www.w3.org/2000/svg">
<path class="loading-track" fill-rule="evenodd" clip-rule="evenodd" d="M8 0C3.58172 0 0 3.58172 0 8C0 12.4183 3.58172 16 8 16C12.4183 16 16 12.4183 16 8C16 3.58172 12.4183 0 8 0ZM8.00002 1.6C4.46539 1.6 1.60002 4.46538 1.60002 8C1.60002 11.5346 4.46539 14.4 8.00002 14.4C11.5346 14.4 14.4 11.5346 14.4 8C14.4 4.46538 11.5346 1.6 8.00002 1.6Z" fill="black" fill-opacity="0.12"/>
<path class="loading-thumb" d="M8 1.55766e-06C9.26248 1.50247e-06 10.507 0.298794 11.6319 0.871949C12.7568 1.4451 13.7301 2.27635 14.4721 3.29772C15.2142 4.31909 15.704 5.50159 15.9015 6.74852C16.099 7.99546 15.9986 9.27144 15.6084 10.4721L14.0868 9.97771C14.3989 9.01716 14.4792 7.99637 14.3212 6.99882C14.1632 6.00127 13.7714 5.05527 13.1777 4.23818C12.5841 3.42108 11.8054 2.75608 10.9055 2.29756C10.0056 1.83904 9.00999 1.6 8 1.6L8 1.55766e-06Z" fill="black"/>
</svg>
