<svg width="16" height="16" viewBox="0 0 16 16" fill="none" xmlns="http://www.w3.org/2000/svg">
<path d="M10.869 1.77705L10.2298 2.41624L12.3869 4.57328L13.0261 3.93409C13.0926 3.86753 13.1502 3.79563 13.1987 3.72007C13.4854 3.27366 13.4562 2.69915 13.096 2.33893L12.4642 1.70715C12.104 1.34693 11.5295 1.31768 11.083 1.60438C11.0075 1.65291 10.9356 1.71049 10.869 1.77705Z" fill="#00AA02"/>
<path d="M2.6891 10.0812L2.6891 11.4509C2.67268 11.7622 2.91196 12.0058 3.22354 11.9949L4.6667 12C4.81633 11.9948 4.96796 11.9223 5.07934 11.8129L11.8185 5.20162L9.68069 3.02552L2.9297 9.64846C2.82043 9.75554 2.68908 9.88425 2.6891 10.0812Z" fill="#00AA02"/>
<path d="M3 14.6667H13C13.5523 14.6667 14 14.219 14 13.6667C14 13.1144 13.5523 12.6667 13 12.6667H3C2.44771 12.6667 2 13.1144 2 13.6667C2 14.219 2.44772 14.6667 3 14.6667Z" fill="#00AA02"/>
</svg>
