<svg width="16" height="16" viewBox="0 0 16 16" fill="none" xmlns="http://www.w3.org/2000/svg">
<path fill-rule="evenodd" clip-rule="evenodd" d="M14.6668 7.99992C14.6668 11.6818 11.6821 14.6666 8.00016 14.6666C4.31826 14.6666 1.3335 11.6818 1.3335 7.99992C1.3335 4.31802 4.31826 1.33325 8.00016 1.33325C11.6821 1.33325 14.6668 4.31802 14.6668 7.99992ZM8.00016 4.66659C8.36835 4.66659 8.66683 4.96506 8.66683 5.33325L8.66683 7.33325H10.6668C11.035 7.33325 11.3335 7.63173 11.3335 7.99992C11.3335 8.36811 11.035 8.66659 10.6668 8.66659H8.66683L8.66683 10.6666C8.66683 11.0348 8.36835 11.3333 8.00016 11.3333C7.63197 11.3333 7.3335 11.0348 7.3335 10.6666L7.3335 8.66659H5.3335C4.96531 8.66659 4.66683 8.36811 4.66683 7.99992C4.66683 7.63173 4.96531 7.33325 5.3335 7.33325H7.3335L7.3335 5.33325C7.3335 4.96506 7.63197 4.66658 8.00016 4.66659Z" fill="#007CDB"/>
</svg>
