<svg width="17" height="16" viewBox="0 0 17 16" fill="none" xmlns="http://www.w3.org/2000/svg">
<path fill-rule="evenodd" clip-rule="evenodd" d="M14.83 8.15C14.83 11.8227 11.846 14.8 8.165 14.8C4.48402 14.8 1.5 11.8227 1.5 8.15C1.5 4.47731 4.48402 1.5 8.165 1.5C11.846 1.5 14.83 4.47731 14.83 8.15ZM6.63679 5.68477C6.3765 5.42508 5.9545 5.42508 5.69421 5.68477C5.43393 5.94447 5.43393 6.36553 5.69421 6.62523L7.22243 8.15L5.69421 9.67478C5.43393 9.93447 5.43393 10.3555 5.69421 10.6152C5.9545 10.8749 6.3765 10.8749 6.63679 10.6152L8.165 9.09045L9.69321 10.6152C9.9535 10.8749 10.3755 10.8749 10.6358 10.6152C10.8961 10.3555 10.8961 9.93447 10.6358 9.67478L9.10757 8.15L10.6358 6.62523C10.8961 6.36553 10.8961 5.94447 10.6358 5.68477C10.3755 5.42508 9.9535 5.42508 9.69321 5.68477L8.165 7.20955L6.63679 5.68477Z" fill="#E22A21"/>
</svg>
