<svg width="45" height="45" viewBox="0 0 45 45" fill="none" xmlns="http://www.w3.org/2000/svg">
<circle cx="22.5" cy="22.5" r="20" stroke="#007CDB" stroke-opacity="0.2" stroke-width="5"/>
<path d="M22.5 2.5C25.1264 2.5 27.7272 3.01732 30.1537 4.02241C32.5802 5.0275 34.785 6.50069 36.6421 8.35787C38.4993 10.215 39.9725 12.4198 40.9776 14.8463C41.9827 17.2728 42.5 19.8736 42.5 22.5" stroke="#007CDB" stroke-width="5" stroke-linecap="round"/>
<path d="M19 18.5C19 19.3284 18.3284 20 17.5 20C16.6716 20 16 19.3284 16 18.5C16 17.6716 16.6716 17 17.5 17C18.3284 17 19 17.6716 19 18.5Z" fill="#007CDB"/>
<path d="M29 18.5C29 19.3284 28.3284 20 27.5 20C26.6716 20 26 19.3284 26 18.5C26 17.6716 26.6716 17 27.5 17C28.3284 17 29 17.6716 29 18.5Z" fill="#007CDB"/>
<path d="M29 24C29 27.5899 26.0899 31 22.5 31C18.9101 31 16 27.5899 16 24H22.5H29Z" fill="#007CDB"/>
</svg>
