<svg width="24" height="24" viewBox="0 0 24 24" fill="none" xmlns="http://www.w3.org/2000/svg">
<path d="M3 3.00781C3 2.45553 3.44772 2.00781 4 2.00781H12C12.5523 2.00781 13 2.45553 13 3.00781C13 3.5601 12.5523 4.00781 12 4.00781H5V20.0078H12C12.5523 20.0078 13 20.4555 13 21.0078C13 21.5601 12.5523 22.0078 12 22.0078H4C3.44772 22.0078 3 21.5601 3 21.0078V3.00781Z" fill="#7F8A94"/>
<path d="M20.7071 12.7149L16.7071 16.7149C16.3166 17.1054 15.6834 17.1054 15.2929 16.7149C14.9023 16.3244 14.9023 15.6912 15.2929 15.3007L17.5858 13.0078H9.59998C9.04769 13.0078 8.59998 12.5601 8.59998 12.0078C8.59998 11.4555 9.04769 11.0078 9.59998 11.0078H17.5858L15.2929 8.71492C14.9023 8.3244 14.9023 7.69123 15.2929 7.30071C15.6834 6.91018 16.3166 6.91018 16.7071 7.30071L20.7071 11.3007C21.0976 11.6912 21.0976 12.3244 20.7071 12.7149Z" fill="#7F8A94"/>
</svg>
