<svg width="24" height="24" viewBox="0 0 24 24" fill="none" xmlns="http://www.w3.org/2000/svg">
<path fill-rule="evenodd" clip-rule="evenodd" d="M10.5 3.50781C10.5 2.67939 11.1716 2.00781 12 2.00781C12.8284 2.00781 13.5 2.67939 13.5 3.50781V4.19684C16.0878 4.8629 18 7.21205 18 10.0078V16.0078L19.7929 17.8007C19.9255 17.9333 20 18.1132 20 18.3007C20 18.6912 19.6834 19.0078 19.2929 19.0078H4.70711C4.31658 19.0078 4 18.6912 4 18.3007C4 18.1132 4.0745 17.9333 4.20711 17.8007L6 16.0078V10.0078C6 7.21205 7.91216 4.8629 10.5 4.19684V3.50781ZM16 16.8362V10.0078C16 7.79867 14.2091 6.00781 12 6.00781C9.79086 6.00781 8 7.79867 8 10.0078V16.8362L7.82843 17.0078H16.1716L16 16.8362Z" fill="#7F8A94"/>
<path d="M12 22.0078C13.1046 22.0078 14 21.1124 14 20.0078H10C10 21.1124 10.8954 22.0078 12 22.0078Z" fill="#7F8A94"/>
</svg>
