<svg width="24" height="24" viewBox="0 0 24 24" fill="none" xmlns="http://www.w3.org/2000/svg">
<path fill-rule="evenodd" clip-rule="evenodd" d="M12.0054 16.002C14.2145 16.002 16.0054 14.2111 16.0054 12.002C16.0054 9.79281 14.2145 8.00195 12.0054 8.00195C9.79623 8.00195 8.00537 9.79281 8.00537 12.002C8.00537 14.2111 9.79623 16.002 12.0054 16.002ZM14.0054 12.002C14.0054 13.1065 13.1099 14.002 12.0054 14.002C10.9008 14.002 10.0054 13.1065 10.0054 12.002C10.0054 10.8974 10.9008 10.002 12.0054 10.002C13.1099 10.002 14.0054 10.8974 14.0054 12.002Z" fill="#7F8A94"/>
<path fill-rule="evenodd" clip-rule="evenodd" d="M2.63668 14.3832L4.04833 12.8294C4.02038 12.5574 4.00606 12.2813 4.00606 12.002C4.00606 11.7227 4.02037 11.4468 4.04829 11.1749L2.63632 9.62069C2.3439 9.29882 2.29302 8.82486 2.51045 8.44826L4.1805 5.55565C4.39794 5.17904 4.83384 4.98613 5.25879 5.07844L7.31063 5.52413C7.75601 5.20074 8.23603 4.92216 8.74409 4.69501L9.38339 2.69718C9.51593 2.283 9.90095 2.00195 10.3358 2.00195H13.6759C14.1108 2.00195 14.4958 2.283 14.6283 2.69718L15.2676 4.69481C15.7758 4.92199 16.2559 5.20062 16.7014 5.52409L18.753 5.07844C19.178 4.98613 19.6139 5.17904 19.8313 5.55565L21.5014 8.44826C21.7188 8.82487 21.6679 9.29882 21.3755 9.62069L19.9638 11.1746C19.9917 11.4466 20.0061 11.7226 20.0061 12.002C20.0061 12.2814 19.9917 12.5576 19.9638 12.8297L21.3751 14.3832C21.6676 14.7051 21.7184 15.179 21.501 15.5556L19.831 18.4483C19.6135 18.8249 19.1776 19.0178 18.7527 18.9255L16.7013 18.4799C16.2559 18.8033 15.7757 19.0819 15.2676 19.3091L14.6283 21.3067C14.4958 21.7209 14.1108 22.002 13.6759 22.002H10.3358C9.90095 22.002 9.51593 21.7209 9.38339 21.3067L8.74408 19.3089C8.23607 19.0818 7.75607 18.8032 7.31071 18.4798L5.25916 18.9255C4.8342 19.0178 4.3983 18.8249 4.18086 18.4483L2.51081 15.5556C2.29338 15.179 2.34426 14.7051 2.63668 14.3832ZM13.6352 6.15584L14.4514 6.52068C14.8318 6.69074 15.1918 6.89959 15.5263 7.14247L16.2509 7.66858L18.4642 7.18781L19.4043 8.8161L17.883 10.4907L17.9743 11.379C17.9952 11.5832 18.0061 11.791 18.0061 12.002C18.0061 12.213 17.9952 12.4209 17.9742 12.6252L17.8829 13.5136L19.404 15.1878L18.4639 16.8161L16.2508 16.3354L15.5263 16.8615C15.1918 17.1043 14.8318 17.3132 14.4514 17.4832L13.6352 17.8481L12.946 20.002H11.0658L10.3765 17.8479L9.56041 17.4831C9.18011 17.313 8.8202 17.1043 8.4858 16.8614L7.76121 16.3353L5.54794 16.8161L4.60784 15.1878L6.12914 13.5133L6.03786 12.625C6.01687 12.4208 6.00606 12.2129 6.00606 12.002C6.00606 11.791 6.01686 11.5833 6.03783 11.3792L6.12907 10.4909L4.60748 8.8161L5.54758 7.18781L7.76114 7.66863L8.48574 7.14251C8.82016 6.89968 9.18008 6.69088 9.56041 6.52083L10.3765 6.15597L11.0658 4.00195H12.946L13.6352 6.15584Z" fill="#7F8A94"/>
</svg>
