<svg width="24" height="24" viewBox="0 0 24 24" fill="none" xmlns="http://www.w3.org/2000/svg">
<path d="M12.9999 4C13.5522 4 13.9999 4.44772 13.9999 5V5.63462C13.9999 6.05844 14.2711 6.42889 14.651 6.61671C14.8879 6.73384 15.116 6.86621 15.3339 7.01246C15.6856 7.24844 16.1416 7.29814 16.5086 7.08669L17.0624 6.76758C17.5406 6.4917 18.1525 6.65561 18.4286 7.13379L19.4286 8.86621C19.7045 9.34446 19.5406 9.95634 19.0624 10.2324L18.5102 10.5504C18.1429 10.7619 17.9575 11.1816 17.9864 11.6045C17.9953 11.7352 17.9999 11.8671 17.9999 12C17.9999 12.1327 17.9952 12.2643 17.9863 12.3948C17.9574 12.817 18.1422 13.2361 18.5087 13.4478L19.0624 13.7676C19.5406 14.0437 19.7045 14.6555 19.4286 15.1338L18.4286 16.8662C18.1525 17.3444 17.5407 17.5083 17.0624 17.2324L16.51 16.9134C16.1429 16.7014 15.6863 16.751 15.3341 16.987C15.1161 17.1332 14.888 17.2654 14.651 17.3825C14.271 17.5701 13.9999 17.9406 13.9999 18.3644V19C13.9999 19.5523 13.5522 20 12.9999 20H10.9999C10.4477 19.9999 9.9999 19.5522 9.9999 19V18.3633C9.9999 17.9396 9.72883 17.5691 9.34871 17.3818C9.11159 17.265 8.88333 17.133 8.66518 16.987C8.31266 16.7512 7.85583 16.7016 7.48861 16.9138L6.9374 17.2324C6.45928 17.5081 5.8483 17.3441 5.57217 16.8662L4.57217 15.1338C4.29606 14.6555 4.45923 14.0438 4.9374 13.7676L5.4905 13.4479C5.8568 13.2361 6.04167 12.8171 6.01324 12.395C6.00445 12.2644 5.9999 12.1327 5.9999 12C5.9999 11.867 6.00442 11.7351 6.01319 11.6043C6.04153 11.1815 5.8561 10.7619 5.48903 10.5503L4.9374 10.2324C4.45925 9.95623 4.29606 9.34444 4.57217 8.86621L5.57217 7.13379C5.8483 6.65589 6.45928 6.49189 6.9374 6.76758L7.49003 7.08628C7.85707 7.29795 8.31333 7.24825 8.66538 7.01247C8.88347 6.86641 9.11168 6.7343 9.34873 6.61736C9.72879 6.42989 9.9999 6.05945 9.9999 5.63567V5C9.9999 4.44776 10.4477 4.00008 10.9999 4H12.9999Z" stroke="#313235" stroke-width="1.6"/>
<circle cx="12" cy="12" r="3" stroke="#313235" stroke-width="1.6"/>
</svg>
