<svg width="18" height="18" viewBox="0 0 18 18" fill="none" xmlns="http://www.w3.org/2000/svg">
<path fill-rule="evenodd" clip-rule="evenodd" d="M12.3749 9.0001C12.3749 10.8641 10.8639 12.3751 8.9999 12.3751C7.13594 12.3751 5.6249 10.8641 5.6249 9.0001C5.6249 7.13614 7.13594 5.6251 8.9999 5.6251C10.8639 5.6251 12.3749 7.13614 12.3749 9.0001ZM11.0249 9.0001C11.0249 10.1185 10.1183 11.0251 8.9999 11.0251C7.88153 11.0251 6.9749 10.1185 6.9749 9.0001C6.9749 7.88172 7.88153 6.9751 8.9999 6.9751C10.1183 6.9751 11.0249 7.88172 11.0249 9.0001Z" fill="#525960"/>
<path fill-rule="evenodd" clip-rule="evenodd" d="M8.9999 14.4001C2.37263 14.4001 0.899902 9.0001 0.899902 9.0001C0.899902 9.0001 2.37263 3.6001 8.9999 3.6001C15.6272 3.6001 17.0999 9.0001 17.0999 9.0001C17.0999 9.0001 15.6272 14.4001 8.9999 14.4001ZM2.45192 9.26236C2.40588 9.1659 2.36689 9.07783 2.33435 9.0001C2.36689 8.92237 2.40588 8.8343 2.45192 8.73783C2.65183 8.31898 2.97779 7.75645 3.47494 7.19556C4.44089 6.10578 6.10949 4.9501 8.9999 4.9501C11.8903 4.9501 13.5589 6.10578 14.5249 7.19556C15.022 7.75645 15.348 8.31898 15.5479 8.73783C15.5939 8.8343 15.6329 8.92237 15.6655 9.0001C15.6329 9.07783 15.5939 9.1659 15.5479 9.26236C15.348 9.68122 15.022 10.2437 14.5249 10.8046C13.5589 11.8944 11.8903 13.0501 8.9999 13.0501C6.10949 13.0501 4.44089 11.8944 3.47494 10.8046C2.97779 10.2437 2.65183 9.68122 2.45192 9.26236Z" fill="#525960"/>
</svg>
