<svg width="20" height="20" viewBox="0 0 20 20" fill="none" xmlns="http://www.w3.org/2000/svg">
<rect width="20" height="20" rx="10" fill="#A8B3BD"/>
<path d="M9.97444 6.11111C7.83765 6.11111 6.10543 7.85223 6.10543 10C6.10543 12.1478 7.83765 13.8889 9.97444 13.8889C11.947 13.8889 13.5756 12.4046 13.8135 10.4868C13.8513 10.1823 14.1274 9.9663 14.4304 10.0043C14.7333 10.0422 14.9482 10.3198 14.9104 10.6243C14.6044 13.0913 12.5116 15 9.97444 15C7.22713 15 5 12.7614 5 10C5 7.23858 7.22713 5 9.97444 5C11.5581 5 12.9688 5.7443 13.8791 6.90185L13.8956 6.63533C13.9146 6.3291 14.177 6.09635 14.4817 6.11547C14.7864 6.13458 15.0179 6.39832 14.9989 6.70455L14.8956 8.36798C14.8766 8.67421 14.6142 8.90696 14.3095 8.88785L12.6546 8.78402C12.3499 8.7649 12.1184 8.50116 12.1374 8.19493C12.1564 7.8887 12.4188 7.65595 12.7235 7.67507L13.0934 7.69827C12.3882 6.73472 11.2537 6.11111 9.97444 6.11111Z" fill="white"/>
</svg>
