<svg width="16" height="16" viewBox="0 0 16 16" fill="none" xmlns="http://www.w3.org/2000/svg">
<path fill-rule="evenodd" clip-rule="evenodd" d="M6.68807 12.6666H4.68807C4.50397 12.6666 4.35474 12.5173 4.35474 12.3333V3.66659C4.35474 3.48249 4.50398 3.33325 4.68807 3.33325H6.68807C6.87216 3.33325 7.0214 3.48249 7.0214 3.66659L7.0214 12.3333C7.0214 12.5173 6.87216 12.6666 6.68807 12.6666ZM11.3221 12.6666H9.32215C9.13805 12.6666 8.98881 12.5173 8.98881 12.3333V3.66659C8.98881 3.48249 9.13805 3.33325 9.32215 3.33325H11.3221C11.5062 3.33325 11.6555 3.48249 11.6555 3.66659V12.3333C11.6555 12.5173 11.5062 12.6666 11.3221 12.6666Z" fill="#7F8A94"/>
</svg>
