<svg width="24" height="25" viewBox="0 0 24 25" fill="none" xmlns="http://www.w3.org/2000/svg">
<path fill-rule="evenodd" clip-rule="evenodd" d="M12 22.5C17.5228 22.5 22 18.0228 22 12.5C22 6.97715 17.5228 2.5 12 2.5C6.47715 2.5 2 6.97715 2 12.5C2 18.0228 6.47715 22.5 12 22.5ZM16.6839 11.2295C17.0869 10.8518 17.1073 10.219 16.7295 9.81606C16.3518 9.41315 15.719 9.39273 15.3161 9.77046L10.6667 14.1293L8.68394 12.2705C8.28103 11.8927 7.64819 11.9131 7.27046 12.3161C6.89273 12.719 6.91315 13.3518 7.31606 13.7295L9.98273 16.2295C10.3674 16.5902 10.966 16.5902 11.3506 16.2295L16.6839 11.2295Z" fill="#7F8A94"/>
<path fill-rule="evenodd" clip-rule="evenodd" d="M9.29878 15.5883L7.3169 13.7303L7.31606 13.7295C6.91315 13.3518 6.89273 12.719 7.27046 12.3161C7.64819 11.9131 8.28103 11.8927 8.68394 12.2705L8.68481 12.2713L10.6667 14.1293L15.3161 9.77046C15.719 9.39273 16.3518 9.41315 16.7295 9.81606C17.1073 10.219 17.0869 10.8518 16.6839 11.2295L12.0345 15.5883L12.0332 15.5896L11.3506 16.2295C10.966 16.5902 10.3674 16.5902 9.98273 16.2295L9.29878 15.5883ZM22 12.5C22 18.0228 17.5228 22.5 12 22.5C6.47715 22.5 2 18.0228 2 12.5C2 6.97715 6.47715 2.5 12 2.5C17.5228 2.5 22 6.97715 22 12.5Z" fill="#7F8A94"/>
</svg>
