<svg width="20" height="20" viewBox="0 0 20 20" fill="none" xmlns="http://www.w3.org/2000/svg">
<path d="M10.8332 13.3333C10.8332 13.7936 10.4601 14.1667 9.99984 14.1667C9.5396 14.1667 9.1665 13.7936 9.1665 13.3333L9.1665 9.16667C9.1665 8.70643 9.5396 8.33334 9.99984 8.33334C10.4601 8.33334 10.8332 8.70644 10.8332 9.16667L10.8332 13.3333Z" fill="#A8B3BD"/>
<path d="M9.99984 7.50001C10.4601 7.50001 10.8332 7.12691 10.8332 6.66667C10.8332 6.20643 10.4601 5.83334 9.99984 5.83334C9.5396 5.83334 9.1665 6.20643 9.1665 6.66667C9.1665 7.12691 9.5396 7.50001 9.99984 7.50001Z" fill="#A8B3BD"/>
<path fill-rule="evenodd" clip-rule="evenodd" d="M9.99984 18.3333C14.6022 18.3333 18.3332 14.6024 18.3332 10C18.3332 5.39763 14.6022 1.66667 9.99984 1.66667C5.39746 1.66667 1.6665 5.39763 1.6665 10C1.6665 14.6024 5.39746 18.3333 9.99984 18.3333ZM9.99984 16.6667C13.6817 16.6667 16.6665 13.6819 16.6665 10C16.6665 6.31811 13.6817 3.33334 9.99984 3.33334C6.31794 3.33334 3.33317 6.31811 3.33317 10C3.33317 13.6819 6.31794 16.6667 9.99984 16.6667Z" fill="#A8B3BD"/>
</svg>
