<svg width="16" height="12" viewBox="0 0 16 12" fill="none" xmlns="http://www.w3.org/2000/svg">
<path d="M15.1998 1.2C15.1998 1.86274 14.6392 2.4 13.9476 2.4H6.43459C5.74303 2.4 5.18241 1.86274 5.18241 1.2C5.18241 0.537258 5.74303 0 6.43459 0H13.9476C14.6392 0 15.1998 0.537258 15.1998 1.2Z" fill="#181A1B"/>
<path d="M13.9476 7.2C14.6392 7.2 15.1998 6.66274 15.1998 6C15.1998 5.33726 14.6392 4.8 13.9476 4.8H6.43459C5.74303 4.8 5.18241 5.33726 5.18241 6C5.18241 6.66274 5.74303 7.2 6.43459 7.2H13.9476Z" fill="#181A1B"/>
<path d="M15.1998 10.8C15.1998 11.4627 14.6392 12 13.9476 12H6.43459C5.74303 12 5.18241 11.4627 5.18241 10.8C5.18241 10.1373 5.74303 9.6 6.43459 9.6H13.9476C14.6392 9.6 15.1998 10.1373 15.1998 10.8Z" fill="#181A1B"/>
<path d="M2.05198 2.4C2.74354 2.4 3.30415 1.86274 3.30415 1.2C3.30415 0.537258 2.74354 0 2.05198 0C1.36042 0 0.799805 0.537258 0.799805 1.2C0.799805 1.86274 1.36042 2.4 2.05198 2.4Z" fill="#181A1B"/>
<path d="M3.30415 6C3.30415 6.66274 2.74354 7.2 2.05198 7.2C1.36042 7.2 0.799805 6.66274 0.799805 6C0.799805 5.33726 1.36042 4.8 2.05198 4.8C2.74354 4.8 3.30415 5.33726 3.30415 6Z" fill="#181A1B"/>
<path d="M2.05198 12C2.74354 12 3.30415 11.4627 3.30415 10.8C3.30415 10.1373 2.74354 9.6 2.05198 9.6C1.36042 9.6 0.799805 10.1373 0.799805 10.8C0.799805 11.4627 1.36042 12 2.05198 12Z" fill="#181A1B"/>
</svg>
