<svg width="24" height="24" viewBox="0 0 24 24" fill="none" xmlns="http://www.w3.org/2000/svg">
<rect width="24" height="24" rx="12" transform="matrix(-1 0 0 1 24 0)" fill="#16439C"/>
<path fill-rule="evenodd" clip-rule="evenodd" d="M7.99984 14.1068V16C7.99984 16.3681 8.29831 16.6666 8.6665 16.6666H17.9998C18.368 16.6666 18.6665 16.3681 18.6665 16V7.33329C18.6665 6.9651 18.368 6.66663 17.9998 6.66663H8.6665C8.29831 6.66663 7.99984 6.9651 7.99984 7.33329V8.55985L7.12486 7.88046C6.12376 7.10313 4.6665 7.81658 4.6665 9.08404V13.5826C4.6665 14.85 6.12375 15.5635 7.12486 14.7861L7.99984 14.1068ZM17.3332 7.99996H9.33317V15.3333H17.3332V7.99996ZM7.99984 12.4187L6.30713 13.733C6.18199 13.8302 5.99984 13.741 5.99984 13.5826V9.08404C5.99984 8.92561 6.18199 8.83643 6.30713 8.93359L7.99984 10.2479V12.4187Z" fill="white"/>
</svg>
