<svg width="24" height="25" viewBox="0 0 24 25" fill="none" xmlns="http://www.w3.org/2000/svg">
<path fill-rule="evenodd" clip-rule="evenodd" d="M10.5156 19.5H7.50223C7.22486 19.5 7 19.2761 7 19V6C7 5.72386 7.22486 5.5 7.50223 5.5H10.5156C10.793 5.5 11.0179 5.72386 11.0179 6L11.0179 19C11.0179 19.2761 10.793 19.5 10.5156 19.5ZM17.4978 19.5H14.4844C14.207 19.5 13.9821 19.2761 13.9821 19L13.9821 6C13.9821 5.72386 14.207 5.5 14.4844 5.5H17.4978C17.7751 5.5 18 5.72386 18 6V19C18 19.2761 17.7751 19.5 17.4978 19.5Z" fill="white"/>
</svg>
