<svg width="25" height="24" viewBox="0 0 25 24" fill="none" xmlns="http://www.w3.org/2000/svg">
<path d="M8.10174 2.35984C8.45531 2.78412 8.39798 3.41468 7.97371 3.76825L4.97371 6.26825C4.54943 6.62181 3.91886 6.56449 3.5653 6.14021C3.21174 5.71593 3.26906 5.08537 3.69334 4.7318L6.69334 2.2318C7.11761 1.87824 7.74818 1.93556 8.10174 2.35984Z" fill="#007CDB"/>
<path d="M13.5337 9.00004C13.5337 8.44776 13.086 8.00004 12.5337 8.00003C11.9814 8.00002 11.5337 8.44773 11.5337 9.00002L11.5336 14.0188L15.0862 15.7966C15.58 16.0438 16.1808 15.8438 16.428 15.3499C16.6751 14.856 16.4751 14.2553 15.9812 14.0081L13.5336 12.7832L13.5337 9.00004Z" fill="#007CDB"/>
<path fill-rule="evenodd" clip-rule="evenodd" d="M12.3335 4C7.36293 4 3.3335 8.02944 3.3335 13C3.3335 17.9706 7.36293 22 12.3335 22C17.3041 22 21.3335 17.9706 21.3335 13C21.3335 8.02944 17.3041 4 12.3335 4ZM5.3335 13C5.3335 9.13401 8.4675 6 12.3335 6C16.1995 6 19.3335 9.13401 19.3335 13C19.3335 16.866 16.1995 20 12.3335 20C8.4675 20 5.3335 16.866 5.3335 13Z" fill="#007CDB"/>
<path d="M16.6933 3.76825C16.269 3.41468 16.2117 2.78412 16.5652 2.35984C16.9188 1.93556 17.5494 1.87824 17.9737 2.2318L20.9737 4.7318C21.3979 5.08537 21.4553 5.71593 21.1017 6.14021C20.7481 6.56449 20.1176 6.62181 19.6933 6.26825L16.6933 3.76825Z" fill="#007CDB"/>
</svg>
