<svg width="28" height="66" viewBox="0 0 28 66" fill="none" xmlns="http://www.w3.org/2000/svg">
<rect x="3" y="46.9607" width="1.5" height="18" rx="0.75" fill="black"/>
<rect x="23.5" y="46.9607" width="1.5" height="18" rx="0.75" fill="black"/>
<rect y="63.9607" width="28" height="1.5" rx="0.75" fill="black"/>
<path d="M15.3924 1.08972L22.4466 4.59618C23.5514 5.14535 24.25 6.27272 24.25 7.50647V47.2159C24.25 48.4497 23.5514 49.577 22.4466 50.1262L15.3924 53.6326C14.4764 54.088 13.3994 54.0854 12.4855 53.6258L5.5397 50.1324C4.44242 49.5805 3.75 48.4571 3.75 47.2289V7.49346C3.75 6.26522 4.44242 5.1419 5.53969 4.59001L12.4855 1.09656C13.3994 0.636901 14.4764 0.634366 15.3924 1.08972Z" fill="#D9D9D9" stroke="black" stroke-width="1.5"/>
</svg>
