<svg width="20" height="24" viewBox="0 0 20 24" fill="none" xmlns="http://www.w3.org/2000/svg">
<path d="M16.5809 4.64517C15.9684 4.64517 15.3696 4.82679 14.8604 5.16707C14.3511 5.50735 13.9542 5.991 13.7198 6.55686C13.4854 7.12273 13.4241 7.74539 13.5436 8.3461C13.6631 8.94682 13.958 9.49861 14.3911 9.93171C14.8242 10.3648 15.376 10.6597 15.9767 10.7792C16.5774 10.8987 17.2001 10.8374 17.7659 10.603C18.3318 10.3686 18.8155 9.97169 19.1557 9.46243C19.496 8.95317 19.6776 8.35444 19.6776 7.74195C19.6776 6.92063 19.3514 6.13296 18.7706 5.5522C18.1898 4.97144 17.4022 4.64517 16.5809 4.64517ZM16.5809 8.51615C16.4277 8.51615 16.278 8.47074 16.1507 8.38567C16.0234 8.3006 15.9242 8.17969 15.8656 8.03822C15.807 7.89676 15.7917 7.74109 15.8215 7.59091C15.8514 7.44073 15.9251 7.30279 16.0334 7.19451C16.1417 7.08624 16.2796 7.0125 16.4298 6.98263C16.58 6.95276 16.7357 6.96809 16.8771 7.02669C17.0186 7.08528 17.1395 7.18451 17.2246 7.31183C17.3096 7.43915 17.355 7.58883 17.355 7.74195C17.355 7.94728 17.2735 8.1442 17.1283 8.28939C16.9831 8.43458 16.7862 8.51615 16.5809 8.51615ZM11.5486 5.03227C11.5486 3.69763 11.0184 2.41765 10.0747 1.47392C9.13093 0.530184 7.85096 0 6.51632 0C5.18168 0 3.9017 0.530184 2.95797 1.47392C2.01423 2.41765 1.48405 3.69763 1.48405 5.03227V14.1958C0.819997 15.1214 0.424046 16.2121 0.339742 17.3481C0.255438 18.484 0.486045 19.6213 1.0062 20.6347C1.52636 21.6481 2.31592 22.4984 3.28805 23.0921C4.26018 23.6859 5.37722 24 6.51632 24C7.65542 24 8.77246 23.6859 9.74459 23.0921C10.7167 22.4984 11.5063 21.6481 12.0264 20.6347C12.5466 19.6213 12.7772 18.484 12.6929 17.3481C12.6086 16.2121 12.2126 15.1214 11.5486 14.1958V5.03227ZM6.51632 21.6775C5.78288 21.6775 5.06454 21.4691 4.44493 21.0767C3.82532 20.6843 3.32996 20.1239 3.01652 19.4608C2.70308 18.7977 2.58446 18.0592 2.67449 17.3313C2.76451 16.6035 3.05947 15.9161 3.52502 15.3494C3.70661 15.1387 3.80654 14.8698 3.80663 14.5916V5.03227C3.80663 4.31362 4.09212 3.6244 4.60028 3.11623C5.10845 2.60807 5.79766 2.32259 6.51632 2.32259C7.23497 2.32259 7.92419 2.60807 8.43235 3.11623C8.94052 3.6244 9.226 4.31362 9.226 5.03227V14.5907C9.22574 14.8621 9.32059 15.1251 9.49407 15.3339C9.96359 15.8995 10.2624 16.5871 10.3555 17.3162C10.4486 18.0454 10.3321 18.786 10.0198 19.4514C9.70745 20.1168 9.21209 20.6795 8.59166 21.0737C7.97124 21.4679 7.25139 21.6773 6.51632 21.6775ZM8.8389 17.8065C8.83898 18.2142 8.73173 18.6148 8.52793 18.9679C8.32413 19.321 8.03096 19.6143 7.6779 19.8182C7.32483 20.0221 6.92431 20.1295 6.5166 20.1295C6.10888 20.1296 5.70833 20.0223 5.35522 19.8185C5.0021 19.6146 4.70887 19.3214 4.50498 18.9684C4.3011 18.6153 4.19375 18.2148 4.19373 17.807C4.19371 17.3993 4.30102 16.9988 4.50487 16.6457C4.70872 16.2926 5.00193 15.9994 5.35502 15.7955V8.51615C5.35502 8.20815 5.47737 7.91277 5.69516 7.69499C5.91294 7.4772 6.20832 7.35485 6.51632 7.35485C6.82431 7.35485 7.11969 7.4772 7.33747 7.69499C7.55526 7.91277 7.67761 8.20815 7.67761 8.51615V15.7955C8.03062 15.9993 8.32378 16.2925 8.52762 16.6454C8.73147 16.9984 8.83882 17.3989 8.8389 17.8065Z" fill="#525960"/>
</svg>
