<svg width="18" height="24" viewBox="0 0 18 24" fill="none" xmlns="http://www.w3.org/2000/svg">
<path d="M17.3995 8.40055C17.3997 6.79045 16.9371 5.21423 16.0668 3.85959C15.1965 2.50495 13.9552 1.42898 12.4908 0.75981C11.0263 0.0906397 9.4004 -0.143532 7.80663 0.0851815C6.21286 0.313895 4.7184 0.995857 3.50122 2.04985C2.28405 3.10385 1.39545 4.48547 0.941245 6.03017C0.48704 7.57488 0.48637 9.21759 0.939314 10.7627C1.39226 12.3077 2.27973 13.6901 3.49604 14.7451C4.71236 15.8001 6.20626 16.4832 7.79984 16.7133V18.4002H4.99994C4.68169 18.4002 4.37648 18.5266 4.15144 18.7517C3.92641 18.9767 3.79998 19.2819 3.79998 19.6002C3.79998 19.9184 3.92641 20.2236 4.15144 20.4487C4.37648 20.6737 4.68169 20.8001 4.99994 20.8001H7.79984V22.8C7.79984 23.1183 7.92627 23.4235 8.1513 23.6485C8.37634 23.8736 8.68155 24 8.9998 24C9.31805 24 9.62326 23.8736 9.8483 23.6485C10.0733 23.4235 10.1998 23.1183 10.1998 22.8V20.8001H12.9997C13.3179 20.8001 13.6231 20.6737 13.8482 20.4487C14.0732 20.2236 14.1996 19.9184 14.1996 19.6002C14.1996 19.2819 14.0732 18.9767 13.8482 18.7517C13.6231 18.5266 13.3179 18.4002 12.9997 18.4002H10.1998V16.7133C12.1977 16.4224 14.0244 15.4226 15.3462 13.8964C16.668 12.3702 17.3968 10.4196 17.3995 8.40055ZM3.00001 8.40055C3.00001 7.21391 3.35189 6.05391 4.01116 5.06725C4.67042 4.08059 5.60746 3.31158 6.70378 2.85747C7.8001 2.40336 9.00646 2.28454 10.1703 2.51605C11.3341 2.74755 12.4032 3.31898 13.2423 4.15806C14.0814 4.99715 14.6528 6.06621 14.8843 7.23005C15.1158 8.3939 14.997 9.60025 14.5429 10.6966C14.0888 11.7929 13.3198 12.7299 12.3331 13.3892C11.3464 14.0485 10.1864 14.4003 8.9998 14.4003C7.40913 14.3985 5.88413 13.7658 4.75936 12.641C3.63458 11.5162 3.00187 9.99123 3.00001 8.40055Z" fill="#525960"/>
</svg>
