<svg width="90" height="100" viewBox="0 0 90 100" fill="none" xmlns="http://www.w3.org/2000/svg">
<path fill-rule="evenodd" clip-rule="evenodd" d="M90 13.3956V0C89.8953 0 89.7906 0.000183105 89.6859 0.000545502C76.9146 0.0447807 64.299 2.78559 52.6776 8.04083C41.0562 13.2961 30.695 20.9454 22.2827 30.4804C13.8703 40.0155 7.59945 51.2179 3.88679 63.3432C0.829377 73.3286 -0.435472 83.7514 0.13193 94.1379C0.333712 97.8316 3.74651 100.42 7.44338 99.9435C11.1403 99.4671 13.7165 96.1053 13.564 92.4093C13.2135 83.9136 14.3034 75.4033 16.8038 67.2374C19.9595 56.9309 25.2898 47.4088 32.4403 39.304C39.5908 31.1992 48.3978 24.6973 58.276 20.2303C68.1542 15.7634 78.8774 13.4337 89.733 13.3961C89.822 13.3958 89.911 13.3956 90 13.3956Z" fill="#007CDB"/>
</svg>
