<svg width="19" height="18" viewBox="0 0 19 18" fill="none" xmlns="http://www.w3.org/2000/svg">
<path fill-rule="evenodd" clip-rule="evenodd" d="M9.5 16.5C13.6421 16.5 17 13.1421 17 9C17 4.85786 13.6421 1.5 9.5 1.5C5.35786 1.5 2 4.85786 2 9C2 13.1421 5.35786 16.5 9.5 16.5ZM10.4 5.85C10.4 6.34706 9.99702 6.75 9.49996 6.75C9.00291 6.75 8.59996 6.34706 8.59996 5.85C8.59996 5.35294 9.00291 4.95 9.49996 4.95C9.99702 4.95 10.4 5.35294 10.4 5.85ZM10.4 12.6C10.4 13.0971 9.99702 13.5 9.49996 13.5C9.00291 13.5 8.59996 13.0971 8.59996 12.6V8.4C8.59996 7.90294 9.00291 7.5 9.49996 7.5C9.99702 7.5 10.4 7.90294 10.4 8.4V12.6Z" fill="#007CDB"/>
</svg>
