<svg width="190" height="190" viewBox="0 0 190 190" fill="none" xmlns="http://www.w3.org/2000/svg">
<g clip-path="url(#clip0_77_2)">
<path d="M177.629 104.371C181.33 104.822 184.724 102.21 184.9 98.5152C185.394 88.1251 184.056 77.7112 180.928 67.7474C177.131 55.6481 170.781 44.4893 162.302 35.0128C153.823 25.5362 143.408 17.9589 131.75 12.7843C120.092 7.60966 107.457 4.95631 94.6859 5.00054C81.9146 5.04478 69.299 7.78559 57.6776 13.0408C46.0562 18.2961 35.695 25.9454 27.2827 35.4805C18.8703 45.0155 12.5994 56.2179 8.88679 68.3432C5.82938 78.3286 4.56453 88.7514 5.13193 99.1379C5.33371 102.832 8.74651 105.42 12.4434 104.943C16.1403 104.467 18.7165 101.105 18.564 97.4093C18.2135 88.9136 19.3034 80.4033 21.8038 72.2374C24.9595 61.9309 30.2898 52.4088 37.4403 44.304C44.5908 36.1992 53.3978 29.6973 63.276 25.2303C73.1542 20.7634 83.8774 18.4337 94.733 18.3961C105.589 18.3585 116.328 20.6138 126.237 25.0123C136.147 29.4107 144.999 35.8514 152.207 43.9065C159.414 51.9616 164.811 61.4465 168.039 71.7309C170.597 79.8793 171.747 88.3818 171.456 96.8797C171.329 100.577 173.929 103.921 177.629 104.371Z" fill="#E7EBEE"/>
<mask id="mask0_77_2" style="mask-type:alpha" maskUnits="userSpaceOnUse" x="0" y="0" width="190" height="190">
<path d="M177.629 104.371C181.33 104.822 184.724 102.21 184.9 98.5152C185.394 88.1251 184.056 77.7112 180.928 67.7474C177.131 55.6481 170.781 44.4893 162.302 35.0128C153.823 25.5362 143.408 17.9589 131.75 12.7843C120.092 7.60966 107.457 4.95631 94.6859 5.00054C81.9146 5.04478 69.299 7.78559 57.6776 13.0408C46.0562 18.2961 35.695 25.9454 27.2827 35.4805C18.8703 45.0155 12.5994 56.2179 8.88679 68.3432C5.82938 78.3286 4.56453 88.7514 5.13193 99.1379C5.33371 102.832 8.74651 105.42 12.4434 104.943C16.1403 104.467 18.7165 101.105 18.564 97.4093C18.2135 88.9136 19.3034 80.4033 21.8038 72.2374C24.9595 61.9309 30.2898 52.4088 37.4403 44.304C44.5908 36.1992 53.3978 29.6973 63.276 25.2303C73.1542 20.7634 83.8774 18.4337 94.733 18.3961C105.589 18.3585 116.328 20.6138 126.237 25.0123C136.147 29.4107 144.999 35.8514 152.207 43.9065C159.414 51.9616 164.811 61.4465 168.039 71.7309C170.597 79.8793 171.747 88.3818 171.456 96.8797C171.329 100.577 173.929 103.92 177.629 104.371Z" fill="#E7EBEE"/>
</mask>
<g mask="url(#mask0_77_2)">
<path fill-rule="evenodd" clip-rule="evenodd" d="M95 18.3956V5C94.8953 5 94.7906 5.00018 94.6859 5.00055C81.9146 5.04478 69.299 7.78559 57.6776 13.0408C46.0562 18.2961 35.695 25.9454 27.2827 35.4804C18.8703 45.0155 12.5995 56.2179 8.88679 68.3432C5.82938 78.3286 4.56453 88.7514 5.13193 99.1379C5.33371 102.832 8.74651 105.42 12.4434 104.943C16.1403 104.467 18.7165 101.105 18.564 97.4093C18.2135 88.9136 19.3034 80.4033 21.8038 72.2374C24.9595 61.9309 30.2898 52.4088 37.4403 44.304C44.5908 36.1992 53.3978 29.6973 63.276 25.2303C73.1542 20.7634 83.8774 18.4337 94.733 18.3961C94.822 18.3958 94.911 18.3956 95 18.3956Z" fill="#007CDB"/>
<path fill-rule="evenodd" clip-rule="evenodd" d="M95 5V18.3956C105.765 18.3956 116.409 20.6499 126.237 25.0123C136.147 29.4107 144.999 35.8514 152.207 43.9065C159.414 51.9616 164.811 61.4465 168.039 71.7309C170.597 79.8793 171.747 88.3818 171.456 96.8797C171.33 100.577 173.929 103.92 177.63 104.371C181.33 104.822 184.724 102.21 184.9 98.5152C185.394 88.1251 184.056 77.7112 180.928 67.7474C177.131 55.648 170.781 44.4893 162.302 35.0128C153.823 25.5362 143.408 17.9589 131.75 12.7843C120.187 7.65209 107.664 4.99999 95 5Z" fill="#007CDB"/>
</g>
<circle cx="178" cy="93" r="9.5" fill="white" stroke="#007CDB" stroke-width="5"/>
</g>
<defs>
<clipPath id="clip0_77_2">
<rect width="190" height="190" fill="white"/>
</clipPath>
</defs>
</svg>
