<svg width="52" height="22" viewBox="0 0 52 22" fill="none" xmlns="http://www.w3.org/2000/svg">
<rect x="0.5" y="0.5" width="51" height="21" rx="3.5" fill="white"/>
<rect x="0.5" y="0.5" width="51" height="21" rx="3.5" stroke="#7F8A94"/>
<path d="M11.9727 15H10.6719V7.80469H10.625L8.59766 9.12891V7.89844L10.707 6.51562H11.9727V15ZM14.2344 17.4258H13.2383L13.8594 14.1914H15.1719L14.2344 17.4258ZM16.8594 14.0625L19.8008 11.0977C20.1562 10.7227 20.4277 10.4219 20.6152 10.1953C20.8027 9.96875 20.9453 9.74805 21.043 9.5332C21.1445 9.31445 21.1953 9.08594 21.1953 8.84766C21.1953 8.57422 21.127 8.33398 20.9902 8.12695C20.8535 7.91992 20.666 7.75977 20.4277 7.64648C20.1895 7.5332 19.9219 7.47656 19.625 7.47656C19.3164 7.47656 19.0449 7.53906 18.8105 7.66406C18.5762 7.78906 18.3945 7.96484 18.2656 8.19141C18.1406 8.41797 18.0781 8.67969 18.0781 8.97656H16.8594C16.8555 8.46875 16.9727 8.01953 17.2109 7.62891C17.4492 7.23828 17.7812 6.93555 18.207 6.7207C18.6328 6.50586 19.1133 6.39844 19.6484 6.39844C20.1875 6.39844 20.666 6.50391 21.084 6.71484C21.5059 6.92188 21.834 7.20898 22.0684 7.57617C22.3027 7.94336 22.4219 8.35547 22.4258 8.8125C22.4219 9.13672 22.3594 9.44922 22.2383 9.75C22.1172 10.0469 21.9102 10.3789 21.6172 10.7461C21.3242 11.1094 20.9102 11.5547 20.375 12.082L18.6523 13.8281V13.8984H22.5664V15H16.8594V14.0625ZM27.2188 15H25.918V7.80469H25.8711L23.8438 9.12891V7.89844L25.9531 6.51562H27.2188V15ZM32.4688 15.1172C31.8906 15.1172 31.3594 14.9902 30.875 14.7363C30.3945 14.4785 30 14.0469 29.6914 13.4414C29.3867 12.8359 29.2344 12.0352 29.2344 11.0391C29.2344 10.0664 29.3672 9.23242 29.6328 8.53711C29.9023 7.83789 30.2852 7.30664 30.7812 6.94336C31.2812 6.58008 31.8711 6.39844 32.5508 6.39844C33.0586 6.39844 33.5156 6.49805 33.9219 6.69727C34.332 6.89258 34.6641 7.16602 34.918 7.51758C35.1719 7.86914 35.332 8.26953 35.3984 8.71875H34.1211C34.0352 8.35938 33.8555 8.07031 33.582 7.85156C33.3086 7.63281 32.9648 7.52344 32.5508 7.52344C32.1172 7.52344 31.7441 7.64648 31.4316 7.89258C31.123 8.13477 30.8867 8.48633 30.7227 8.94727C30.5586 9.4043 30.4766 9.94922 30.4766 10.582H30.5703C30.8008 10.2227 31.1055 9.94141 31.4844 9.73828C31.8672 9.53516 32.2891 9.43359 32.75 9.43359C33.25 9.43359 33.709 9.55469 34.127 9.79688C34.5449 10.0352 34.875 10.3672 35.1172 10.793C35.3594 11.2148 35.4805 11.6914 35.4805 12.2227C35.4805 12.7656 35.3555 13.2578 35.1055 13.6992C34.8555 14.1367 34.502 14.4824 34.0449 14.7363C33.5879 14.9902 33.0625 15.1172 32.4688 15.1172ZM32.4336 14.0391C32.7695 14.0391 33.0742 13.959 33.3477 13.7988C33.6211 13.6387 33.8359 13.4219 33.9922 13.1484C34.1484 12.875 34.2266 12.5742 34.2266 12.2461C34.2266 11.9258 34.1504 11.6309 33.998 11.3613C33.8457 11.0918 33.6348 10.8789 33.3652 10.7227C33.0996 10.5664 32.8008 10.4883 32.4688 10.4883C32.1289 10.4883 31.8184 10.5703 31.5371 10.7344C31.2598 10.8945 31.0391 11.1113 30.875 11.3848C30.7148 11.6543 30.6328 11.9453 30.6289 12.2578C30.6328 12.5703 30.7129 12.8633 30.8691 13.1367C31.0254 13.4102 31.2402 13.6289 31.5137 13.793C31.791 13.957 32.0977 14.0391 32.4336 14.0391ZM39.5352 17.5195C39.0039 17.5195 38.5352 17.4434 38.1289 17.291C37.7266 17.1387 37.4062 16.9199 37.168 16.6348C36.9336 16.3496 36.7969 16.0117 36.7578 15.6211H38.0352C38.0938 15.9141 38.2539 16.1348 38.5156 16.2832C38.7773 16.4355 39.1211 16.5117 39.5469 16.5117C40.0625 16.5117 40.4629 16.3965 40.748 16.166C41.0332 15.9355 41.1758 15.5781 41.1758 15.0938V13.8398H41.0938C40.9336 14.1328 40.7129 14.3848 40.4316 14.5957C40.1543 14.8027 39.7578 14.9062 39.2422 14.9062C38.7383 14.9062 38.2832 14.7832 37.877 14.5371C37.4746 14.291 37.1582 13.9297 36.9277 13.4531C36.6973 12.9766 36.582 12.4102 36.582 11.7539C36.582 11.0938 36.6953 10.5234 36.9219 10.043C37.1523 9.55859 37.4688 9.18945 37.8711 8.93555C38.2773 8.68164 38.7383 8.55469 39.2539 8.55469C39.6172 8.55469 39.9199 8.61523 40.1621 8.73633C40.4082 8.85352 40.5977 8.99023 40.7305 9.14648C40.8633 9.29883 40.9883 9.47266 41.1055 9.66797H41.1875V8.63672H42.4062V15.1406C42.4062 15.668 42.2832 16.1094 42.0371 16.4648C41.791 16.8203 41.4531 17.084 41.0234 17.2559C40.5938 17.4316 40.0977 17.5195 39.5352 17.5195ZM39.5234 13.875C40.0547 13.875 40.4648 13.6914 40.7539 13.3242C41.043 12.9531 41.1875 12.4375 41.1875 11.7773C41.1875 11.3438 41.123 10.9648 40.9941 10.6406C40.8652 10.3164 40.6758 10.0664 40.4258 9.89062C40.1758 9.71094 39.875 9.62109 39.5234 9.62109C39.1641 9.62109 38.8594 9.71484 38.6094 9.90234C38.3594 10.0859 38.1719 10.3418 38.0469 10.6699C37.9219 10.9941 37.8594 11.3633 37.8594 11.7773C37.8594 12.1953 37.9219 12.5625 38.0469 12.8789C38.1758 13.1914 38.3652 13.4355 38.6152 13.6113C38.8652 13.7871 39.168 13.875 39.5234 13.875Z" fill="#66707A"/>
</svg>
