<svg width="45" height="45" viewBox="0 0 45 45" fill="none" xmlns="http://www.w3.org/2000/svg">
<g clip-path="url(#clip0_2451_10145)">
<circle cx="22.5" cy="22.5" r="20" stroke="#A8B3BD" stroke-width="5"/>
<path d="M15.7441 29.0774C15.4186 29.4029 15.4186 29.9305 15.7441 30.2559C16.0695 30.5814 16.5972 30.5814 16.9226 30.2559L23 24.1785L29.0774 30.2559C29.4028 30.5814 29.9305 30.5814 30.2559 30.2559C30.5814 29.9305 30.5814 29.4029 30.2559 29.0774L24.1785 23L30.2559 16.9226C30.5814 16.5972 30.5814 16.0695 30.2559 15.7441C29.9305 15.4186 29.4028 15.4186 29.0774 15.7441L23 21.8215L16.9226 15.7441C16.5972 15.4186 16.0695 15.4186 15.7441 15.7441C15.4186 16.0695 15.4186 16.5972 15.7441 16.9226L21.8215 23L15.7441 29.0774Z" fill="#A8B3BD" stroke="#A8B3BD" stroke-width="3" stroke-linecap="round"/>
</g>
<defs>
<clipPath id="clip0_2451_10145">
<rect width="45" height="45" fill="white"/>
</clipPath>
</defs>
</svg>
