<svg width="24" height="24" viewBox="0 0 24 24" fill="none" xmlns="http://www.w3.org/2000/svg">
<path fill-rule="evenodd" clip-rule="evenodd" d="M18 4C18 3.44772 17.5523 3 17 3C16.4477 3 16 3.44772 16 4V4.94446H8L8 4C8 3.44772 7.55228 3 7 3C6.44772 3 6 3.44772 6 4L6 4.94446C4.34315 4.94446 3 6.28761 3 7.94446V18C3 19.6569 4.34315 21 6 21H18C19.6569 21 21 19.6569 21 18V7.94446C21 6.2876 19.6569 4.94446 18 4.94446V4ZM19 11V18C19 18.5523 18.5523 19 18 19H6C5.44772 19 5 18.5523 5 18V11H19ZM19 9V7.94446C19 7.39217 18.5523 6.94446 18 6.94446H6C5.44772 6.94446 5 7.39217 5 7.94446V9H19Z" fill="#A8B3BD"/>
</svg>
