<svg width="24" height="24" viewBox="0 0 24 24" fill="none" xmlns="http://www.w3.org/2000/svg">
<path d="M12.8286 7.94975L14.9499 5.82843C15.3404 5.4379 15.3404 4.80474 14.9499 4.41421L12.8286 2.29289C12.438 1.90237 11.8049 1.90237 11.4143 2.29289C11.0238 2.68342 11.0238 3.31658 11.4143 3.70711L11.7123 4.00506C7.42728 4.15653 4 7.67801 4 12C4 13.6984 4.53037 15.2759 5.4345 16.5721C5.75046 17.0251 6.37381 17.1361 6.82679 16.8202C7.27976 16.5042 7.39084 15.8809 7.07487 15.4279C6.39726 14.4564 6 13.2761 6 12C6 8.70306 8.65914 6.02722 11.9497 6.00019L11.4143 6.53553C11.0238 6.92606 11.0238 7.55922 11.4143 7.94975C11.8049 8.34027 12.438 8.34027 12.8286 7.94975Z" fill="#A8B3BD"/>
<path d="M9.29304 18.4142C8.90252 18.8047 8.90252 19.4379 9.29304 19.8284L11.4144 21.9497C11.8049 22.3403 12.4381 22.3403 12.8286 21.9497C13.2191 21.5592 13.2191 20.9261 12.8286 20.5355L12.2879 19.9949C16.5728 19.8433 20 16.3219 20 12C20 10.3016 19.4696 8.72409 18.5655 7.42789C18.2495 6.97491 17.6262 6.86384 17.1732 7.1798C16.7202 7.49576 16.6092 8.1191 16.9251 8.57208C17.6027 9.54354 18 10.7239 18 12C18 15.1243 15.612 17.6909 12.5616 17.974L12.8286 17.7071C13.2191 17.3166 13.2191 16.6834 12.8286 16.2929C12.4381 15.9024 11.8049 15.9024 11.4144 16.2929L9.29304 18.4142Z" fill="#A8B3BD"/>
</svg>
