<svg width="162" height="24" viewBox="0 0 162 24" fill="none" xmlns="http://www.w3.org/2000/svg">
<path d="M23.64 0.865845C24.1321 0.865845 24.396 1.0893 24.396 1.56629V4.58939C24.396 5.06638 24.1344 5.28984 23.64 5.28984H9.39125C6.01031 5.28984 5.02374 6.27605 5.02374 9.61714V10.2531H23.4737C23.9659 10.2531 24.1964 10.4766 24.1964 10.9536V13.4675C24.1964 13.9444 23.9659 14.1679 23.4737 14.1679H5.02374V22.4401C5.02374 22.9171 4.79318 23.1405 4.301 23.1405H0.755998C0.263822 23.1405 0 22.9171 0 22.4401V9.26477C0 3.15627 2.56065 0.865845 9.19172 0.865845H23.64Z" fill="#007CDB"/>
<path d="M38.8178 10.2468C43.2452 10.2468 44.6707 11.6283 44.6707 15.0855V21.2326C44.6707 22.7818 44.2783 23.1385 42.8505 23.1385H31.5416C28.6395 23.1385 27.7549 22.1136 27.7549 19.7544V18.8026C27.7549 16.8 28.6395 15.6806 31.5416 15.6806H41.1545V15.2273C41.1545 13.7017 40.6136 13.1066 38.4742 13.1066H28.1939C27.899 13.1066 27.7505 12.9884 27.7505 12.6769V10.6744C27.7505 10.3886 27.899 10.2446 28.1939 10.2446H38.8178V10.2468ZM41.1545 19.7071V17.8034H32.5503C31.5416 17.8034 31.1736 18.2095 31.1736 18.9701V19.2774C31.1736 20.1347 31.5416 20.5171 32.5503 20.5171H40.4406C40.9572 20.5171 41.1545 20.3023 41.1545 19.7071Z" fill="#007CDB"/>
<path d="M60.9655 10.2467C61.2604 10.2467 61.4089 10.3885 61.4089 10.6764V12.6789C61.4089 12.9883 61.2626 13.1087 60.9655 13.1087H54.4231C52.3081 13.1087 51.7427 13.7275 51.7427 15.73V22.6141C51.7427 22.9708 51.5698 23.1384 51.2018 23.1384H48.7919C48.4239 23.1384 48.2266 22.9708 48.2266 22.6141V15.0854C48.2266 11.6283 49.6521 10.2467 54.0795 10.2467H60.9655Z" fill="#007CDB"/>
<path d="M83.3864 10.2468C87.8138 10.2468 89.2149 11.6283 89.2149 15.0855V22.6142C89.2149 22.9709 89.042 23.1385 88.674 23.1385H86.2641C85.8961 23.1385 85.7231 22.9709 85.7231 22.6142V15.8933C85.7231 13.8908 85.3307 13.272 83.1913 13.272H78.8637V22.6142C78.8637 22.9709 78.6664 23.1385 78.2984 23.1385H75.8885C75.5205 23.1385 75.3475 22.9709 75.3475 22.6142V13.272H71.1663C69.0512 13.272 68.4859 13.8908 68.4859 15.8933V22.612C68.4859 22.9687 68.313 23.1363 67.9449 23.1363H65.5351C65.167 23.1363 64.9697 22.9687 64.9697 22.612V15.0833C64.9697 11.6262 66.3953 10.2446 70.8226 10.2446H83.3864V10.2468Z" fill="#007CDB"/>
<path d="M123.576 22.3992L112.71 3.27656C111.626 1.3686 110.609 0.859375 108.935 0.859375H106.997C105.618 0.859375 104.634 1.3686 103.55 3.27656L92.7817 22.3992C92.5512 22.8118 92.6509 23.1319 93.2096 23.1319H97.4774C97.872 23.1319 98.0693 23.0374 98.2334 22.7172L100.499 18.6134L107.722 5.59921C107.82 5.44022 107.919 5.37576 108.084 5.37576H108.281C108.445 5.37576 108.545 5.44022 108.642 5.59921L118.262 22.7172C118.426 23.0352 118.59 23.1319 119.018 23.1319H123.188C123.707 23.1297 123.804 22.8118 123.576 22.3992Z" fill="#007CDB"/>
<path d="M131.083 9.33569C131.575 9.33569 131.805 9.58923 131.805 10.0684L131.801 22.4358C131.801 22.9128 131.573 23.1362 131.078 23.1362H127.861C127.369 23.1362 127.139 22.9128 127.139 22.4358L127.143 10.0684C127.143 9.59138 127.374 9.33569 127.866 9.33569H131.083Z" fill="#007CDB"/>
<path d="M131.098 0.865967H127.881C127.389 0.865967 127.125 1.08942 127.125 1.56641V4.58951C127.125 5.04502 127.372 5.28996 127.819 5.31145C127.842 5.31359 127.857 5.32004 127.881 5.32004H129.143H129.6C129.852 5.55209 130.012 5.87653 130.012 6.23965C130.012 7.38056 129.045 7.25809 129.045 7.45791C129.045 7.64484 130.498 7.72004 131.254 6.69085C131.744 6.02478 131.821 5.45325 131.821 4.61529C131.821 4.6067 131.821 4.60025 131.821 4.59166V4.58951V3.71288V3.62693V1.56856C131.821 1.08942 131.591 0.865967 131.098 0.865967Z" fill="#007CDB"/>
<path d="M151.772 0.86792C158.92 0.86792 161.853 3.64608 161.853 9.87061V14.1313C161.853 20.3558 158.922 23.134 151.772 23.134H136.355C135.697 23.134 135.366 22.8138 135.366 22.1757V1.8262C135.366 1.18806 135.697 0.86792 136.355 0.86792H151.772ZM140.408 18.2824C140.408 18.5703 140.539 18.6971 140.836 18.6971H151.641C155.528 18.6971 156.814 17.4831 156.814 13.7166V10.2853C156.814 6.51877 155.528 5.3048 151.641 5.3048H140.836C140.539 5.3048 140.408 5.43157 140.408 5.75172V18.2824Z" fill="#007CDB"/>
</svg>
