<svg width="209" height="26" viewBox="0 0 209 26" fill="none" xmlns="http://www.w3.org/2000/svg">
<path d="M6.54028 4.92032H15.9986C16.445 4.92032 16.9283 4.63496 16.9283 3.8249V1.11858C16.9283 0.129025 16.2195 0.0507812 15.9986 0.0507812H6.41141C1.85945 0.0507812 0 2.29684 0 7.80154V12.5514C0 18.0561 1.85945 20.3022 6.41141 20.3022H15.994C16.2103 20.3022 16.9237 20.2239 16.9237 19.2344V16.5281C16.9237 15.5385 16.2149 15.4602 15.994 15.4602H6.54028C4.76368 15.4602 4.17455 14.9816 4.17455 12.1372V8.21577C4.17455 5.37598 4.73606 4.92032 6.54028 4.92032Z" fill="#007CDB"/>
<path d="M28.8351 5.2333H21.876V1.07716C21.876 0.124423 21.1902 0.0507812 20.9785 0.0507812H19.0362C18.8245 0.0507812 18.1387 0.124423 18.1387 1.07716V19.2758C18.1387 20.2285 18.8245 20.3022 19.0362 20.3022H20.9785C21.1902 20.3022 21.876 20.2285 21.876 19.2758V9.42626H28.6924C29.9535 9.42626 30.2757 9.66099 30.2757 11.8012V19.2758C30.2757 20.2285 30.9615 20.3022 31.1732 20.3022H33.1155C33.3272 20.3022 34.013 20.2285 34.013 19.2758V10.9267C34.013 6.8304 32.5586 5.2333 28.8305 5.2333H28.8351Z" fill="#007CDB"/>
<path d="M38.413 5.23242H36.4707C36.0381 5.23242 35.5732 5.50858 35.5732 6.28641V19.2749C35.5732 20.2277 36.259 20.3013 36.4707 20.3013H38.413C38.6248 20.3013 39.3105 20.2277 39.3105 19.2749V6.28641C39.3105 5.50858 38.8457 5.23242 38.413 5.23242Z" fill="#007CDB"/>
<path d="M38.4129 0H36.4706C36.0288 0 35.5547 0.271553 35.5547 1.02638V3.47495C35.5547 4.25279 36.0472 4.52895 36.4706 4.52895H38.4129C38.8455 4.52895 39.3104 4.25279 39.3104 3.47495V1.02638C39.3104 0.0736415 38.6246 0 38.4129 0Z" fill="#007CDB"/>
<path d="M45.8923 9.24588H53.5878C53.7811 9.24588 54.4071 9.18144 54.4071 8.32076V6.15754C54.4071 5.47636 53.9652 5.23242 53.5878 5.23242H45.6161C41.888 5.23242 40.4336 6.82952 40.4336 10.9258V14.6355C40.4336 18.7134 41.888 20.3013 45.6161 20.3013H53.5878C53.9652 20.3013 54.4071 20.0574 54.4071 19.3762V17.213C54.4071 16.5318 53.9652 16.2878 53.5878 16.2878H45.8923C44.5529 16.2878 44.1893 15.9933 44.1893 13.9129V11.6208C44.1893 9.54044 44.5529 9.24588 45.8923 9.24588Z" fill="#007CDB"/>
<path d="M70.3501 18.972L67.5334 14.0242C67.1974 13.4397 66.8246 12.9564 66.4011 12.5652C66.7279 12.1924 67.0455 11.7322 67.3585 11.1798L69.9221 6.60947C70.1062 6.25967 70.12 5.86845 69.9497 5.5923C69.8162 5.36677 69.5815 5.2379 69.3146 5.2379H67.0731C66.4978 5.2379 66.2446 5.5877 66.0743 5.91448L63.8513 9.98777C63.4371 10.7564 63.3036 10.83 62.291 10.83H59.1014V1.07716C59.1014 0.124423 58.4156 0.0507812 58.2039 0.0507812H56.2616C55.8198 0.0507812 55.3457 0.322334 55.3457 1.07716V19.2758C55.3457 20.0352 55.8198 20.3022 56.2616 20.3022H58.2039C58.4156 20.3022 59.1014 20.2285 59.1014 19.2758V14.5305H62.4705C63.4186 14.5305 63.6718 14.7238 64.0538 15.3774L66.4748 19.7084C66.7187 20.1411 66.9949 20.3068 67.4919 20.3068H69.715C69.9865 20.3068 70.2351 20.1687 70.3686 19.934C70.5296 19.6578 70.525 19.285 70.3501 18.9766V18.972Z" fill="#007CDB"/>
<path d="M83.5735 14.2949C85.0003 14.2949 85.166 13.1949 85.166 12.3664V9.91786C85.166 6.94919 84.5309 5.23242 81.2768 5.23242H75.4638C71.7357 5.23242 70.2812 6.82952 70.2812 10.9258V14.6355C70.2812 18.7134 71.7357 20.3013 75.4638 20.3013H84.0108C84.3882 20.3013 84.83 20.0574 84.83 19.3762V17.213C84.83 16.5318 84.3882 16.2878 84.0108 16.2878H75.7399C74.3545 16.2878 74.0186 15.9288 74.0186 14.456V14.2995H83.5735V14.2949ZM74.0186 11.0823V10.8476C74.0186 9.37475 74.3545 9.01575 75.7399 9.01575H80.7199C81.2262 9.01575 81.4701 9.05717 81.4701 10.0237V11.0823H74.0232H74.0186Z" fill="#007CDB"/>
<path d="M97.1791 5.23242H91.4857C87.7576 5.23242 86.3032 6.82952 86.3032 10.9258V19.2749C86.3032 20.0343 86.7773 20.3013 87.2191 20.3013H89.1614C89.3732 20.3013 90.0589 20.2277 90.0589 19.2749V11.8003C90.0589 9.73836 90.4409 9.42538 91.7619 9.42538H97.0365C98.2976 9.42538 98.6198 9.66011 98.6198 11.8003V19.2749C98.6198 20.2277 99.3055 20.3013 99.5173 20.3013H101.46C101.671 20.3013 102.357 20.2277 102.357 19.2749V10.9258C102.357 6.82952 100.903 5.23242 97.1791 5.23242Z" fill="#007CDB"/>
<path d="M125.213 0.0507812H122.939C121.453 0.0507812 120.873 0.570874 120.251 2.46254L115.851 15.6536H115.833L111.438 2.46714C110.812 0.570874 110.232 0.0507812 108.727 0.0507812H106.411C104.446 0.0507812 104.06 1.27047 104.06 3.38306V19.2344C104.06 20.0214 104.547 20.3022 105.008 20.3022H107.176C107.392 20.3022 108.105 20.2239 108.105 19.2344V5.65673L112.142 17.2875C112.846 19.285 113.527 20.3022 115.294 20.3022H116.316C118.084 20.3022 118.765 19.285 119.469 17.2875L123.506 5.65213V19.2344C123.506 20.2239 124.214 20.3022 124.435 20.3022H126.603C127.063 20.3022 127.551 20.0214 127.551 19.2344V3.38306C127.551 1.69851 127.372 0.0507812 125.222 0.0507812H125.213Z" fill="#007CDB"/>
<path d="M139.886 5.23242H134.276C130.548 5.23242 129.093 6.82952 129.093 10.9258V14.6355C129.093 18.7134 130.548 20.3013 134.276 20.3013H139.886C143.614 20.3013 145.069 18.7134 145.069 14.6355V10.9258C145.069 6.82952 143.614 5.23242 139.886 5.23242ZM141.332 11.5426V13.9911C141.332 16.0531 140.945 16.3661 139.61 16.3661H134.552C133.236 16.3661 132.849 16.0531 132.849 13.9911V11.5426C132.849 9.48521 133.213 9.19525 134.552 9.19525H139.61C140.963 9.19525 141.332 9.48982 141.332 11.5426Z" fill="#007CDB"/>
<path d="M157.303 5.23242H151.61C147.881 5.23242 146.432 6.82952 146.432 10.9258V19.2749C146.432 20.0343 146.906 20.3013 147.348 20.3013H149.29C149.502 20.3013 150.187 20.2277 150.187 19.2749V11.8003C150.187 9.73836 150.569 9.42538 151.89 9.42538H157.165C158.426 9.42538 158.748 9.66011 158.748 11.8003V19.2749C158.748 20.2277 159.434 20.3013 159.646 20.3013H161.588C161.8 20.3013 162.485 20.2277 162.485 19.2749V10.9258C162.485 6.82952 161.031 5.23242 157.303 5.23242Z" fill="#007CDB"/>
<path d="M174.576 5.23242H169.026C165.298 5.23242 163.843 6.83412 163.843 10.9488V13.6552C163.843 17.7699 165.298 19.3716 169.026 19.3716H176.022V19.5833C176.022 21.6683 175.635 21.9858 174.3 21.9858H165.238C164.86 21.9858 164.419 22.2298 164.419 22.911V25.0742C164.419 25.7554 164.86 25.9993 165.238 25.9993H174.576C178.305 25.9993 179.759 24.3976 179.759 20.2829V10.9028C179.759 6.82492 178.305 5.23702 174.576 5.23702V5.23242ZM169.302 15.5928C167.935 15.5928 167.599 15.2062 167.599 13.6321V11.156C167.599 9.57727 167.935 9.19525 169.302 9.19525H174.3C175.7 9.19525 176.022 9.57727 176.022 11.2342V15.5928H169.302Z" fill="#007CDB"/>
<path d="M194.151 14.2949C195.578 14.2949 195.744 13.1949 195.744 12.3664V9.91786C195.744 6.94919 195.108 5.23242 191.85 5.23242H186.041C182.313 5.23242 180.859 6.82952 180.859 10.9258V14.6355C180.859 18.7134 182.313 20.3013 186.041 20.3013H194.588C194.966 20.3013 195.408 20.0574 195.408 19.3762V17.213C195.408 16.5318 194.966 16.2878 194.588 16.2878H186.318C184.932 16.2878 184.596 15.9288 184.596 14.456V14.2995H194.151V14.2949ZM184.596 11.0823V10.8476C184.596 9.37475 184.932 9.01575 186.318 9.01575H191.298C191.804 9.01575 192.048 9.05717 192.048 10.0237V11.0823H184.601H184.596Z" fill="#007CDB"/>
<path d="M207.618 5.23242H202.063C198.335 5.23242 196.885 6.82952 196.885 10.9258V19.2749C196.885 20.0343 197.359 20.3013 197.801 20.3013H199.743C199.955 20.3013 200.641 20.2277 200.641 19.2749V11.6208C200.641 9.55886 201.023 9.24588 202.344 9.24588H207.618C207.812 9.24588 208.438 9.18144 208.438 8.32076V6.15754C208.438 5.47636 207.996 5.23242 207.618 5.23242Z" fill="#007CDB"/>
</svg>
