<svg width="296" height="37" viewBox="0 0 296 37" fill="none" xmlns="http://www.w3.org/2000/svg">
<path d="M50.8998 10.7861H62.3821C62.924 10.7861 63.5107 10.441 63.5107 9.46148V6.18892C63.5107 4.99232 62.6503 4.89771 62.3821 4.89771H50.7433C45.2173 4.89771 42.96 7.61371 42.96 14.2701V20.0138C42.96 26.6703 45.2173 29.3863 50.7433 29.3863H62.3765C62.6391 29.3863 63.5051 29.2916 63.5051 28.095V24.8225C63.5051 23.6259 62.6447 23.5313 62.3765 23.5313H50.8998C48.743 23.5313 48.0278 22.9525 48.0278 19.5129V14.771C48.0278 11.3371 48.7095 10.7861 50.8998 10.7861Z" fill="#181A1B"/>
<path d="M77.9653 11.1645H69.517V6.13883C69.517 4.98675 68.6845 4.89771 68.4275 4.89771H66.0695C65.8125 4.89771 64.98 4.98675 64.98 6.13883V28.1451C64.98 29.2972 65.8125 29.3863 66.0695 29.3863H68.4275C68.6845 29.3863 69.517 29.2972 69.517 28.1451V16.2348H77.7921C79.3231 16.2348 79.7142 16.5186 79.7142 19.1066V28.1451C79.7142 29.2972 80.5467 29.3863 80.8037 29.3863H83.1617C83.4187 29.3863 84.2512 29.2972 84.2512 28.1451V18.0492C84.2512 13.0958 82.4856 11.1645 77.9597 11.1645H77.9653Z" fill="#181A1B"/>
<path d="M89.5927 11.1643H87.2348C86.7096 11.1643 86.1453 11.4982 86.1453 12.4388V28.1449C86.1453 29.297 86.9778 29.386 87.2348 29.386H89.5927C89.8498 29.386 90.6823 29.297 90.6823 28.1449V12.4388C90.6823 11.4982 90.118 11.1643 89.5927 11.1643Z" fill="#181A1B"/>
<path d="M89.5935 4.83655H87.2356C86.6992 4.83655 86.1237 5.16492 86.1237 6.07767V9.03856C86.1237 9.97914 86.7215 10.3131 87.2356 10.3131H89.5935C90.1187 10.3131 90.683 9.97914 90.683 9.03856V6.07767C90.683 4.9256 89.8505 4.83655 89.5935 4.83655Z" fill="#181A1B"/>
<path d="M98.6731 16.0185H108.015C108.25 16.0185 109.01 15.9406 109.01 14.8998V12.284C109.01 11.4603 108.474 11.1653 108.015 11.1653H98.3379C93.812 11.1653 92.0464 13.0965 92.0464 18.0499V22.5358C92.0464 27.4669 93.812 29.387 98.3379 29.387H108.015C108.474 29.387 109.01 29.092 109.01 28.2683V25.6525C109.01 24.8288 108.474 24.5338 108.015 24.5338H98.6731C97.0472 24.5338 96.6058 24.1776 96.6058 21.662V18.8903C96.6058 16.3747 97.0472 16.0185 98.6731 16.0185Z" fill="#181A1B"/>
<path d="M128.365 27.7778L124.945 21.7948C124.537 21.088 124.085 20.5036 123.571 20.0305C123.968 19.5797 124.353 19.0231 124.733 18.3553L127.845 12.8287C128.069 12.4057 128.085 11.9326 127.879 11.5987C127.717 11.326 127.432 11.1701 127.108 11.1701H124.387C123.688 11.1701 123.381 11.5931 123.174 11.9883L120.475 16.9138C119.972 17.8432 119.81 17.9323 118.581 17.9323H114.709V6.13883C114.709 4.98675 113.877 4.89771 113.619 4.89771H111.262C110.725 4.89771 110.15 5.22607 110.15 6.13883V28.1451C110.15 29.0635 110.725 29.3863 111.262 29.3863H113.619C113.877 29.3863 114.709 29.2972 114.709 28.1451V22.407H118.799C119.95 22.407 120.257 22.6408 120.721 23.4311L123.66 28.6683C123.956 29.1915 124.292 29.3918 124.895 29.3918H127.594C127.923 29.3918 128.225 29.2249 128.387 28.941C128.583 28.6071 128.577 28.1563 128.365 27.7834V27.7778Z" fill="#181A1B"/>
<path d="M144.417 22.1239C146.149 22.1239 146.35 20.7937 146.35 19.7919V16.831C146.35 13.2412 145.579 11.1653 141.629 11.1653H134.572C130.046 11.1653 128.281 13.0965 128.281 18.0499V22.5358C128.281 27.4669 130.046 29.387 134.572 29.387H144.948C145.406 29.387 145.943 29.092 145.943 28.2683V25.6525C145.943 24.8288 145.406 24.5338 144.948 24.5338H134.907C133.225 24.5338 132.818 24.0997 132.818 22.3187V22.1295H144.417V22.1239ZM132.818 18.2391V17.9553C132.818 16.1743 133.225 15.7402 134.907 15.7402H140.953C141.568 15.7402 141.864 15.7903 141.864 16.9591V18.2391H132.823H132.818Z" fill="#181A1B"/>
<path d="M160.934 11.1653H154.023C149.497 11.1653 147.731 13.0965 147.731 18.0499V28.1459C147.731 29.0642 148.307 29.387 148.843 29.387H151.201C151.458 29.387 152.29 29.2979 152.29 28.1459V19.1074C152.29 16.614 152.754 16.2355 154.358 16.2355H160.761C162.292 16.2355 162.683 16.5194 162.683 19.1074V28.1459C162.683 29.2979 163.516 29.387 163.773 29.387H166.131C166.388 29.387 167.22 29.2979 167.22 28.1459V18.0499C167.22 13.0965 165.455 11.1653 160.934 11.1653Z" fill="#181A1B"/>
<path d="M194.968 4.89771H192.207C190.403 4.89771 189.699 5.52662 188.944 7.81407L183.603 23.765H183.58L178.244 7.81964C177.484 5.52662 176.78 4.89771 174.953 4.89771H172.143C169.757 4.89771 169.288 6.37258 169.288 8.92719V28.095C169.288 29.0468 169.88 29.3863 170.439 29.3863H173.07C173.333 29.3863 174.199 29.2916 174.199 28.095V11.6766L179.099 25.7408C179.954 28.1563 180.781 29.3863 182.927 29.3863H184.167C186.313 29.3863 187.14 28.1563 187.995 25.7408L192.895 11.671V28.095C192.895 29.2916 193.755 29.3863 194.023 29.3863H196.655C197.214 29.3863 197.806 29.0468 197.806 28.095V8.92719C197.806 6.89018 197.588 4.89771 194.979 4.89771H194.968Z" fill="#181A1B"/>
<path d="M212.78 11.1653H205.969C201.443 11.1653 199.677 13.0965 199.677 18.0499V22.5358C199.677 27.4669 201.443 29.387 205.969 29.387H212.78C217.306 29.387 219.071 27.4669 219.071 22.5358V18.0499C219.071 13.0965 217.306 11.1653 212.78 11.1653ZM214.534 18.7957V21.7566C214.534 24.25 214.065 24.6284 212.445 24.6284H206.304C204.706 24.6284 204.237 24.25 204.237 21.7566V18.7957C204.237 16.3079 204.678 15.9572 206.304 15.9572H212.445C214.087 15.9572 214.534 16.3134 214.534 18.7957Z" fill="#181A1B"/>
<path d="M233.924 11.1653H227.012C222.486 11.1653 220.726 13.0965 220.726 18.0499V28.1459C220.726 29.0642 221.301 29.387 221.838 29.387H224.196C224.453 29.387 225.285 29.2979 225.285 28.1459V19.1074C225.285 16.614 225.749 16.2355 227.353 16.2355H233.756C235.287 16.2355 235.678 16.5194 235.678 19.1074V28.1459C235.678 29.2979 236.511 29.387 236.768 29.387H239.126C239.383 29.387 240.215 29.2979 240.215 28.1459V18.0499C240.215 13.0965 238.449 11.1653 233.924 11.1653Z" fill="#181A1B"/>
<path d="M254.893 11.1653H248.155C243.629 11.1653 241.863 13.1021 241.863 18.0777V21.3503C241.863 26.3259 243.629 28.2627 248.155 28.2627H256.648V28.5188C256.648 31.04 256.178 31.424 254.558 31.424H243.556C243.098 31.424 242.562 31.719 242.562 32.5427V35.1585C242.562 35.9822 243.098 36.2772 243.556 36.2772H254.893C259.419 36.2772 261.185 34.3404 261.185 29.3647V18.0221C261.185 13.091 259.419 11.1708 254.893 11.1708V11.1653ZM248.49 23.6934C246.831 23.6934 246.423 23.2259 246.423 21.3225V18.3282C246.423 16.4192 246.831 15.9572 248.49 15.9572H254.558C256.257 15.9572 256.648 16.4192 256.648 18.4228V23.6934H248.49Z" fill="#181A1B"/>
<path d="M278.657 22.1239C280.389 22.1239 280.59 20.7937 280.59 19.7919V16.831C280.59 13.2412 279.819 11.1653 275.863 11.1653H268.812C264.286 11.1653 262.52 13.0965 262.52 18.0499V22.5358C262.52 27.4669 264.286 29.387 268.812 29.387H279.188C279.646 29.387 280.182 29.092 280.182 28.2683V25.6525C280.182 24.8288 279.646 24.5338 279.188 24.5338H269.147C267.465 24.5338 267.057 24.0997 267.057 22.3187V22.1295H278.657V22.1239ZM267.057 18.2391V17.9553C267.057 16.1743 267.465 15.7402 269.147 15.7402H275.193C275.807 15.7402 276.103 15.7903 276.103 16.9591V18.2391H267.063H267.057Z" fill="#181A1B"/>
<path d="M295.006 11.1653H288.262C283.736 11.1653 281.976 13.0965 281.976 18.0499V28.1459C281.976 29.0642 282.551 29.387 283.088 29.387H285.446C285.703 29.387 286.535 29.2979 286.535 28.1459V18.8903C286.535 16.3969 286.999 16.0185 288.602 16.0185H295.006C295.24 16.0185 296 15.9406 296 14.8998V12.284C296 11.4603 295.464 11.1653 295.006 11.1653Z" fill="#181A1B"/>
<g clip-path="url(#clip0_3583_2642)">
<path d="M25.7973 22.5519C27.8503 20.4745 30.4703 20.1876 33.2852 19.8655C32.7155 18.2956 31.7993 17.1588 30.584 16.2602C29.6299 15.5551 28.6393 15.0328 27.6013 14.7607C22.5587 20.4948 13.1355 29.0709 21.6358 35.736C21.8577 35.9106 22.0932 36.0838 22.3422 36.2571C24.0704 36.3369 27.2507 34.7725 28.1954 32.7546C29.6326 29.6826 28.8517 26.8758 27.0247 24.2354C26.6417 23.6805 26.2317 23.1446 25.7973 22.5519Z" fill="url(#paint0_linear_3583_2642)"/>
<path d="M28.8584 2.6509C27.34 1.32057 25.5455 0.583007 23.5845 0.2555C22.4612 0.0579139 21.315 -0.0950125 20.0198 0.0687406C20.5314 0.455793 20.936 0.73052 21.2703 1.05397C21.8576 1.62642 22.4288 2.21106 22.491 3.09885C22.5235 3.44801 22.4044 3.77146 22.1364 3.95957C21.8685 4.14768 21.6384 3.85672 21.4111 3.72274C20.9198 3.402 20.4339 3.05148 19.9075 2.7551C17.8125 1.58989 15.5768 1.13517 13.0245 1.32869C13.9068 2.09332 14.7202 2.72127 15.3968 3.49673C15.8001 3.95821 16.0857 4.47789 16.1006 5.10584C16.0979 5.74732 15.8272 6.0437 15.1749 5.83529C14.5659 5.64988 13.9853 5.39139 13.3844 5.25471C10.9701 4.65924 8.73981 5.15997 6.40126 6.45376C7.50693 6.66352 8.40148 6.91389 9.14175 7.3253C9.76699 7.68529 10.4166 8.08046 10.3638 8.91682C10.3232 9.76942 9.67496 10.1727 8.98071 10.4732C6.3187 11.6492 3.00846 10.9901 0.916205 8.91817C0.649599 8.65292 0.384346 8.38632 0 7.99114C0.0311266 8.52841 0.0148866 8.88569 0.0649599 9.22267C0.123153 9.60837 0.197586 9.98054 0.339686 10.3351C1.42506 13.2231 3.28589 15.1665 5.75978 16.302L5.92759 18.3252C6.136 20.4594 6.89658 22.5124 7.9833 24.468C9.01725 22.7763 11.9256 18.6973 16.8571 16.8352C16.8138 16.6633 16.7881 16.4846 16.7881 16.2992C16.7881 15.0596 17.8261 14.0541 19.105 14.0541C20.3839 14.0541 21.4219 15.0596 21.4219 16.2992C21.4219 17.5389 20.3839 18.5444 19.105 18.5444C18.5312 18.5444 18.0074 18.3414 17.6028 18.0071C11.9553 20.0223 9.01725 25.3503 8.77906 25.7983C9.00913 26.1569 9.24731 26.5115 9.49632 26.8633L10.962 28.7499C14.3494 32.7206 18.8289 35.6397 22.3733 36.2663C22.1161 36.089 21.8739 35.9104 21.6452 35.7304C12.9933 28.9461 22.9105 20.182 27.8759 14.4519C27.995 14.3139 28.1452 14.1366 28.1452 14.1366C29.527 12.5018 30.7815 8.85592 30.7937 7.45658C31.0914 5.57545 30.4784 4.08137 28.8584 2.64954V2.6509Z" fill="url(#paint1_linear_3583_2642)"/>
</g>
<defs>
<linearGradient id="paint0_linear_3583_2642" x1="33.001" y1="25.3492" x2="17.9371" y2="25.6551" gradientUnits="userSpaceOnUse">
<stop stop-color="#E73162"/>
<stop offset="0.21" stop-color="#E72A60"/>
<stop offset="0.54" stop-color="#D71A5F"/>
<stop offset="0.62" stop-color="#D2135E"/>
<stop offset="0.99" stop-color="#A7232C"/>
</linearGradient>
<linearGradient id="paint1_linear_3583_2642" x1="0" y1="18.1344" x2="30.8668" y2="18.1344" gradientUnits="userSpaceOnUse">
<stop stop-color="#F4A66D"/>
<stop offset="0.71" stop-color="#E73162"/>
<stop offset="0.81" stop-color="#E72A60"/>
<stop offset="0.96" stop-color="#D71A5F"/>
<stop offset="1" stop-color="#D2135E"/>
</linearGradient>
<clipPath id="clip0_3583_2642">
<rect width="33.2852" height="36.2693" fill="white"/>
</clipPath>
</defs>
</svg>
