<svg width="34" height="37" viewBox="0 0 34 37" fill="none" xmlns="http://www.w3.org/2000/svg">
<g clip-path="url(#clip0_3583_2659)">
<path d="M25.7973 22.5519C27.8503 20.4745 30.4703 20.1876 33.2852 19.8655C32.7155 18.2956 31.7993 17.1588 30.584 16.2602C29.6299 15.5551 28.6393 15.0328 27.6013 14.7607C22.5587 20.4948 13.1355 29.0709 21.6358 35.736C21.8577 35.9106 22.0932 36.0838 22.3422 36.2571C24.0704 36.3369 27.2507 34.7725 28.1954 32.7546C29.6326 29.6826 28.8517 26.8758 27.0247 24.2354C26.6417 23.6805 26.2317 23.1446 25.7973 22.5519Z" fill="url(#paint0_linear_3583_2659)"/>
<path d="M28.8584 2.6509C27.34 1.32057 25.5455 0.583007 23.5845 0.2555C22.4612 0.0579139 21.315 -0.0950125 20.0198 0.0687406C20.5314 0.455793 20.936 0.73052 21.2703 1.05397C21.8576 1.62642 22.4288 2.21106 22.491 3.09885C22.5235 3.44801 22.4044 3.77146 22.1364 3.95957C21.8685 4.14768 21.6384 3.85672 21.4111 3.72274C20.9198 3.402 20.4339 3.05148 19.9075 2.7551C17.8125 1.58989 15.5768 1.13517 13.0245 1.32869C13.9068 2.09332 14.7202 2.72127 15.3968 3.49673C15.8001 3.95821 16.0857 4.47789 16.1006 5.10584C16.0979 5.74732 15.8272 6.0437 15.1749 5.83529C14.5659 5.64988 13.9853 5.39139 13.3844 5.25471C10.9701 4.65924 8.73981 5.15997 6.40126 6.45376C7.50693 6.66352 8.40148 6.91389 9.14175 7.3253C9.76699 7.68529 10.4166 8.08046 10.3638 8.91682C10.3232 9.76942 9.67496 10.1727 8.98071 10.4732C6.3187 11.6492 3.00846 10.9901 0.916205 8.91817C0.649599 8.65292 0.384346 8.38632 0 7.99114C0.0311266 8.52841 0.0148866 8.88569 0.0649599 9.22267C0.123153 9.60837 0.197586 9.98054 0.339686 10.3351C1.42506 13.2231 3.28589 15.1665 5.75978 16.302L5.92759 18.3252C6.136 20.4594 6.89658 22.5124 7.9833 24.468C9.01725 22.7763 11.9256 18.6973 16.8571 16.8352C16.8138 16.6633 16.7881 16.4846 16.7881 16.2992C16.7881 15.0596 17.8261 14.0541 19.105 14.0541C20.3839 14.0541 21.4219 15.0596 21.4219 16.2992C21.4219 17.5389 20.3839 18.5444 19.105 18.5444C18.5312 18.5444 18.0074 18.3414 17.6028 18.0071C11.9553 20.0223 9.01725 25.3503 8.77906 25.7983C9.00913 26.1569 9.24731 26.5115 9.49632 26.8633L10.962 28.7499C14.3494 32.7206 18.8289 35.6397 22.3733 36.2663C22.1161 36.089 21.8739 35.9104 21.6452 35.7304C12.9933 28.9461 22.9105 20.182 27.8759 14.4519C27.995 14.3139 28.1452 14.1366 28.1452 14.1366C29.527 12.5018 30.7815 8.85592 30.7937 7.45658C31.0914 5.57545 30.4784 4.08137 28.8584 2.64954V2.6509Z" fill="url(#paint1_linear_3583_2659)"/>
</g>
<defs>
<linearGradient id="paint0_linear_3583_2659" x1="33.001" y1="25.3492" x2="17.9371" y2="25.6551" gradientUnits="userSpaceOnUse">
<stop stop-color="#E73162"/>
<stop offset="0.21" stop-color="#E72A60"/>
<stop offset="0.54" stop-color="#D71A5F"/>
<stop offset="0.62" stop-color="#D2135E"/>
<stop offset="0.99" stop-color="#A7232C"/>
</linearGradient>
<linearGradient id="paint1_linear_3583_2659" x1="0" y1="18.1344" x2="30.8668" y2="18.1344" gradientUnits="userSpaceOnUse">
<stop stop-color="#F4A66D"/>
<stop offset="0.71" stop-color="#E73162"/>
<stop offset="0.81" stop-color="#E72A60"/>
<stop offset="0.96" stop-color="#D71A5F"/>
<stop offset="1" stop-color="#D2135E"/>
</linearGradient>
<clipPath id="clip0_3583_2659">
<rect width="33.2852" height="36.2693" fill="white"/>
</clipPath>
</defs>
</svg>
