<svg width="254" height="33" viewBox="0 0 254 33" fill="none" xmlns="http://www.w3.org/2000/svg">
<path d="M8.89978 6.78609H20.3821C20.924 6.78609 21.5107 6.44102 21.5107 5.46148V2.18892C21.5107 0.99232 20.6503 0.897705 20.3821 0.897705H8.74333C3.2173 0.897705 0.959961 3.61371 0.959961 10.2701V16.0138C0.959961 22.6703 3.2173 25.3863 8.74333 25.3863H20.3765C20.6391 25.3863 21.5051 25.2916 21.5051 24.095V20.8225C21.5051 19.6259 20.6447 19.5313 20.3765 19.5313H8.89978C6.74301 19.5313 6.02781 18.9525 6.02781 15.5129V10.771C6.02781 7.33708 6.70948 6.78609 8.89978 6.78609Z" fill="#181A1B"/>
<path d="M35.9653 7.16455H27.517V2.13883C27.517 0.986754 26.6845 0.897705 26.4275 0.897705H24.0695C23.8125 0.897705 22.98 0.986754 22.98 2.13883V24.1451C22.98 25.2972 23.8125 25.3863 24.0695 25.3863H26.4275C26.6845 25.3863 27.517 25.2972 27.517 24.1451V12.2348H35.7921C37.3231 12.2348 37.7142 12.5186 37.7142 15.1066V24.1451C37.7142 25.2972 38.5467 25.3863 38.8037 25.3863H41.1617C41.4187 25.3863 42.2512 25.2972 42.2512 24.1451V14.0492C42.2512 9.09581 40.4856 7.16455 35.9597 7.16455H35.9653Z" fill="#181A1B"/>
<path d="M47.5927 7.16431H45.2348C44.7096 7.16431 44.1453 7.49824 44.1453 8.43882V24.1449C44.1453 25.297 44.9778 25.386 45.2348 25.386H47.5927C47.8498 25.386 48.6823 25.297 48.6823 24.1449V8.43882C48.6823 7.49824 48.118 7.16431 47.5927 7.16431Z" fill="#181A1B"/>
<path d="M47.5935 0.836548H45.2356C44.6992 0.836548 44.1237 1.16492 44.1237 2.07767V5.03856C44.1237 5.97914 44.7215 6.31308 45.2356 6.31308H47.5935C48.1187 6.31308 48.683 5.97914 48.683 5.03856V2.07767C48.683 0.925597 47.8505 0.836548 47.5935 0.836548Z" fill="#181A1B"/>
<path d="M56.6731 12.0185H66.0154C66.2501 12.0185 67.01 11.9406 67.01 10.8998V8.28397C67.01 7.46026 66.4736 7.16528 66.0154 7.16528H56.3379C51.812 7.16528 50.0464 9.09654 50.0464 14.0499V18.5358C50.0464 23.4669 51.812 25.387 56.3379 25.387H66.0154C66.4736 25.387 67.01 25.092 67.01 24.2683V21.6525C67.01 20.8288 66.4736 20.5338 66.0154 20.5338H56.6731C55.0472 20.5338 54.6058 20.1776 54.6058 17.662V14.8903C54.6058 12.3747 55.0472 12.0185 56.6731 12.0185Z" fill="#181A1B"/>
<path d="M86.3649 23.7778L82.9453 17.7948C82.5374 17.088 82.0848 16.5036 81.5708 16.0305C81.9675 15.5797 82.353 15.0231 82.733 14.3553L85.8452 8.82866C86.0687 8.40567 86.0855 7.9326 85.8787 7.59866C85.7167 7.32595 85.4318 7.17011 85.1077 7.17011H82.3866C81.6881 7.17011 81.3808 7.5931 81.1741 7.98826L78.4753 12.9138C77.9725 13.8432 77.8104 13.9323 76.5812 13.9323H72.709V2.13883C72.709 0.986754 71.8765 0.897705 71.6195 0.897705H69.2616C68.7252 0.897705 68.1497 1.22607 68.1497 2.13883V24.1451C68.1497 25.0635 68.7252 25.3863 69.2616 25.3863H71.6195C71.8765 25.3863 72.709 25.2972 72.709 24.1451V18.407H76.7991C77.9501 18.407 78.2574 18.6408 78.7212 19.4311L81.6602 24.6683C81.9563 25.1915 82.2916 25.3918 82.895 25.3918H85.5938C85.9234 25.3918 86.2252 25.2249 86.3872 24.941C86.5828 24.6071 86.5772 24.1563 86.3649 23.7834V23.7778Z" fill="#181A1B"/>
<path d="M102.417 18.1239C104.149 18.1239 104.35 16.7937 104.35 15.7919V12.831C104.35 9.24124 103.579 7.16528 99.629 7.16528H92.572C88.0462 7.16528 86.2805 9.09654 86.2805 14.0499V18.5358C86.2805 23.4669 88.0462 25.387 92.572 25.387H102.948C103.406 25.387 103.943 25.092 103.943 24.2683V21.6525C103.943 20.8288 103.406 20.5338 102.948 20.5338H92.9073C91.2254 20.5338 90.8176 20.0997 90.8176 18.3187V18.1295H102.417V18.1239ZM90.8176 14.2391V13.9553C90.8176 12.1743 91.2254 11.7402 92.9073 11.7402H98.9529C99.5676 11.7402 99.8637 11.7903 99.8637 12.9591V14.2391H90.8231H90.8176Z" fill="#181A1B"/>
<path d="M118.934 7.16528H112.023C107.497 7.16528 105.731 9.09654 105.731 14.0499V24.1459C105.731 25.0642 106.307 25.387 106.843 25.387H109.201C109.458 25.387 110.29 25.2979 110.29 24.1459V15.1074C110.29 12.614 110.754 12.2355 112.358 12.2355H118.761C120.292 12.2355 120.683 12.5194 120.683 15.1074V24.1459C120.683 25.2979 121.516 25.387 121.773 25.387H124.131C124.388 25.387 125.22 25.2979 125.22 24.1459V14.0499C125.22 9.09654 123.455 7.16528 118.934 7.16528Z" fill="#181A1B"/>
<path d="M152.968 0.897705H150.207C148.403 0.897705 147.699 1.52662 146.944 3.81407L141.603 19.765H141.58L136.244 3.81964C135.484 1.52662 134.78 0.897705 132.953 0.897705H130.143C127.757 0.897705 127.288 2.37258 127.288 4.92719V24.095C127.288 25.0468 127.88 25.3863 128.439 25.3863H131.07C131.333 25.3863 132.199 25.2916 132.199 24.095V7.67658L137.099 21.7408C137.954 24.1563 138.781 25.3863 140.927 25.3863H142.167C144.313 25.3863 145.14 24.1563 145.995 21.7408L150.895 7.67102V24.095C150.895 25.2916 151.755 25.3863 152.023 25.3863H154.655C155.214 25.3863 155.806 25.0468 155.806 24.095V4.92719C155.806 2.89018 155.588 0.897705 152.979 0.897705H152.968Z" fill="#181A1B"/>
<path d="M170.78 7.16528H163.969C159.443 7.16528 157.677 9.09654 157.677 14.0499V18.5358C157.677 23.4669 159.443 25.387 163.969 25.387H170.78C175.306 25.387 177.071 23.4669 177.071 18.5358V14.0499C177.071 9.09654 175.306 7.16528 170.78 7.16528ZM172.534 14.7957V17.7566C172.534 20.25 172.065 20.6284 170.445 20.6284H164.304C162.706 20.6284 162.237 20.25 162.237 17.7566V14.7957C162.237 12.3079 162.678 11.9572 164.304 11.9572H170.445C172.087 11.9572 172.534 12.3134 172.534 14.7957Z" fill="#181A1B"/>
<path d="M191.924 7.16528H185.012C180.486 7.16528 178.726 9.09654 178.726 14.0499V24.1459C178.726 25.0642 179.301 25.387 179.838 25.387H182.196C182.453 25.387 183.285 25.2979 183.285 24.1459V15.1074C183.285 12.614 183.749 12.2355 185.353 12.2355H191.756C193.287 12.2355 193.678 12.5194 193.678 15.1074V24.1459C193.678 25.2979 194.511 25.387 194.768 25.387H197.126C197.383 25.387 198.215 25.2979 198.215 24.1459V14.0499C198.215 9.09654 196.449 7.16528 191.924 7.16528Z" fill="#181A1B"/>
<path d="M212.893 7.16528H206.155C201.629 7.16528 199.863 9.10211 199.863 14.0777V17.3503C199.863 22.3259 201.629 24.2627 206.155 24.2627H214.648V24.5188C214.648 27.04 214.178 27.424 212.558 27.424H201.556C201.098 27.424 200.562 27.719 200.562 28.5427V31.1585C200.562 31.9822 201.098 32.2772 201.556 32.2772H212.893C217.419 32.2772 219.185 30.3404 219.185 25.3647V14.0221C219.185 9.09097 217.419 7.17085 212.893 7.17085V7.16528ZM206.49 19.6934C204.831 19.6934 204.423 19.2259 204.423 17.3225V14.3282C204.423 12.4192 204.831 11.9572 206.49 11.9572H212.558C214.257 11.9572 214.648 12.4192 214.648 14.4228V19.6934H206.49Z" fill="#181A1B"/>
<path d="M236.657 18.1239C238.389 18.1239 238.59 16.7937 238.59 15.7919V12.831C238.59 9.24124 237.819 7.16528 233.863 7.16528H226.812C222.286 7.16528 220.52 9.09654 220.52 14.0499V18.5358C220.52 23.4669 222.286 25.387 226.812 25.387H237.188C237.646 25.387 238.182 25.092 238.182 24.2683V21.6525C238.182 20.8288 237.646 20.5338 237.188 20.5338H227.147C225.465 20.5338 225.057 20.0997 225.057 18.3187V18.1295H236.657V18.1239ZM225.057 14.2391V13.9553C225.057 12.1743 225.465 11.7402 227.147 11.7402H233.193C233.807 11.7402 234.103 11.7903 234.103 12.9591V14.2391H225.063H225.057Z" fill="#181A1B"/>
<path d="M253.006 7.16528H246.262C241.736 7.16528 239.976 9.09654 239.976 14.0499V24.1459C239.976 25.0642 240.551 25.387 241.088 25.387H243.446C243.703 25.387 244.535 25.2979 244.535 24.1459V14.8903C244.535 12.3969 244.999 12.0185 246.602 12.0185H253.006C253.24 12.0185 254 11.9406 254 10.8998V8.28397C254 7.46026 253.464 7.16528 253.006 7.16528Z" fill="#181A1B"/>
</svg>
