<svg width="48" height="48" viewBox="0 0 48 48" fill="none" xmlns="http://www.w3.org/2000/svg">
<path d="M35.0524 5.44597C32.7234 5.44597 30.8154 7.26289 30.6491 9.572C29.8641 8.85466 28.8296 8.41482 27.6859 8.41482V17.3214C30.0149 17.3214 31.9228 15.5045 32.0891 13.1954C32.8741 13.9127 33.9087 14.3525 35.0524 14.3525V5.44597Z" fill="#5316D8"/>
<path d="M35.0524 17.3214V9.90187H34.9432C26.6565 9.90187 19.9346 16.6721 19.9346 25.0184V42.554H27.2544C31.5589 42.554 35.0524 39.0354 35.0524 34.6999V20.2902H38C38 18.6514 36.6795 17.3214 35.0524 17.3214ZM31.6732 19.4158C31.1014 19.4158 30.6335 18.9446 30.6335 18.3686C30.6335 17.7926 31.1014 17.3214 31.6732 17.3214C32.2451 17.3214 32.713 17.7926 32.713 18.3686C32.713 18.9446 32.2451 19.4158 31.6732 19.4158Z" fill="#FF443B"/>
<path d="M19.9346 42.5488H17.798C13.4935 42.5488 10 39.0302 10 34.6947L10 20.285H10.0156C15.4898 20.285 19.9346 24.7619 19.9346 30.2754V42.554V42.5488Z" fill="url(#paint0_linear_344_659)"/>
<path d="M19.9346 42.554H17.798C13.4935 42.554 10 39.0354 10 34.6999V27.7098C15.4846 27.7098 19.9346 32.1971 19.9346 37.7159V42.554Z" fill="url(#paint1_linear_344_659)"/>
<defs>
<linearGradient id="paint0_linear_344_659" x1="14.9647" y1="42.554" x2="14.9647" y2="20.2902" gradientUnits="userSpaceOnUse">
<stop stop-color="white"/>
<stop offset="1" stop-color="#FF443B"/>
</linearGradient>
<linearGradient id="paint1_linear_344_659" x1="14.9647" y1="27.7098" x2="14.9647" y2="42.554" gradientUnits="userSpaceOnUse">
<stop stop-color="white"/>
<stop offset="1" stop-color="#FF443B"/>
</linearGradient>
</defs>
</svg>
