<svg width="300" height="43" viewBox="0 0 300 43" fill="none" xmlns="http://www.w3.org/2000/svg">
<g clip-path="url(#clip0_415_3959)">
<path d="M29.0303 0C26.3315 0 24.1206 2.1054 23.9279 4.78115C23.0182 3.94991 21.8194 3.44024 20.4941 3.44024V13.761C23.1929 13.761 25.4038 11.6556 25.5966 8.97982C26.5062 9.81106 27.705 10.3207 29.0303 10.3207V0Z" fill="#5316D8"/>
<path d="M29.0298 13.761V5.16339H28.9033C19.3009 5.16339 11.5117 13.0086 11.5117 22.6801V43H19.9936C24.9816 43 29.0298 38.9227 29.0298 33.8988V17.2012H32.4455C32.4455 15.3021 30.9153 13.761 29.0298 13.761ZM25.1141 16.1879C24.4515 16.1879 23.9093 15.6419 23.9093 14.9745C23.9093 14.307 24.4515 13.761 25.1141 13.761C25.7768 13.761 26.3189 14.307 26.3189 14.9745C26.3189 15.6419 25.7768 16.1879 25.1141 16.1879Z" fill="#FF443B"/>
<path d="M11.5117 42.9939H9.03582C4.04786 42.9939 -0.000329971 38.9166 -0.000329971 33.8928L-0.000329971 17.1951H0.0177422C6.36112 17.1951 11.5117 22.3828 11.5117 28.7718L11.5117 43V42.9939Z" fill="url(#paint0_linear_415_3959)"/>
<path d="M11.5117 43H9.03582C4.04786 43 -0.000329971 38.9227 -0.000329971 33.8988V25.7988C6.35509 25.7988 11.5117 30.9986 11.5117 37.3937V43Z" fill="url(#paint1_linear_415_3959)"/>
<path d="M47.2714 37.8366C45.8256 37.8366 44.4883 37.5818 43.2473 37.066C42.0063 36.5564 40.922 35.8404 39.9822 34.9242C39.0485 34.008 38.3196 32.9402 37.8015 31.7085C37.2835 30.4768 37.0244 29.1541 37.0244 27.7404C37.0244 26.3266 37.2835 24.9797 37.8015 23.754C38.3196 22.5345 39.0485 21.4666 39.9822 20.5504C40.916 19.6403 42.0063 18.9244 43.2473 18.4086C44.4883 17.899 45.8316 17.6381 47.2714 17.6381C48.3075 17.6381 49.3196 17.7897 50.3136 18.0992C51.3015 18.4086 52.2172 18.8455 53.0606 19.4158C53.9039 19.9862 54.6027 20.6597 55.1569 21.4424L51.9341 24.5185C51.3015 23.6448 50.6027 22.9896 49.8256 22.5588C49.0485 22.128 48.1991 21.9156 47.2714 21.9156C46.5124 21.9156 45.8136 22.0612 45.175 22.3464C44.5365 22.6376 43.9762 23.0442 43.4943 23.5781C43.0124 24.112 42.6389 24.7248 42.3678 25.4226C42.0967 26.1204 41.9642 26.8909 41.9642 27.7282C41.9642 28.5655 42.0967 29.3361 42.3678 30.0339C42.6389 30.7316 43.0124 31.3505 43.4943 31.8784C43.9762 32.4123 44.5365 32.8188 45.175 33.1101C45.8136 33.4013 46.5124 33.5408 47.2714 33.5408C48.1991 33.5408 49.0485 33.3224 49.8256 32.8856C50.6027 32.4487 51.3075 31.7995 51.9341 30.944L55.1569 34.0202C54.6027 34.7847 53.9039 35.4582 53.0606 36.0346C52.2172 36.611 51.3015 37.0539 50.3136 37.3633C49.3256 37.6728 48.3075 37.8245 47.2714 37.8245V37.8366Z" fill="#282828"/>
<path d="M57.5184 17.9596H62.2955V25.5682H70.1509V17.9596H74.928V37.5332H70.1509V29.7851H62.2955V37.5332H57.5184V17.9596Z" fill="#282828"/>
<path d="M78.8859 17.9596H83.663V37.5332H78.8859V17.9596Z" fill="#282828"/>
<path d="M96.9702 37.8366C95.5244 37.8366 94.1871 37.5818 92.9461 37.066C91.7051 36.5564 90.6208 35.8404 89.681 34.9242C88.7473 34.008 88.0184 32.9402 87.5003 31.7085C86.9822 30.4768 86.7232 29.1541 86.7232 27.7404C86.7232 26.3266 86.9822 24.9797 87.5003 23.754C88.0184 22.5345 88.7473 21.4666 89.681 20.5504C90.6148 19.6403 91.7051 18.9244 92.9461 18.4086C94.1871 17.899 95.5304 17.6381 96.9702 17.6381C98.0063 17.6381 99.0184 17.7897 100.012 18.0992C101 18.4086 101.916 18.8455 102.759 19.4158C103.603 19.9862 104.302 20.6597 104.856 21.4424L101.633 24.5185C101 23.6448 100.302 22.9896 99.5244 22.5588C98.7473 22.128 97.8979 21.9156 96.9702 21.9156C96.2112 21.9156 95.5124 22.0612 94.8738 22.3464C94.2353 22.6376 93.675 23.0442 93.1931 23.5781C92.7112 24.112 92.3377 24.7248 92.0666 25.4226C91.7955 26.1204 91.663 26.8909 91.663 27.7282C91.663 28.5655 91.7955 29.3361 92.0666 30.0339C92.3377 30.7316 92.7112 31.3505 93.1931 31.8784C93.675 32.4123 94.2353 32.8188 94.8738 33.1101C95.5124 33.4013 96.2112 33.5408 96.9702 33.5408C97.8979 33.5408 98.7473 33.3224 99.5244 32.8856C100.302 32.4487 101.006 31.7995 101.633 30.944L104.856 34.0202C104.302 34.7847 103.603 35.4582 102.759 36.0346C101.916 36.611 101 37.0539 100.012 37.3633C99.0244 37.6728 98.0063 37.8245 96.9702 37.8245V37.8366Z" fill="#282828"/>
<path d="M107.35 17.9596H112.127V26.4601L119.374 17.9596H125.067L116.573 27.1579L125.567 37.5332H119.32L112.127 28.6444V37.5332H107.35V17.9596Z" fill="#282828"/>
<path d="M127.585 37.5272V17.9596H142.271V21.9884H132.362V25.7078H139.356V29.6213H132.362V33.5105H142.386V37.5393H127.591L127.585 37.5272Z" fill="#282828"/>
<path d="M145.952 17.9596H150.452L159.085 29.8154L159 17.9596H163.5V37.5332H159.277L150.368 25.2891L150.452 37.5332H145.952V17.9596Z" fill="#282828"/>
<path d="M173.241 37.5272V17.9596H179.235L183.928 27.3581L188.591 17.9596H194.585V37.5332H190.085V24.2516L183.868 36.1377L177.621 24.1424V37.5393H173.235L173.241 37.5272Z" fill="#282828"/>
<path d="M207.856 37.8366C206.446 37.8366 205.133 37.5818 203.916 37.066C202.693 36.5564 201.627 35.8343 200.711 34.9121C199.796 33.9898 199.085 32.9159 198.573 31.6963C198.061 30.4768 197.808 29.1541 197.808 27.7404C197.808 26.3266 198.061 25.0039 198.573 23.7844C199.079 22.5648 199.796 21.4909 200.711 20.5686C201.627 19.6464 202.693 18.9304 203.916 18.4147C205.139 17.905 206.452 17.6441 207.856 17.6441C209.259 17.6441 210.579 17.899 211.796 18.4147C213.018 18.9244 214.085 19.6464 215 20.5686C215.916 21.4909 216.627 22.5648 217.139 23.7844C217.645 25.0039 217.904 26.3266 217.904 27.7404C217.904 29.1541 217.651 30.4768 217.139 31.6963C216.627 32.9159 215.916 33.9898 215 34.9121C214.085 35.8343 213.012 36.5503 211.796 37.066C210.579 37.5818 209.259 37.8366 207.856 37.8366ZM207.856 33.559C208.579 33.559 209.253 33.4134 209.88 33.1283C210.506 32.837 211.055 32.4305 211.518 31.8966C211.982 31.3626 212.344 30.7498 212.603 30.0521C212.862 29.3543 212.988 28.5837 212.988 27.7464C212.988 26.9091 212.862 26.1386 212.603 25.4408C212.344 24.743 211.982 24.1242 211.518 23.5963C211.055 23.0624 210.512 22.6558 209.88 22.3646C209.247 22.0734 208.573 21.9338 207.856 21.9338C207.139 21.9338 206.458 22.0794 205.832 22.3646C205.199 22.6558 204.657 23.0624 204.193 23.5963C203.729 24.1302 203.368 24.743 203.109 25.4408C202.85 26.1386 202.717 26.9091 202.717 27.7464C202.717 28.5837 202.844 29.3543 203.109 30.0521C203.368 30.7498 203.729 31.3687 204.193 31.8966C204.657 32.4305 205.199 32.837 205.832 33.1283C206.458 33.4195 207.139 33.559 207.856 33.559Z" fill="#282828"/>
<path d="M221.067 17.9596H225.567L234.199 29.8154L234.115 17.9596H238.615V37.5332H234.392L225.482 25.2891L225.567 37.5332H221.067V17.9596Z" fill="#282828"/>
<path d="M252.043 37.8366C250.597 37.8366 249.259 37.5818 248.03 37.066C246.802 36.5564 245.717 35.8343 244.783 34.9121C243.85 33.9898 243.121 32.9159 242.603 31.6963C242.085 30.4768 241.826 29.1541 241.826 27.7404C241.826 26.3266 242.085 25.0039 242.603 23.7844C243.121 22.5648 243.838 21.4909 244.753 20.5686C245.669 19.6464 246.741 18.9304 247.976 18.4147C249.205 17.905 250.536 17.6441 251.958 17.6441C253.585 17.6441 255.127 17.9778 256.579 18.6392C258.03 19.3005 259.211 20.2349 260.121 21.4484L256.759 24.3851C256.151 23.566 255.434 22.9471 254.621 22.5406C253.808 22.128 252.916 21.9277 251.958 21.9277C251.217 21.9277 250.53 22.0734 249.892 22.3585C249.253 22.6498 248.705 23.0563 248.241 23.5902C247.777 24.1242 247.416 24.737 247.157 25.4347C246.898 26.1325 246.765 26.9031 246.765 27.7404C246.765 28.5777 246.898 29.3604 247.169 30.0763C247.44 30.7923 247.814 31.4172 248.296 31.933C248.777 32.4548 249.338 32.8674 249.988 33.1647C250.639 33.462 251.35 33.6137 252.127 33.6137C252.904 33.6137 253.536 33.4741 254.139 33.195C254.741 32.9159 255.253 32.5276 255.681 32.0361C256.109 31.5447 256.404 30.9804 256.573 30.3433H251.717V26.2902H261.711V27.6615C261.711 29.1359 261.476 30.4889 261 31.7327C260.53 32.9705 259.856 34.0505 258.988 34.9606C258.121 35.8768 257.097 36.5806 255.922 37.0842C254.747 37.5878 253.458 37.8366 252.049 37.8366H252.043Z" fill="#282828"/>
<path d="M264.862 37.5272V17.9596H279.549V21.9884H269.639V25.7078H276.633V29.6213H269.639V33.5105H279.663V37.5393H264.868L264.862 37.5272Z" fill="#282828"/>
<path d="M283.229 37.5272V17.9596H292.669C294 17.9596 295.187 18.2266 296.223 18.7545C297.259 19.2884 298.067 20.0226 298.651 20.963C299.235 21.9035 299.524 22.9835 299.524 24.1909C299.524 25.3983 299.193 26.5451 298.536 27.5037C297.88 28.4624 297.006 29.1844 295.916 29.6698L299.994 37.5272H294.663L291.139 30.3433H288V37.5272H283.223H283.229ZM288.006 26.5693H292.229C292.97 26.5693 293.567 26.357 294.018 25.9262C294.47 25.4954 294.699 24.9372 294.699 24.2455C294.699 23.5538 294.47 22.9713 294.018 22.5527C293.567 22.134 292.97 21.9217 292.229 21.9217H288.006V26.5693Z" fill="#282828"/>
<path d="M240.537 8.06362L239.272 7.85126C238.916 7.79665 238.657 7.70564 238.507 7.58429C238.35 7.46294 238.272 7.29305 238.272 7.06856C238.272 6.90474 238.326 6.75305 238.434 6.61957C238.543 6.48608 238.693 6.38294 238.886 6.31013C239.079 6.23732 239.308 6.20091 239.573 6.20091C239.953 6.20091 240.326 6.26159 240.687 6.389C241.049 6.51642 241.398 6.70451 241.754 6.95328L242.428 6.01889C242.037 5.73979 241.603 5.52743 241.127 5.37574C240.651 5.22405 240.151 5.15125 239.627 5.15125C239.103 5.15125 238.633 5.23619 238.242 5.40608C237.85 5.57597 237.555 5.8126 237.344 6.11597C237.133 6.41934 237.031 6.77732 237.031 7.18384C237.031 7.64497 237.175 8.02722 237.471 8.32452C237.766 8.62182 238.199 8.81598 238.784 8.91306L240.121 9.13149C240.549 9.21037 240.85 9.31351 241.025 9.44093C241.199 9.56835 241.29 9.76251 241.29 10.0173C241.29 10.2054 241.23 10.3753 241.109 10.5209C240.989 10.6666 240.82 10.7818 240.597 10.8668C240.38 10.9517 240.127 10.9881 239.838 10.9881C239.453 10.9881 239.091 10.9153 238.742 10.7758C238.392 10.6302 237.989 10.3875 237.537 10.0477L236.832 10.9821C237.284 11.334 237.748 11.5949 238.23 11.7708C238.712 11.9468 239.224 12.0378 239.766 12.0378C240.308 12.0378 240.826 11.9468 241.248 11.7648C241.669 11.5827 242.001 11.334 242.236 11.0124C242.471 10.6908 242.591 10.3268 242.591 9.91419C242.591 9.41059 242.422 9.01014 242.085 8.7007C241.748 8.39126 241.236 8.1789 240.555 8.06969L240.537 8.06362Z" fill="url(#paint2_linear_415_3959)"/>
<path d="M247.459 9.09509L245.519 5.26653H243.82V11.9347H245.043V6.8562L247.44 11.4553L249.832 6.8926V11.9347H251.079V5.26653H249.38L247.459 9.09509Z" fill="url(#paint3_linear_415_3959)"/>
<path d="M254.663 5.26653L251.952 11.9347H253.326L254.007 10.1326H256.766L257.44 11.9347H258.862L256.181 5.26653H254.657H254.663ZM254.38 9.14969L255.398 6.48002L256.41 9.14969H254.38Z" fill="url(#paint4_linear_415_3959)"/>
<path d="M264.874 8.4398C265.121 8.11823 265.242 7.74204 265.242 7.29912C265.242 6.89867 265.145 6.54676 264.946 6.24339C264.748 5.94001 264.471 5.69732 264.121 5.52136C263.766 5.3454 263.362 5.26046 262.898 5.26046H259.742V11.9286H261.067V9.31958H262.573L263.886 11.9286H265.35L263.898 9.14363C264.308 8.99194 264.633 8.75531 264.88 8.43373L264.874 8.4398ZM263.603 8.03935C263.392 8.22137 263.121 8.31239 262.778 8.31239H261.067V6.32833H262.778C263.121 6.32833 263.398 6.41934 263.603 6.5953C263.808 6.77125 263.916 7.01395 263.916 7.31732C263.916 7.6207 263.814 7.85733 263.603 8.03328V8.03935Z" fill="url(#paint5_linear_415_3959)"/>
<path d="M265.928 6.35867H268.224V11.9347H269.537V6.35867H271.832V5.26653H265.928V6.35867Z" fill="url(#paint6_linear_415_3959)"/>
<path d="M279.398 5.53349C279.043 5.35754 278.633 5.26653 278.157 5.26653H274.983V11.9347H276.308V9.447H278.157C278.633 9.447 279.049 9.35599 279.398 9.18003C279.748 9.00407 280.025 8.75531 280.212 8.4398C280.404 8.12429 280.501 7.76631 280.501 7.36586C280.501 6.96541 280.404 6.58923 280.212 6.26766C280.019 5.95215 279.748 5.70338 279.398 5.52743V5.53349ZM278.856 8.13036C278.645 8.32452 278.338 8.4216 277.934 8.4216H276.302V6.3344H277.934C278.338 6.3344 278.645 6.43148 278.856 6.61957C279.067 6.80766 279.169 7.06249 279.169 7.37193C279.169 7.68137 279.061 7.9362 278.856 8.13036Z" fill="url(#paint7_linear_415_3959)"/>
<path d="M282.928 5.26653H281.603V11.9347H286.549V10.8364H282.928V5.26653Z" fill="url(#paint8_linear_415_3959)"/>
<path d="M291.959 9.06475C291.959 9.43486 291.892 9.75644 291.76 10.0295C291.627 10.3025 291.44 10.5149 291.193 10.6666C290.946 10.8182 290.657 10.8971 290.326 10.8971C289.995 10.8971 289.706 10.8182 289.459 10.6666C289.212 10.5149 289.025 10.3025 288.892 10.0295C288.76 9.75644 288.693 9.43486 288.693 9.06475V5.26046H287.368V9.06475C287.368 9.66543 287.489 10.1933 287.73 10.6362C287.971 11.0791 288.314 11.425 288.76 11.6677C289.206 11.9104 289.724 12.0317 290.32 12.0317C290.916 12.0317 291.453 11.9104 291.892 11.6677C292.332 11.425 292.675 11.0852 292.916 10.6362C293.157 10.1933 293.278 9.66543 293.278 9.06475V5.26046H291.965V9.06475H291.959Z" fill="url(#paint9_linear_415_3959)"/>
<path d="M299.495 8.7007C299.157 8.39126 298.645 8.1789 297.965 8.06969L296.699 7.85733C296.344 7.80272 296.085 7.71171 295.934 7.59036C295.778 7.46901 295.699 7.29912 295.699 7.07463C295.699 6.9108 295.754 6.75912 295.862 6.62563C295.971 6.49215 296.121 6.389 296.314 6.3162C296.507 6.24339 296.736 6.20698 297.001 6.20698C297.38 6.20698 297.754 6.26766 298.115 6.39507C298.477 6.52249 298.826 6.71058 299.181 6.95934L299.856 6.02496C299.465 5.74586 299.031 5.53349 298.555 5.38181C298.079 5.23012 297.579 5.15731 297.055 5.15731C296.531 5.15731 296.061 5.24226 295.669 5.41215C295.278 5.58203 294.983 5.81866 294.772 6.12204C294.561 6.42541 294.459 6.78339 294.459 7.18991C294.459 7.65103 294.603 8.03328 294.898 8.33059C295.193 8.62789 295.627 8.82205 296.212 8.91913L297.549 9.13756C297.977 9.21643 298.278 9.31958 298.453 9.447C298.627 9.57441 298.718 9.76857 298.718 10.0234C298.718 10.2115 298.657 10.3814 298.537 10.527C298.416 10.6726 298.248 10.7879 298.025 10.8728C297.808 10.9578 297.555 10.9942 297.266 10.9942C296.88 10.9942 296.519 10.9214 296.169 10.7818C295.82 10.6362 295.416 10.3935 294.965 10.0537L294.26 10.9881C294.712 11.34 295.175 11.6009 295.657 11.7769C296.139 11.9529 296.651 12.0439 297.193 12.0439C297.736 12.0439 298.254 11.9529 298.675 11.7708C299.097 11.5888 299.428 11.34 299.663 11.0185C299.898 10.6969 300.019 10.3328 300.019 9.92026C300.019 9.41666 299.85 9.01621 299.513 8.70677L299.495 8.7007Z" fill="url(#paint10_linear_415_3959)"/>
</g>
<defs>
<linearGradient id="paint0_linear_415_3959" x1="5.75268" y1="43" x2="5.75268" y2="17.2012" gradientUnits="userSpaceOnUse">
<stop stop-color="white"/>
<stop offset="1" stop-color="#FF443B"/>
</linearGradient>
<linearGradient id="paint1_linear_415_3959" x1="5.75268" y1="25.7988" x2="5.75268" y2="43" gradientUnits="userSpaceOnUse">
<stop stop-color="white"/>
<stop offset="1" stop-color="#FF443B"/>
</linearGradient>
<linearGradient id="paint2_linear_415_3959" x1="223.811" y1="8.15728" x2="550.047" y2="396.588" gradientUnits="userSpaceOnUse">
<stop stop-color="#BCBEC0"/>
<stop offset="1" stop-color="#808285"/>
</linearGradient>
<linearGradient id="paint3_linear_415_3959" x1="166.461" y1="7.26482" x2="507.169" y2="318.893" gradientUnits="userSpaceOnUse">
<stop stop-color="#BCBEC0"/>
<stop offset="1" stop-color="#808285"/>
</linearGradient>
<linearGradient id="paint4_linear_415_3959" x1="89.2494" y1="6.51848" x2="431.042" y2="334.947" gradientUnits="userSpaceOnUse">
<stop stop-color="#BCBEC0"/>
<stop offset="1" stop-color="#808285"/>
</linearGradient>
<linearGradient id="paint5_linear_415_3959" x1="-31.7286" y1="5.69688" x2="305.461" y2="404.908" gradientUnits="userSpaceOnUse">
<stop stop-color="#BCBEC0"/>
<stop offset="1" stop-color="#808285"/>
</linearGradient>
<linearGradient id="paint6_linear_415_3959" x1="-83.4216" y1="4.7185" x2="255.949" y2="386.718" gradientUnits="userSpaceOnUse">
<stop stop-color="#BCBEC0"/>
<stop offset="1" stop-color="#808285"/>
</linearGradient>
<linearGradient id="paint7_linear_415_3959" x1="-208.579" y1="3.97216" x2="127.35" y2="408.518" gradientUnits="userSpaceOnUse">
<stop stop-color="#BCBEC0"/>
<stop offset="1" stop-color="#808285"/>
</linearGradient>
<linearGradient id="paint8_linear_415_3959" x1="-343.855" y1="3.34499" x2="-16.1685" y2="443.285" gradientUnits="userSpaceOnUse">
<stop stop-color="#BCBEC0"/>
<stop offset="1" stop-color="#808285"/>
</linearGradient>
<linearGradient id="paint9_linear_415_3959" x1="-309.691" y1="2.37814" x2="23.9716" y2="383.342" gradientUnits="userSpaceOnUse">
<stop stop-color="#BCBEC0"/>
<stop offset="1" stop-color="#808285"/>
</linearGradient>
<linearGradient id="paint10_linear_415_3959" x1="236.326" y1="1.8991" x2="307.368" y2="9.61596" gradientUnits="userSpaceOnUse">
<stop stop-color="#BCBEC0"/>
<stop offset="1" stop-color="#808285"/>
</linearGradient>
<clipPath id="clip0_415_3959">
<rect width="300" height="43" fill="white"/>
</clipPath>
</defs>
</svg>
