<svg width="30" height="30" viewBox="0 0 30 30" fill="none" xmlns="http://www.w3.org/2000/svg">
<rect width="30" height="30" fill="white"/>
<path d="M13.3244 15.6691C13.0051 15.6691 12.7465 15.4105 12.7465 15.0912V9.57863C12.7465 9.25933 13.0051 9.00072 13.3244 9.00072C13.6437 9.00072 13.9023 9.25933 13.9023 9.57863V15.0912C13.9023 15.4105 13.6437 15.6691 13.3244 15.6691Z" fill="#040000"/>
<path d="M26.373 15.6691C26.0537 15.6691 25.795 15.4105 25.795 15.0912V15.0898C25.795 14.7705 26.0537 14.5118 26.373 14.5118C26.6923 14.5118 26.9509 14.7705 26.9509 15.0898V15.0912C26.9509 15.4105 26.6923 15.6691 26.373 15.6691Z" fill="#040000"/>
<path d="M24.1112 15.6684C23.7919 15.6684 23.5332 15.4098 23.5332 15.0905V9.57791C23.5332 9.25862 23.7919 9 24.1112 9C24.4305 9 24.6891 9.25862 24.6891 9.57791V15.0905C24.6891 15.4098 24.4305 15.6684 24.1112 15.6684Z" fill="#040000"/>
<path d="M15.5869 15.6691C15.2676 15.6691 15.009 15.4105 15.009 15.0912V12.081C15.009 11.7617 15.2676 11.5031 15.5869 11.5031C15.9062 11.5031 16.1649 11.7617 16.1649 12.081V15.0912C16.1649 15.4105 15.9062 15.6691 15.5869 15.6691Z" fill="#040000"/>
<path d="M13.742 14.7683L10.0339 9.26007C10.0224 9.24273 10.0094 9.22539 9.99637 9.2095C9.99492 9.20806 9.9942 9.20733 9.99275 9.20589C9.98192 9.19289 9.97036 9.18061 9.95808 9.16832C9.9523 9.16255 9.94652 9.15749 9.94074 9.15243C9.9328 9.14521 9.92485 9.13798 9.9169 9.13076C9.90968 9.12498 9.90245 9.11992 9.89595 9.11487C9.88801 9.10909 9.88006 9.10259 9.87211 9.09753C9.86561 9.0932 9.85839 9.08958 9.85189 9.08525C9.8425 9.07947 9.83311 9.07369 9.82371 9.06863C9.81794 9.06574 9.81216 9.06286 9.80638 9.06069C9.79482 9.05491 9.78398 9.04985 9.77242 9.0448C9.76809 9.04263 9.76303 9.04118 9.7587 9.03974C9.7457 9.03468 9.73269 9.02963 9.71897 9.02601C9.71463 9.02457 9.71102 9.02385 9.70669 9.02312C9.69296 9.01951 9.67924 9.0159 9.66479 9.01301C9.65901 9.01157 9.65323 9.01157 9.64745 9.01012C9.63517 9.00795 9.62289 9.00579 9.60989 9.00434C9.5716 9.00073 9.53331 9.00073 9.49503 9.00434C9.49069 9.00434 9.48636 9.00579 9.4813 9.00651C9.46685 9.00795 9.45241 9.01012 9.43868 9.01301C9.43146 9.01446 9.42495 9.01662 9.41845 9.01807C9.40689 9.02096 9.39534 9.02312 9.38378 9.02674C9.37583 9.02963 9.36716 9.03251 9.35922 9.0354C9.34983 9.03902 9.33971 9.04191 9.33032 9.04624C9.32093 9.05057 9.31154 9.05491 9.30215 9.05924C9.2942 9.06286 9.28626 9.06647 9.27903 9.0708C9.26747 9.0773 9.25591 9.08453 9.24508 9.09103C9.24002 9.09392 9.23497 9.09681 9.22991 9.0997C9.21474 9.10981 9.19957 9.12137 9.18584 9.13293C9.17212 9.14449 9.15839 9.15677 9.14611 9.16905C9.14611 9.16905 9.14539 9.16977 9.14467 9.17049C9.13239 9.18277 9.12083 9.19578 9.10927 9.2095C9.10927 9.21022 9.10782 9.21095 9.1071 9.21167C9.09699 9.22467 9.08688 9.23767 9.07748 9.25068C9.07604 9.25284 9.07459 9.25429 9.07315 9.25646C9.0652 9.26874 9.05726 9.28174 9.05003 9.29474C9.04787 9.29835 9.0457 9.30197 9.04353 9.30558C9.03703 9.31714 9.03197 9.32942 9.02619 9.3417C9.02403 9.34676 9.02114 9.35181 9.01897 9.35687C9.01391 9.36843 9.0103 9.37999 9.00597 9.39154C9.0038 9.39732 9.00163 9.40382 8.99947 9.4096C8.99585 9.42261 8.99224 9.43561 8.98935 9.44861C8.98791 9.45367 8.98646 9.45873 8.98574 9.46378C8.97779 9.50351 8.97418 9.54325 8.97418 9.5837V15.0905C8.97418 15.4098 9.2328 15.6684 9.5521 15.6684C9.87139 15.6684 10.13 15.4098 10.13 15.0905V11.472L12.7826 15.4134C12.8939 15.5788 13.0766 15.6684 13.2623 15.6684C13.3735 15.6684 13.4855 15.6366 13.5845 15.5702C13.8496 15.3917 13.9197 15.0327 13.7412 14.7683H13.742Z" fill="#040000"/>
<path d="M5.43301 15.6691C4.09153 15.6691 3 14.5776 3 13.2354V9.5808C3 9.2615 3.25862 9.00288 3.57791 9.00288C3.89721 9.00288 4.15583 9.2615 4.15583 9.5808V13.2361C4.15583 13.9404 4.72868 14.5133 5.43301 14.5133C6.13734 14.5133 6.7102 13.9404 6.7102 13.2361V9.5808C6.7102 9.2615 6.96954 9.00288 7.28811 9.00288C7.60669 9.00288 7.86603 9.2615 7.86603 9.5808V13.2361C7.86603 14.5776 6.77449 15.6691 5.43301 15.6691Z" fill="#040000"/>
<path d="M22.6794 14.868L20.3764 9.35613C20.2991 9.1712 20.1366 9.04767 19.9538 9.01155C19.9473 9.01011 19.9408 9.00939 19.9343 9.00866C19.9227 9.0065 19.9105 9.00505 19.8989 9.00361C19.8895 9.00288 19.8801 9.00288 19.8707 9.00216C19.8613 9.00216 19.8527 9.00072 19.8433 9.00072C19.8324 9.00072 19.8216 9.00144 19.81 9.00216C19.8021 9.00216 19.7949 9.00216 19.7869 9.00361C19.7732 9.00505 19.7595 9.00722 19.7458 9.00939C19.7407 9.01011 19.7364 9.01083 19.7313 9.01155C19.5478 9.04767 19.386 9.17192 19.3087 9.35686L17.0216 14.8694C16.8995 15.1642 17.039 15.5022 17.3337 15.625C17.4059 15.6554 17.4811 15.6691 17.5547 15.6691C17.7816 15.6691 17.9968 15.5347 18.0886 15.3122L18.5415 14.2214H21.1559L21.6124 15.3137C21.7049 15.5355 21.9194 15.6691 22.1455 15.6691C22.2199 15.6691 22.2951 15.6547 22.368 15.6243C22.6628 15.5015 22.8015 15.1627 22.6787 14.868H22.6794ZM19.0219 13.0656L19.8454 11.0812L20.6748 13.0656H19.0226H19.0219Z" fill="#040000"/>
<path d="M16.1656 9.55842C16.162 9.52446 16.154 9.49268 16.1446 9.46089C16.1432 9.45584 16.1432 9.45006 16.141 9.44572L16.1345 9.42622C16.1316 9.41899 16.1287 9.41321 16.1258 9.40599C16.1201 9.39082 16.1143 9.37565 16.1063 9.3612C16.0998 9.34748 16.0919 9.33447 16.0847 9.32147C16.0702 9.29835 16.0543 9.27741 16.0392 9.25862L16.0262 9.24273C16.011 9.22539 15.9965 9.21167 15.9843 9.19939C15.9763 9.19216 15.9684 9.18494 15.9604 9.17844C15.9546 9.1741 15.9496 9.16977 15.9445 9.16471C15.9424 9.16327 15.9402 9.1611 15.9387 9.15966C15.8412 9.08669 15.7213 9.04118 15.5905 9.04118C15.2691 9.04118 15.0083 9.30197 15.0083 9.62343C15.0083 9.94489 15.2691 10.2057 15.5905 10.2057C15.6115 10.2057 15.6317 10.2013 15.6527 10.1992C15.6476 10.2086 15.6411 10.2187 15.6353 10.2281C15.6353 10.2281 15.5364 10.4202 15.3074 10.5568C15.2922 10.5669 15.2785 10.5792 15.2626 10.5885C15.1362 10.6622 15.0834 10.7114 15.1044 10.7366C15.1246 10.7619 15.1983 10.7504 15.324 10.702C15.5927 10.5972 15.8015 10.4535 15.9496 10.2714C16.0363 10.1652 16.0969 10.0576 16.1345 9.94778C16.1345 9.94634 16.1352 9.94562 16.136 9.94417C16.1779 9.77586 16.1786 9.64727 16.1677 9.55769L16.1656 9.55842Z" fill="#FDD200"/>
<path d="M26.7009 17.1312C26.5355 17.1312 26.4019 17.2656 26.4019 17.4303V20.5619C26.4019 20.7157 26.5355 20.84 26.7009 20.84C26.8664 20.84 27 20.7157 27 20.5619V17.4303C27 17.2649 26.8664 17.1312 26.7009 17.1312Z" fill="#FDD200"/>
<path d="M23.1468 18.5442H22.8484C22.8484 18.5442 22.8441 18.5435 22.8441 18.5428C22.8412 18.5348 22.8412 18.5262 22.8397 18.5175V17.4303C22.8397 17.2649 22.7061 17.1312 22.5407 17.1312C22.3752 17.1312 22.2416 17.2656 22.2416 17.4303V20.5619C22.2416 20.7157 22.3752 20.84 22.5407 20.84C22.7061 20.84 22.8397 20.7157 22.8397 20.5619V19.1453H22.8441C22.8441 19.1453 22.8484 19.1431 22.8499 19.1424C22.8506 19.1424 22.852 19.1409 22.8528 19.1409C22.9012 19.138 22.9611 19.138 23.0312 19.1409C23.081 19.1431 23.1236 19.1424 23.1627 19.1395C23.193 19.138 23.2212 19.1323 23.2486 19.1222C23.258 19.1185 23.2667 19.1156 23.2761 19.1106C23.2985 19.0998 23.3187 19.0853 23.3375 19.0687C23.4025 19.0138 23.4458 18.9343 23.4458 18.8426C23.4458 18.6772 23.3115 18.5435 23.1468 18.5435V18.5442Z" fill="#FDD200"/>
<path d="M18.7135 17.1312C18.548 17.1312 18.4144 17.2656 18.4144 17.4303V20.5619C18.4144 20.7157 18.548 20.84 18.7135 20.84C18.8789 20.84 19.0125 20.7157 19.0125 20.5619V17.4303C19.0125 17.2649 18.8789 17.1312 18.7135 17.1312Z" fill="#FDD200"/>
<path d="M15.0777 19.479H12.2379C12.0834 19.479 11.9577 19.604 11.9577 19.7593C11.9577 19.9146 12.0834 20.0396 12.2379 20.0396H12.662V20.6652C12.662 20.8089 12.7877 20.926 12.9423 20.926C13.0969 20.926 13.2226 20.8089 13.2226 20.6652V20.0396H14.0728V20.6652C14.0728 20.8089 14.1985 20.926 14.3531 20.926C14.5077 20.926 14.6334 20.8089 14.6334 20.6652V20.0396H15.0777C15.2214 20.0396 15.3384 19.9139 15.3384 19.7593C15.3384 19.6047 15.2214 19.479 15.0777 19.479Z" fill="#FDD200"/>
<path d="M17.8162 19.8785H16.7059C16.6539 19.8785 16.6113 19.8366 16.6113 19.7846L16.6062 17.5661C16.5918 17.4007 16.4567 17.2699 16.2877 17.2699C16.1186 17.2699 15.9843 17.4007 15.9691 17.5661L15.9633 20.2021C15.9633 20.3813 16.1085 20.5257 16.2869 20.5257H17.8155C17.9947 20.5257 18.1391 20.3805 18.1391 20.2021C18.1391 20.0237 17.9939 19.8785 17.8155 19.8785H17.8162Z" fill="#FDD200"/>
<path d="M20.7166 17.2714C20.2189 17.2714 19.8151 17.6752 19.8151 18.1729V19.8677C19.8151 20.3654 20.2189 20.7692 20.7166 20.7692C21.2144 20.7692 21.6182 20.3654 21.6182 19.8677V18.1729C21.6182 17.6752 21.2144 17.2714 20.7166 17.2714ZM21.0923 19.7376C21.0923 19.9449 20.924 20.1133 20.7166 20.1133C20.5093 20.1133 20.341 19.9449 20.341 19.7376V18.3022C20.341 18.0949 20.5093 17.9266 20.7166 17.9266C20.924 17.9266 21.0923 18.0949 21.0923 18.3022V19.7376Z" fill="#FDD200"/>
<path d="M24.7758 17.2714C24.278 17.2714 23.8742 17.6752 23.8742 18.1729V19.8677C23.8742 20.3654 24.278 20.7692 24.7758 20.7692C25.2735 20.7692 25.6773 20.3654 25.6773 19.8677V18.1729C25.6773 17.6752 25.2735 17.2714 24.7758 17.2714ZM25.1514 19.7376C25.1514 19.9449 24.9831 20.1133 24.7758 20.1133C24.5684 20.1133 24.4001 19.9449 24.4001 19.7376V18.3022C24.4001 18.0949 24.5684 17.9266 24.7758 17.9266C24.9831 17.9266 25.1514 18.0949 25.1514 18.3022V19.7376Z" fill="#FDD200"/>
<path d="M14.1241 17.1139H13.2182C12.6519 17.1139 12.1924 17.5733 12.1924 18.1404C12.1924 18.7075 12.6519 19.1669 13.2189 19.1669H14.1248C14.6919 19.1669 15.1513 18.7075 15.1513 18.1404C15.1513 17.5733 14.6905 17.1139 14.1241 17.1139ZM14.494 18.1628C14.494 18.4048 14.2982 18.6006 14.0562 18.6006H13.2854C13.0434 18.6006 12.8476 18.4048 12.8476 18.1628V18.1173C12.8476 17.8753 13.0434 17.6795 13.2854 17.6795H14.0562C14.2982 17.6795 14.494 17.8753 14.494 18.1173V18.1628Z" fill="#FDD200"/>
</svg>
