<svg width="161" height="18" viewBox="0 0 161 18" fill="none" xmlns="http://www.w3.org/2000/svg">
<path d="M57.3418 0.651062C57.711 0.651062 57.9088 0.818654 57.9088 1.1764V3.44372C57.9088 3.80146 57.7126 3.96906 57.3418 3.96906H46.6553C44.1196 3.96906 43.3797 4.70872 43.3797 7.21454V7.69153H57.2171C57.5863 7.69153 57.7592 7.85912 57.7592 8.21686V10.1023C57.7592 10.46 57.5863 10.6276 57.2171 10.6276H43.3797V16.8317C43.3797 17.1895 43.2067 17.3571 42.8376 17.3571H40.1789C39.8097 17.3571 39.6119 17.1895 39.6119 16.8317V6.95026C39.6119 2.36888 41.5323 0.651062 46.5057 0.651062H57.3418Z" fill="#007CDB"/>
<path d="M68.7251 7.68673C72.0456 7.68673 73.1147 8.7229 73.1147 11.3157V15.9261C73.1147 17.088 72.8204 17.3555 71.7496 17.3555H63.2679C61.0913 17.3555 60.4279 16.5868 60.4279 14.8174V14.1036C60.4279 12.6017 61.0913 11.7621 63.2679 11.7621H70.4776V11.4221C70.4776 10.278 70.0719 9.83158 68.4673 9.83158H60.7571C60.536 9.83158 60.4246 9.74295 60.4246 9.50929V8.00741C60.4246 7.79309 60.536 7.68512 60.7571 7.68512H68.7251V7.68673ZM70.4776 14.782V13.3542H64.0244C63.2679 13.3542 62.9919 13.6588 62.9919 14.2293V14.4597C62.9919 15.1027 63.2679 15.3895 64.0244 15.3895H69.9422C70.3296 15.3895 70.4776 15.2284 70.4776 14.782Z" fill="#007CDB"/>
<path d="M85.336 7.68665C85.5571 7.68665 85.6685 7.793 85.6685 8.00894V9.51082C85.6685 9.74287 85.5588 9.83311 85.336 9.83311H80.4292C78.8429 9.83311 78.4189 10.2972 78.4189 11.7991V16.9622C78.4189 17.2297 78.2892 17.3554 78.0132 17.3554H76.2058C75.9298 17.3554 75.7818 17.2297 75.7818 16.9622V11.3157C75.7818 8.72281 76.8509 7.68665 80.1715 7.68665H85.336Z" fill="#007CDB"/>
<path d="M102.152 7.68673C105.472 7.68673 106.523 8.7229 106.523 11.3157V16.9623C106.523 17.2298 106.393 17.3555 106.117 17.3555H104.31C104.034 17.3555 103.904 17.2298 103.904 16.9623V11.9216C103.904 10.4198 103.61 9.95567 102.005 9.95567H98.7595V16.9623C98.7595 17.2298 98.6116 17.3555 98.3355 17.3555H96.5281C96.2521 17.3555 96.1224 17.2298 96.1224 16.9623V9.95567H92.9865C91.4002 9.95567 90.9762 10.4198 90.9762 11.9216V16.9607C90.9762 17.2282 90.8465 17.3539 90.5705 17.3539H88.7631C88.487 17.3539 88.3391 17.2282 88.3391 16.9607V11.3141C88.3391 8.72129 89.4082 7.68512 92.7287 7.68512H102.152V7.68673Z" fill="#007CDB"/>
<path d="M132.294 16.8011L124.145 2.45907C123.332 1.0281 122.568 0.646179 121.313 0.646179H119.86C118.826 0.646179 118.087 1.0281 117.274 2.45907L109.198 16.8011C109.025 17.1105 109.1 17.3506 109.519 17.3506H112.72C113.016 17.3506 113.164 17.2797 113.287 17.0396L114.986 13.9617L120.404 4.20106C120.477 4.08181 120.552 4.03347 120.675 4.03347H120.823C120.946 4.03347 121.02 4.08181 121.094 4.20106L128.308 17.0396C128.431 17.2781 128.554 17.3506 128.875 17.3506H132.003C132.392 17.349 132.465 17.1105 132.294 16.8011Z" fill="#007CDB"/>
<path d="M137.924 7.00331C138.293 7.00331 138.466 7.19346 138.466 7.55282L138.463 16.8284C138.463 17.1861 138.292 17.3537 137.921 17.3537H135.508C135.139 17.3537 134.966 17.1861 134.966 16.8284L134.969 7.55282C134.969 7.19507 135.142 7.00331 135.511 7.00331H137.924Z" fill="#007CDB"/>
<path d="M137.936 0.651062H135.523C135.154 0.651062 134.956 0.818654 134.956 1.1764V3.44372C134.956 3.78535 135.141 3.96906 135.476 3.98517C135.493 3.98678 135.505 3.99162 135.523 3.99162H136.469H136.812C137.001 4.16565 137.121 4.40898 137.121 4.68132C137.121 5.53701 136.396 5.44515 136.396 5.59502C136.396 5.73522 137.485 5.79162 138.052 5.01973C138.42 4.52018 138.478 4.09153 138.478 3.46306C138.478 3.45661 138.478 3.45178 138.478 3.44533V3.44372V2.78625V2.72179V1.17801C138.478 0.818654 138.305 0.651062 137.936 0.651062Z" fill="#007CDB"/>
<path d="M153.441 0.652649C158.802 0.652649 161.001 2.73627 161.001 7.40466V10.6002C161.001 15.2686 158.803 17.3522 153.441 17.3522H141.878C141.384 17.3522 141.137 17.1121 141.137 16.6335V1.37136C141.137 0.892756 141.384 0.652649 141.878 0.652649H153.441ZM144.918 13.7135C144.918 13.9295 145.016 14.0245 145.239 14.0245H153.343C156.258 14.0245 157.222 13.1141 157.222 10.2892V7.71568C157.222 4.89079 156.258 3.98031 153.343 3.98031H145.239C145.016 3.98031 144.918 4.07539 144.918 4.3155V13.7135Z" fill="#007CDB"/>
<path d="M6.96363 18V13.5008C6.96363 13.5008 7.17147 9.84441 11.8139 9.84441C17.6701 9.84441 19.9498 14.7481 22.2543 15.7585C23.1572 16.2016 24.1515 16.4449 25.1625 16.4723C27.3989 16.4723 32.625 14.4645 32.625 4.53948C32.625 4.53948 29.765 7.79463 26.3248 7.79463C22.8845 7.79463 21.8885 5.94628 21.8885 5.94628C21.8885 5.94628 24.9147 5.74646 24.9147 0C24.9147 0 22.966 2.28988 21.2667 2.45103C19.5657 2.61218 14.4676 1.9692 10.5718 5.46285C10.3207 4.79248 10.2775 4.06571 10.4471 3.37278C10.4471 3.37278 5.76312 6.62793 5.76312 13.6587C3.65141 13.4718 1.558 14.1599 0 15.5506C0 15.5506 4.06378 15.7504 6.96363 18Z" fill="#007CDB"/>
</svg>
