<svg width="156" height="156" viewBox="0 0 156 156" fill="none" xmlns="http://www.w3.org/2000/svg">
<g clip-path="url(#clip0_15330_546)">
<path d="M38.6318 107.909L35.8711 97.6059L47.269 94.5519C47.8025 94.4089 48.3508 94.7255 48.4938 95.259L50.7369 103.63C50.8798 104.164 50.5632 104.712 50.0298 104.855L38.6318 107.909Z" fill="url(#paint0_linear_15330_546)"/>
<rect x="25.2725" y="82.7773" width="12.8" height="49.0667" rx="6.4" transform="rotate(-15 25.2725 82.7773)" fill="url(#paint1_linear_15330_546)"/>
<path d="M84.3311 55.9096C87.0636 55.1774 89.9752 55.5608 92.4251 56.9752C94.8751 58.3897 96.6628 60.7195 97.395 63.4521C98.1272 66.1847 97.7439 69.0962 96.3294 71.5462C94.9149 73.9961 92.5851 75.7839 89.8525 76.5161L87.0918 66.2128L84.3311 55.9096Z" fill="url(#paint2_linear_15330_546)"/>
<path d="M19.0473 100.87C10.8196 102.532 2.71734 97.511 0.544811 89.403C-1.62771 81.295 2.87842 72.8953 10.8351 70.2212L20.2756 67.0485C26.1125 65.0868 31.5628 62.1229 36.382 58.2898L70.9712 30.7777L90.8485 104.961L47.1373 98.4292C41.0472 97.5192 34.8451 97.6776 28.8094 98.8972L19.0473 100.87Z" fill="url(#paint3_linear_15330_546)"/>
<path d="M29.553 98.7533C29.3049 98.7997 29.0562 98.8466 28.8085 98.8967L19.0469 100.87C18.3435 101.012 17.6407 101.1 16.9428 101.146L8.87354 71.0318C9.50121 70.7233 10.1547 70.4501 10.8348 70.2215L20.275 67.0493C20.5146 66.9688 20.7528 66.8831 20.991 66.7992L29.553 98.7533Z" fill="url(#paint4_linear_15330_546)"/>
<rect x="91.9526" y="109.082" width="85.3333" height="6.4" rx="3.2" transform="rotate(-105 91.9526 109.082)" fill="url(#paint5_linear_15330_546)"/>
<path d="M145.955 79.9385C145.181 81.5994 143.207 82.318 141.546 81.5435C139.885 80.769 139.166 78.7947 139.941 77.1338C144.032 68.3603 144.47 58.321 141.159 49.2243C137.848 40.1276 131.059 32.7186 122.286 28.6275C120.625 27.853 119.906 25.8787 120.681 24.2178C121.455 22.5569 123.43 21.8383 125.09 22.6128C135.459 27.4478 143.483 36.2034 147.396 46.9541C151.309 57.7047 150.79 69.5698 145.955 79.9385Z" fill="#D7D8DB"/>
<path d="M127.586 79.4043C126.811 81.0652 124.837 81.7838 123.176 81.0093C121.515 80.2348 120.797 78.2605 121.571 76.5996C124.77 69.7403 125.113 61.8911 122.524 54.7791C119.936 47.6672 114.628 41.875 107.768 38.6765C106.107 37.902 105.389 35.9277 106.163 34.2668C106.938 32.6059 108.912 31.8873 110.573 32.6618C119.027 36.6042 125.569 43.7437 128.76 52.5096C131.95 61.2755 131.528 70.9498 127.586 79.4043Z" fill="#D7D8DB"/>
<path d="M110.921 77.1469C110.147 78.8078 108.172 79.5264 106.511 78.7519C104.85 77.9774 104.132 76.0031 104.906 74.3422C106.915 70.0352 107.13 65.1068 105.504 60.6412C103.879 56.1755 100.546 52.5384 96.2394 50.53C94.5785 49.7555 93.8599 47.7813 94.6344 46.1203C95.4089 44.4594 97.3832 43.7409 99.0441 44.5154C104.946 47.2676 109.513 52.252 111.74 58.3716C113.967 64.4912 113.673 71.2447 110.921 77.1469Z" fill="#D7D8DB"/>
</g>
<defs>
<linearGradient id="paint0_linear_15330_546" x1="54.7669" y1="98.0643" x2="42.4031" y2="101.377" gradientUnits="userSpaceOnUse">
<stop stop-color="#55585E"/>
<stop offset="1" stop-color="#878B92"/>
</linearGradient>
<linearGradient id="paint1_linear_15330_546" x1="31.6725" y1="131.844" x2="31.6725" y2="82.7773" gradientUnits="userSpaceOnUse">
<stop stop-color="#94989E"/>
<stop offset="1" stop-color="#E4E5E7"/>
</linearGradient>
<linearGradient id="paint2_linear_15330_546" x1="76.7886" y1="68.9736" x2="97.395" y2="63.4521" gradientUnits="userSpaceOnUse">
<stop stop-color="#E4E5E7"/>
<stop offset="1" stop-color="#94989E"/>
</linearGradient>
<linearGradient id="paint3_linear_15330_546" x1="0.54494" y1="89.403" x2="96.7082" y2="63.6361" gradientUnits="userSpaceOnUse">
<stop stop-color="#FAA69E"/>
<stop offset="1" stop-color="#F43625"/>
</linearGradient>
<linearGradient id="paint4_linear_15330_546" x1="13.1846" y1="87.1205" x2="31.7303" y2="82.1511" gradientUnits="userSpaceOnUse">
<stop stop-color="#CACBCE"/>
<stop offset="1" stop-color="#F2F2F3"/>
</linearGradient>
<linearGradient id="paint5_linear_15330_546" x1="134.619" y1="109.082" x2="134.619" y2="116.193" gradientUnits="userSpaceOnUse">
<stop stop-color="#FAA69E"/>
<stop offset="1" stop-color="#F43625"/>
</linearGradient>
<clipPath id="clip0_15330_546">
<rect width="156" height="156" fill="white"/>
</clipPath>
</defs>
</svg>
