<svg width="16" height="16" viewBox="0 0 16 16" fill="none" xmlns="http://www.w3.org/2000/svg">
<path fill-rule="evenodd" clip-rule="evenodd" d="M7.99998 1.33337C11.6819 1.33337 14.6666 4.31814 14.6666 8.00004C14.6666 11.6819 11.6819 14.6667 7.99998 14.6667C4.31808 14.6667 1.33331 11.6819 1.33331 8.00004C1.33331 4.31814 4.31808 1.33337 7.99998 1.33337ZM7.99998 10C7.63179 10 7.33331 10.2985 7.33331 10.6667C7.33331 11.0349 7.63179 11.3334 7.99998 11.3334C8.36817 11.3334 8.66665 11.0349 8.66665 10.6667C8.66665 10.2985 8.36817 10 7.99998 10ZM7.99998 4.80017C7.70543 4.80017 7.46678 5.03882 7.46678 5.33337V8.66671C7.46678 8.96126 7.70543 9.19991 7.99998 9.19991C8.29453 9.19991 8.53318 8.96126 8.53318 8.66671V5.33337C8.53318 5.03882 8.29453 4.80017 7.99998 4.80017Z" fill="#DA1D0B"/>
</svg>
