<svg width="20" height="20" viewBox="0 0 20 20" fill="none" xmlns="http://www.w3.org/2000/svg">
<rect x="1" y="1" width="18" height="18" rx="3" stroke="#A8B3BD" stroke-width="2"/>
<path fill-rule="evenodd" clip-rule="evenodd" d="M10.5893 14.7558C10.2639 15.0812 9.73625 15.0812 9.41081 14.7558C9.08537 14.4304 9.08537 13.9027 9.41081 13.5773L12.1548 10.8332H5.83335C5.3731 10.8332 5 10.4601 5 9.9999C5 9.53966 5.3731 9.16656 5.83335 9.16656H12.1546L9.41081 6.42274C9.08537 6.0973 9.08537 5.56966 9.41081 5.24421C9.73625 4.91877 10.2639 4.91877 10.5893 5.24421L14.7463 9.4012C14.9028 9.55269 15 9.76494 15 9.9999C15 10.116 14.9762 10.2266 14.9333 10.3271C14.8927 10.4223 14.8336 10.5116 14.7559 10.5893L10.5893 14.7558Z" fill="#A8B3BD"/>
</svg>
