<svg width="16" height="16" viewBox="0 0 16 16" fill="none" xmlns="http://www.w3.org/2000/svg">
<path d="M11.7472 6.98363C12.0695 6.68145 12.0858 6.17518 11.7836 5.85285C11.4814 5.53052 10.9752 5.51419 10.6529 5.81637L6.93334 9.30342L5.34716 7.81637C5.02483 7.51419 4.51856 7.53052 4.21637 7.85285C3.91419 8.17518 3.93052 8.68145 4.25285 8.98363L6.38618 10.9836C6.69391 11.2721 7.17276 11.2721 7.48049 10.9836L11.7472 6.98363Z" fill="white"/>
<path fill-rule="evenodd" clip-rule="evenodd" d="M16 8C16 12.4183 12.4183 16 8 16C3.58172 16 0 12.4183 0 8C0 3.58172 3.58172 0 8 0C12.4183 0 16 3.58172 16 8ZM14.4 8C14.4 11.5346 11.5346 14.4 8 14.4C4.46538 14.4 1.6 11.5346 1.6 8C1.6 4.46538 4.46538 1.6 8 1.6C11.5346 1.6 14.4 4.46538 14.4 8Z" fill="white"/>
</svg>
