<svg width="24" height="24" viewBox="0 0 24 24" fill="none" preserveAspectRatio="xMinYMin meet" xmlns="http://www.w3.org/2000/svg">
<path class="loading-track" fill-rule="evenodd" clip-rule="evenodd" d="M12 0C5.37258 0 0 5.37258 0 12C0 18.6274 5.37258 24 12 24C18.6274 24 24 18.6274 24 12C24 5.37258 18.6274 0 12 0ZM12 2.4C6.69809 2.4 2.40002 6.69807 2.40002 12C2.40002 17.3019 6.69809 21.6 12 21.6C17.302 21.6 21.6 17.3019 21.6 12C21.6 6.69807 17.302 2.4 12 2.4Z" fill="black" fill-opacity="0.12"/>
<path class="loading-thumb" d="M12 -5.24537e-07C13.8937 -6.07314e-07 15.7606 0.448188 17.4479 1.30792C19.1352 2.16765 20.5951 3.41452 21.7082 4.94658C22.8213 6.47863 23.556 8.25238 23.8523 10.1228C24.1485 11.9932 23.9979 13.9072 23.4127 15.7082L21.1301 14.9666C21.5983 13.5257 21.7188 11.9946 21.4818 10.4982C21.2448 9.0019 20.657 7.58291 19.7666 6.35726C18.8761 5.13162 17.7082 4.13412 16.3583 3.44634C15.0085 2.75855 13.515 2.4 12 2.4L12 -5.24537e-07Z" fill="black"/>
</svg>
