<svg width="21" height="22" viewBox="0 0 21 22" fill="none" xmlns="http://www.w3.org/2000/svg">
<path d="M0.341709 19.5084C-0.113903 19.964 -0.113903 20.7027 0.341709 21.1583C0.79732 21.6139 1.53601 21.6139 1.99162 21.1583L10.5 12.6499L19.0084 21.1583C19.464 21.6139 20.2027 21.6139 20.6583 21.1583C21.1139 20.7027 21.1139 19.964 20.6583 19.5084L12.1499 11L20.6583 2.49162C21.1139 2.03601 21.1139 1.29732 20.6583 0.841708C20.2027 0.386097 19.464 0.386097 19.0084 0.841708L10.5 9.35009L1.99162 0.84171C1.53601 0.386098 0.79732 0.386098 0.341709 0.84171C-0.113903 1.29732 -0.113903 2.03601 0.341709 2.49163L8.85008 11L0.341709 19.5084Z" fill="#181A1B"/>
</svg>
