<svg width="16" height="16" viewBox="0 0 16 16" fill="none" xmlns="http://www.w3.org/2000/svg">
<path fill-rule="evenodd" clip-rule="evenodd" d="M9.33335 3.33333C9.33335 4.06971 8.7364 4.66667 8.00002 4.66667C7.26364 4.66667 6.66669 4.06971 6.66669 3.33333C6.66669 2.59695 7.26364 2 8.00002 2C8.7364 2 9.33335 2.59695 9.33335 3.33333ZM9.33335 8C9.33335 8.73638 8.7364 9.33333 8.00002 9.33333C7.26364 9.33333 6.66669 8.73638 6.66669 8C6.66669 7.26362 7.26364 6.66667 8.00002 6.66667C8.7364 6.66667 9.33335 7.26362 9.33335 8ZM8.00002 14C8.7364 14 9.33335 13.403 9.33335 12.6667C9.33335 11.9303 8.7364 11.3333 8.00002 11.3333C7.26364 11.3333 6.66669 11.9303 6.66669 12.6667C6.66669 13.403 7.26364 14 8.00002 14Z" fill="#7F8A94"/>
</svg>
