<svg width="16" height="20" viewBox="0 0 16 20" fill="none" xmlns="http://www.w3.org/2000/svg">
<path fill-rule="evenodd" clip-rule="evenodd" d="M6.49609 1.5C6.49609 0.671573 7.16767 0 7.99609 0C8.82452 0 9.49609 0.671573 9.49609 1.5V2.18903C12.0839 2.85509 13.9961 5.20424 13.9961 8V14L15.789 15.7929C15.9216 15.9255 15.9961 16.1054 15.9961 16.2929C15.9961 16.6834 15.6795 17 15.289 17H0.7032C0.312676 17 -0.00390625 16.6834 -0.00390625 16.2929C-0.00390625 16.1054 0.0705923 15.9255 0.203201 15.7929L1.99609 14V8C1.99609 5.20424 3.90825 2.85509 6.49609 2.18903V1.5ZM11.9961 14.8284V8C11.9961 5.79086 10.2052 4 7.99609 4C5.78695 4 3.99609 5.79086 3.99609 8V14.8284L3.82452 15H12.1677L11.9961 14.8284Z" fill="#7F8A94"/>
<path d="M7.99609 20C9.10066 20 9.99609 19.1046 9.99609 18H5.99609C5.99609 19.1046 6.89152 20 7.99609 20Z" fill="#7F8A94"/>
</svg>
