<svg width="24" height="24" viewBox="0 0 24 24" fill="none" xmlns="http://www.w3.org/2000/svg">
<path fill-rule="evenodd" clip-rule="evenodd" d="M5.99976 11.9999C5.99976 8.68617 8.68605 5.99988 11.9998 5.99988C13.7761 5.99988 15.3725 6.77114 16.4722 8H16C15.4477 8 15 8.44772 15 9C15 9.55229 15.4477 10 16 10L19 10C19.5523 10 20 9.55228 20 9V6C20 5.44772 19.5523 5 19 5C18.4477 5 18 5.44772 18 6V6.70861C16.5352 5.04887 14.3901 3.99988 11.9998 3.99988C7.58148 3.99988 3.99976 7.5816 3.99976 11.9999C3.99976 16.4182 7.58148 19.9999 11.9998 19.9999C16.0801 19.9999 19.4457 16.946 19.9379 12.9986C20.0063 12.4506 19.6174 11.9509 19.0693 11.8826C18.5213 11.8142 18.0216 12.2031 17.9533 12.7511C17.5843 15.7098 15.0587 17.9999 11.9998 17.9999C8.68605 17.9999 5.99976 15.3136 5.99976 11.9999Z" fill="#7F8A94"/>
</svg>
