<svg width="24" height="25" viewBox="0 0 24 25" fill="none" xmlns="http://www.w3.org/2000/svg">
<path fill-rule="evenodd" clip-rule="evenodd" d="M11.9976 16.498C14.2067 16.498 15.9976 14.7072 15.9976 12.498C15.9976 10.2889 14.2067 8.49805 11.9976 8.49805C9.78842 8.49805 7.99756 10.2889 7.99756 12.498C7.99756 14.7072 9.78842 16.498 11.9976 16.498ZM13.9976 12.498C13.9976 13.6026 13.1021 14.498 11.9976 14.498C10.893 14.498 9.99756 13.6026 9.99756 12.498C9.99756 11.3935 10.893 10.498 11.9976 10.498C13.1021 10.498 13.9976 11.3935 13.9976 12.498Z" fill="#7F8A94"/>
<path fill-rule="evenodd" clip-rule="evenodd" d="M2.62887 14.8793L4.04052 13.3255C4.01257 13.0535 3.99825 12.7774 3.99825 12.498C3.99825 12.2188 4.01256 11.9428 4.04048 11.671L2.62851 10.1168C2.33609 9.79492 2.28521 9.32096 2.50264 8.94435L4.17269 6.05174C4.39012 5.67513 4.82602 5.48222 5.25098 5.57453L7.30282 6.02023C7.7482 5.69684 8.22822 5.41826 8.73627 5.19111L9.37558 3.19327C9.50812 2.77909 9.89314 2.49805 10.328 2.49805H13.6681C14.103 2.49805 14.488 2.77909 14.6205 3.19327L15.2598 5.19091C15.768 5.41808 16.2481 5.69671 16.6936 6.02018L18.7452 5.57453C19.1702 5.48222 19.6061 5.67514 19.8235 6.05174L21.4936 8.94435C21.711 9.32096 21.6601 9.79492 21.3677 10.1168L19.956 11.6707C19.9839 11.9427 19.9982 12.2187 19.9982 12.498C19.9982 12.7775 19.9839 13.0537 19.9559 13.3258L21.3673 14.8793C21.6597 15.2012 21.7106 15.6751 21.4932 16.0517L19.8231 18.9444C19.6057 19.321 19.1698 19.5139 18.7449 19.4216L16.6935 18.976C16.2481 19.2994 15.7679 19.578 15.2598 19.8052L14.6205 21.8028C14.488 22.217 14.103 22.498 13.6681 22.498H10.328C9.89314 22.498 9.50812 22.217 9.37558 21.8028L8.73627 19.805C8.22825 19.5779 7.74826 19.2993 7.3029 18.9759L5.25134 19.4216C4.82638 19.5139 4.39048 19.321 4.17305 18.9444L2.503 16.0517C2.28557 15.6751 2.33645 15.2012 2.62887 14.8793ZM13.6274 6.65193L14.4436 7.01678C14.824 7.18684 15.184 7.39568 15.5185 7.63856L16.2431 8.16468L18.4564 7.6839L19.3965 9.31219L17.8752 10.9868L17.9665 11.8751C17.9874 12.0793 17.9982 12.2871 17.9982 12.498C17.9982 12.7091 17.9874 12.917 17.9664 13.1213L17.8751 14.0097L19.3962 15.6839L18.4561 17.3122L16.243 16.8315L15.5185 17.3576C15.184 17.6004 14.824 17.8093 14.4436 17.9793L13.6274 18.3442L12.9381 20.498H11.058L10.3687 18.344L9.55259 17.9792C9.1723 17.8091 8.81239 17.6003 8.47798 17.3575L7.7534 16.8314L5.54012 17.3122L4.60003 15.6839L6.12133 14.0094L6.03004 13.1211C6.00906 12.9169 5.99825 12.709 5.99825 12.498C5.99825 12.2871 6.00905 12.0794 6.03002 11.8753L6.12125 10.987L4.59967 9.31219L5.53976 7.6839L7.75333 8.16473L8.47792 7.6386C8.81235 7.39578 9.17227 7.18697 9.5526 7.01693L10.3687 6.65206L11.058 4.49805H12.9381L13.6274 6.65193Z" fill="#7F8A94"/>
</svg>
