<svg width="16" height="16" viewBox="0 0 16 16" fill="none" xmlns="http://www.w3.org/2000/svg">
<path fill-rule="evenodd" clip-rule="evenodd" d="M3.99984 7.99984C3.99984 5.7907 5.7907 3.99984 7.99984 3.99984C9.18406 3.99984 10.2483 4.51401 10.9814 5.33325H10.6667C10.2985 5.33325 10 5.63173 10 5.99992C10 6.36811 10.2985 6.66659 10.6667 6.66659L12.6667 6.66659C13.0349 6.66659 13.3333 6.36811 13.3333 5.99992V3.99992C13.3333 3.63173 13.0349 3.33325 12.6667 3.33325C12.2985 3.33325 12 3.63173 12 3.99992V4.47232C11.0234 3.36583 9.59338 2.6665 7.99984 2.6665C5.05432 2.6665 2.6665 5.05432 2.6665 7.99984C2.6665 10.9454 5.05432 13.3332 7.99984 13.3332C10.7201 13.3332 12.9638 11.2972 13.2919 8.66566C13.3375 8.3003 13.0783 7.96719 12.7129 7.92163C12.3475 7.87607 12.0144 8.13532 11.9689 8.50068C11.7229 10.4732 10.0391 11.9998 7.99984 11.9998C5.7907 11.9998 3.99984 10.209 3.99984 7.99984Z" fill="#7F8A94"/>
</svg>
