<svg width="22" height="22" viewBox="0 0 22 22" preserveAspectRatio="xMinYMin meet" fill="none" xmlns="http://www.w3.org/2000/svg">
<rect x="0.5" y="0.5" width="21" height="21" rx="10.5" stroke="#E22A21"/>
<path fill-rule="evenodd" clip-rule="evenodd" d="M11 19C15.4183 19 19 15.4183 19 11C19 6.58172 15.4183 3 11 3C6.58172 3 3 6.58172 3 11C3 15.4183 6.58172 19 11 19ZM11 7C11.5302 7 11.96 7.35817 11.96 7.8V11.8C11.96 12.2418 11.5302 12.6 11 12.6C10.4698 12.6 10.04 12.2418 10.04 11.8V7.8C10.04 7.35817 10.4698 7 11 7ZM11 15.32C11.5302 15.32 11.96 14.8902 11.96 14.36C11.96 13.8298 11.5302 13.4 11 13.4C10.4698 13.4 10.04 13.8298 10.04 14.36C10.04 14.8902 10.4698 15.32 11 15.32Z" fill="#E22A21"/>
</svg>
