<svg width="22" height="22" viewBox="0 0 22 22" preserveAspectRatio="xMinYMin meet" fill="none" xmlns="http://www.w3.org/2000/svg">
<rect x="0.5" y="0.5" width="21" height="21" rx="10.5" stroke="#A8B3BD"/>
<path fill-rule="evenodd" clip-rule="evenodd" d="M12.2857 9.11328C12.7676 8.14272 13.6944 7.09559 14.9963 6.0561C15.26 5.84585 15.4212 5.53115 15.439 5.19296C15.4569 4.84505 15.3231 4.50435 15.0733 4.25871C13.7389 2.94782 11.2966 2.60462 9.62776 3.49619C9.01713 3.82271 8.62239 4.44828 8.57164 5.17009C8.47577 6.56222 8.75984 8.08522 9.35602 9.41605C9.26702 9.50838 9.18571 9.60817 9.11311 9.71437C8.14281 9.2326 7.09554 8.30564 6.05573 7.00299C5.84548 6.73958 5.531 6.57843 5.19256 6.56112C4.84519 6.54358 4.50393 6.67686 4.25805 6.92719C2.94713 8.26212 2.60532 10.7046 3.49582 12.3723C3.82251 12.9831 4.44763 13.3776 5.16914 13.4278C5.3559 13.4409 5.54384 13.4473 5.73287 13.4473C6.97451 13.4473 8.25176 13.169 9.41597 12.6441C9.50829 12.7331 9.60806 12.8144 9.71424 12.8869C9.23242 13.8575 8.30553 14.9046 7.0037 15.9441C6.73997 16.1544 6.57881 16.4691 6.56096 16.8073C6.54311 17.1552 6.67693 17.4959 6.92673 17.7415C7.7592 18.5592 9.0222 19 10.2601 19C11.0066 19 11.7444 18.8393 12.3723 18.5039C12.9829 18.1774 13.3777 17.5518 13.4284 16.83C13.5243 15.4379 13.2402 13.9149 12.644 12.584C12.733 12.4917 12.8143 12.3919 12.8869 12.2857C13.8572 12.7675 14.9045 13.6945 15.9443 14.9971C16.1545 15.2605 16.469 15.4217 16.8074 15.439C16.828 15.4401 16.8487 15.4404 16.8693 15.4404C17.1955 15.4404 17.5106 15.3086 17.7419 15.073C19.0529 13.7381 19.3947 11.2956 18.5042 9.62789C18.1775 9.01704 17.5524 8.62255 16.8309 8.57235C15.4189 8.4736 13.9258 8.75131 12.584 9.35612C12.4917 9.26714 12.3919 9.18585 12.2857 9.11328ZM9.91569 10.6415C9.91579 10.6412 9.91589 10.641 9.91599 10.6407C9.91813 10.6347 9.92016 10.6288 9.92208 10.6228C10.0035 10.3909 10.1577 10.1931 10.3572 10.0567C10.3698 10.0492 10.382 10.0411 10.3938 10.0327C10.5696 9.92218 10.7775 9.85819 11 9.85819C11.1221 9.85819 11.2398 9.87745 11.3502 9.9131C11.3533 9.91428 11.3564 9.91544 11.3596 9.91657C11.3685 9.91979 11.3775 9.92277 11.3865 9.92551C11.6145 10.0078 11.8091 10.1607 11.9437 10.3578C11.9513 10.3703 11.9592 10.3825 11.9676 10.3943C12.078 10.57 12.1419 10.7777 12.1419 11.0001C12.1419 11.1256 12.1216 11.2465 12.084 11.3595C12.082 11.3651 12.08 11.3708 12.0782 11.3764C11.9968 11.6089 11.8423 11.8072 11.6424 11.9437C11.6301 11.9511 11.6182 11.959 11.6066 11.9672C11.4307 12.0779 11.2227 12.142 11 12.142C10.8779 12.142 10.7603 12.1228 10.6499 12.0871C10.6467 12.0859 10.6436 12.0848 10.6404 12.0836C10.6318 12.0806 10.6231 12.0777 10.6145 12.075C10.3863 11.993 10.1915 11.8401 10.0568 11.6432C10.049 11.6302 10.0407 11.6177 10.0321 11.6055C9.92184 11.4299 9.85803 11.2223 9.85803 11.0001C9.85803 10.8749 9.87829 10.7543 9.91569 10.6415ZM10.3388 8.81372C9.85745 7.68432 9.63073 6.41265 9.71131 5.24902C9.73355 4.92704 9.90755 4.64123 10.1657 4.50325C11.4053 3.84284 13.285 4.10265 14.273 5.0737C14.2976 5.09766 14.2986 5.12413 14.2842 5.16343C12.783 6.36195 11.7495 7.55779 11.2048 8.7253C11.1373 8.71928 11.069 8.71621 11 8.71621C10.7702 8.71621 10.5482 8.75031 10.3388 8.81372ZM13.1864 10.339C13.2498 10.5484 13.2839 10.7703 13.2839 11.0001C13.2839 11.0691 13.2809 11.1373 13.2748 11.2047C14.4422 11.7495 15.638 12.783 16.8364 14.2846C16.8771 14.2994 16.9033 14.2982 16.9268 14.2728C17.897 13.2848 18.1585 11.4043 17.4972 10.1662C17.359 9.90838 17.0734 9.73384 16.7518 9.71152C15.586 9.62922 14.3158 9.85725 13.1864 10.339ZM11.6612 13.1865C11.4518 13.2499 11.2298 13.284 11 13.284C10.931 13.284 10.8627 13.2809 10.7952 13.2749C10.2505 14.4424 9.21697 15.6383 7.71582 16.8368C7.70133 16.8761 7.70243 16.9025 7.72694 16.9265C8.71501 17.8972 10.5947 18.1577 11.8343 17.497C12.0924 17.359 12.2664 17.0732 12.2887 16.7512C12.3693 15.5875 12.1425 14.3159 11.6612 13.1865ZM8.81351 11.6611C7.68432 12.1429 6.41489 12.3711 5.24823 12.2886C4.92655 12.2663 4.64105 12.0917 4.50276 11.8339C3.84146 10.5958 4.103 8.71534 5.07322 7.7273C5.09781 7.70272 5.12396 7.70107 5.16358 7.71556C6.36197 9.21708 7.55773 10.2506 8.72511 10.7953C8.71909 10.8628 8.71602 10.9311 8.71602 11.0001C8.71602 11.2299 8.75011 11.4518 8.81351 11.6611Z" fill="#A8B3BD"/>
</svg>
