<svg width="26" height="26" viewBox="0 0 26 26" preserveAspectRatio="xMinYMin meet" fill="none" xmlns="http://www.w3.org/2000/svg">
<rect x="0.5" y="0.5" width="25" height="25" rx="1.5" stroke="#E22A21"/>
<path fill-rule="evenodd" clip-rule="evenodd" d="M13 21.6667C17.7865 21.6667 21.6667 17.7865 21.6667 13C21.6667 8.21353 17.7865 4.33333 13 4.33333C8.21357 4.33333 4.33337 8.21353 4.33337 13C4.33337 17.7865 8.21357 21.6667 13 21.6667ZM13.0001 8.66666C13.5745 8.66666 14.0401 9.05468 14.0401 9.53333V13.8667C14.0401 14.3453 13.5745 14.7333 13.0001 14.7333C12.4257 14.7333 11.9601 14.3453 11.9601 13.8667V9.53333C11.9601 9.05468 12.4257 8.66666 13.0001 8.66666ZM13.0001 17.68C13.5745 17.68 14.0401 17.2144 14.0401 16.64C14.0401 16.0656 13.5745 15.6 13.0001 15.6C12.4257 15.6 11.9601 16.0656 11.9601 16.64C11.9601 17.2144 12.4257 17.68 13.0001 17.68Z" fill="#E22A21"/>
</svg>
