<svg width="26" height="26" viewBox="0 0 26 26" preserveAspectRatio="xMinYMin meet" fill="none" xmlns="http://www.w3.org/2000/svg">
<rect x="0.5" y="0.5" width="25" height="25" rx="1.5" stroke="#A8B3BD"/>
<circle cx="12.9999" cy="13" r="10.7667" stroke="#A8B3BD"/>
<path fill-rule="evenodd" clip-rule="evenodd" d="M14.3929 10.956C14.9149 9.90461 15.919 8.77022 17.3293 7.6441C17.6151 7.41634 17.7896 7.07541 17.809 6.70903C17.8283 6.33213 17.6833 5.96304 17.4127 5.69693C15.9672 4.2768 13.3214 3.905 11.5134 4.87086C10.8519 5.2246 10.4243 5.9023 10.3693 6.68426C10.2655 8.19239 10.5732 9.84231 11.2191 11.2841C11.1226 11.3841 11.0346 11.4922 10.9559 11.6072C9.90475 11.0853 8.77021 10.0811 7.64375 8.6699C7.41597 8.38454 7.07529 8.20996 6.70865 8.19121C6.33233 8.17221 5.96263 8.31659 5.69626 8.58779C4.27609 10.034 3.9058 12.68 4.87051 14.4867C5.22443 15.1484 5.90164 15.5758 6.68328 15.6302C6.8856 15.6443 7.0892 15.6513 7.29398 15.6513C8.63909 15.6513 10.0228 15.3498 11.284 14.7811C11.384 14.8775 11.4921 14.9656 11.6071 15.0442C11.0852 16.0956 10.081 17.23 8.67072 18.3561C8.38501 18.5839 8.21042 18.9248 8.19108 19.2912C8.17174 19.6682 8.31672 20.0372 8.58733 20.3033C9.48918 21.1892 10.8574 21.6667 12.1984 21.6667C13.0072 21.6667 13.8065 21.4926 14.4867 21.1293C15.1482 20.7755 15.5759 20.0978 15.6308 19.3159C15.7347 17.8077 15.4269 16.1578 14.7811 14.716C14.8775 14.616 14.9655 14.5079 15.0442 14.3929C16.0953 14.9148 17.2299 15.919 18.3563 17.3302C18.5841 17.6156 18.9248 17.7902 19.2914 17.8089C19.3137 17.8101 19.3361 17.8104 19.3585 17.8104C19.7119 17.8104 20.0531 17.6677 20.3038 17.4124C21.724 15.9663 22.0943 13.3202 21.1296 11.5135C20.7757 10.8518 20.0984 10.4244 19.3168 10.37C17.7872 10.2631 16.1697 10.5639 14.716 11.2191C14.616 11.1227 14.5079 11.0347 14.3929 10.956ZM11.8254 12.6116C11.8255 12.6113 11.8256 12.611 11.8257 12.6107C11.828 12.6043 11.8302 12.5978 11.8323 12.5914C11.9205 12.3402 12.0876 12.1258 12.3036 11.9781C12.3173 11.9699 12.3305 11.9612 12.3433 11.9521C12.5337 11.8324 12.759 11.763 13 11.763C13.1323 11.763 13.2598 11.7839 13.3794 11.8225C13.3828 11.8238 13.3862 11.8251 13.3896 11.8263C13.3993 11.8298 13.409 11.833 13.4187 11.836C13.6658 11.9251 13.8766 12.0908 14.0224 12.3042C14.0306 12.3179 14.0392 12.3311 14.0483 12.3438C14.1679 12.5341 14.2371 12.7592 14.2371 13.0001C14.2371 13.1361 14.2151 13.267 14.1743 13.3895C14.1722 13.3956 14.1701 13.4017 14.1681 13.4078C14.08 13.6596 13.9126 13.8744 13.696 14.0223C13.6827 14.0304 13.6697 14.0389 13.6572 14.0478C13.4666 14.1677 13.2413 14.2372 13 14.2372C12.8678 14.2372 12.7403 14.2163 12.6207 14.1777C12.6173 14.1764 12.6139 14.1752 12.6105 14.1739C12.6011 14.1706 12.5918 14.1675 12.5824 14.1646C12.3352 14.0757 12.1242 13.9102 11.9782 13.6967C11.9698 13.6827 11.9608 13.6691 11.9515 13.656C11.832 13.4657 11.7629 13.2409 11.7629 13.0001C11.7629 12.8645 11.7849 12.7338 11.8254 12.6116ZM12.2838 10.6315C11.7623 9.408 11.5167 8.03037 11.604 6.76977C11.6281 6.42095 11.8166 6.11132 12.0962 5.96185C13.4391 5.2464 15.4754 5.52787 16.5458 6.57983C16.5724 6.60579 16.5736 6.63447 16.5579 6.67705C14.9316 7.97545 13.812 9.27093 13.2219 10.5357C13.1488 10.5292 13.0748 10.5259 13 10.5259C12.751 10.5259 12.5106 10.5628 12.2838 10.6315ZM15.3687 12.284C15.4374 12.5107 15.4743 12.7512 15.4743 13.0001C15.4743 13.0748 15.471 13.1488 15.4645 13.2218C16.7291 13.8119 18.0246 14.9316 19.3228 16.5583C19.3669 16.5743 19.3953 16.573 19.4207 16.5455C20.4718 15.4752 20.7551 13.438 20.0387 12.0967C19.8889 11.8174 19.5796 11.6283 19.2311 11.6041C17.9682 11.515 16.5922 11.762 15.3687 12.284ZM13.7163 15.3687C13.4895 15.4374 13.249 15.4743 13 15.4743C12.9253 15.4743 12.8513 15.471 12.7782 15.4645C12.1881 16.7293 11.0684 18.0248 9.44218 19.3232C9.42648 19.3658 9.42767 19.3944 9.45423 19.4204C10.5246 20.472 12.5609 20.7542 13.9038 20.0384C14.1835 19.8889 14.372 19.5793 14.3961 19.2304C14.4834 17.9698 14.2378 16.5922 13.7163 15.3687ZM10.6313 13.7162C9.40805 14.2382 8.03284 14.4853 6.76896 14.396C6.42047 14.3718 6.11118 14.1827 5.96136 13.9034C5.24496 12.5621 5.5283 10.525 6.57936 9.45458C6.606 9.42794 6.63433 9.42616 6.67726 9.44185C7.97551 11.0685 9.27091 12.1882 10.5356 12.7783C10.5291 12.8514 10.5257 12.9254 10.5257 13.0001C10.5257 13.249 10.5627 13.4894 10.6313 13.7162Z" fill="#A8B3BD"/>
</svg>
