<svg width="26" height="26" viewBox="0 0 26 26" fill="none" xmlns="http://www.w3.org/2000/svg">
<rect x="0.5" y="0.5" width="25" height="25" rx="1.5" stroke="#E22A21"/>
<path fill-rule="evenodd" clip-rule="evenodd" d="M13 21.6666C17.7864 21.6666 21.6666 17.7864 21.6666 13C21.6666 8.21351 17.7864 4.33331 13 4.33331C8.21351 4.33331 4.33331 8.21351 4.33331 13C4.33331 17.7864 8.21351 21.6666 13 21.6666ZM13 8.66665C13.5744 8.66665 14.04 9.05467 14.04 9.53331V13.8666C14.04 14.3453 13.5744 14.7333 13 14.7333C12.4256 14.7333 11.96 14.3453 11.96 13.8666V9.53331C11.96 9.05467 12.4256 8.66665 13 8.66665ZM13 17.68C13.5744 17.68 14.04 17.2144 14.04 16.64C14.04 16.0656 13.5744 15.6 13 15.6C12.4256 15.6 11.96 16.0656 11.96 16.64C11.96 17.2144 12.4256 17.68 13 17.68Z" fill="#E22A21"/>
</svg>
