<svg width="30" height="30" viewBox="0 0 30 30" fill="none" xmlns="http://www.w3.org/2000/svg">
<g clip-path="url(#clip0_465_8357)">
<circle cx="15" cy="15" r="14.5" fill="#FFF3B3" stroke="#FDD600"/>
<path d="M15 19.8448C12.3287 19.8448 10.1552 17.6714 10.1552 15C10.1552 12.3287 12.3287 10.1552 15 10.1552C17.6714 10.1552 19.8448 12.3287 19.8448 15C19.8448 17.6714 17.6714 19.8448 15 19.8448ZM15 11.445C13.0399 11.445 11.445 13.0399 11.445 15C11.445 16.9601 13.0399 18.5551 15 18.5551C16.9601 18.5551 18.5551 16.9601 18.5551 15C18.5551 13.0399 16.9601 11.445 15 11.445Z" fill="#181A1B"/>
<path d="M15 9.0422C14.6438 9.0422 14.3553 8.75334 14.3553 8.39752V6.18865C14.3553 5.83244 14.6442 5.54398 15 5.54398C15.3558 5.54398 15.6447 5.83283 15.6447 6.18865V8.39752C15.6447 8.75373 15.3558 9.0422 15 9.0422Z" fill="#181A1B"/>
<path d="M15 24.4564C14.6438 24.4564 14.3553 24.1676 14.3553 23.8117V21.6029C14.3553 21.2467 14.6442 20.9582 15 20.9582C15.3558 20.9582 15.6447 21.247 15.6447 21.6029V23.8117C15.6447 24.1679 15.3558 24.4564 15 24.4564Z" fill="#181A1B"/>
<path d="M8.39713 15.6447H6.18826C5.83205 15.6447 5.54358 15.3558 5.54358 15C5.54358 14.6442 5.83244 14.3553 6.18826 14.3553H8.39713C8.75333 14.3553 9.0418 14.6442 9.0418 15C9.0418 15.3558 8.75294 15.6447 8.39713 15.6447Z" fill="#181A1B"/>
<path d="M23.8117 15.6447H21.6029C21.2467 15.6447 20.9582 15.3558 20.9582 15C20.9582 14.6442 21.247 14.3553 21.6029 14.3553H23.8117C24.1679 14.3553 24.4564 14.6442 24.4564 15C24.4564 15.3558 24.1676 15.6447 23.8117 15.6447Z" fill="#181A1B"/>
<path d="M19.6688 10.9759C19.5038 10.9759 19.3387 10.9128 19.213 10.787C18.9611 10.5352 18.9611 10.1268 19.213 9.87531L20.7748 8.31345C21.0267 8.06157 21.4351 8.06157 21.6865 8.31345C21.9384 8.56532 21.9384 8.9737 21.6865 9.22518L20.1247 10.787C19.9989 10.9128 19.8339 10.9759 19.6688 10.9759Z" fill="#181A1B"/>
<path d="M8.76928 21.8758C8.60422 21.8758 8.43916 21.8127 8.31342 21.687C8.06154 21.4351 8.06154 21.0267 8.31342 20.7752L9.87528 19.2134C10.1272 18.9615 10.5355 18.9615 10.787 19.2134C11.0389 19.4653 11.0389 19.8736 10.787 20.1251L9.22515 21.687C9.09941 21.8127 8.93435 21.8758 8.76928 21.8758Z" fill="#181A1B"/>
<path d="M10.3311 10.9759C10.1661 10.9759 10.001 10.9128 9.87528 10.787L8.31342 9.22518C8.06154 8.97331 8.06154 8.56493 8.31342 8.31345C8.56529 8.06157 8.97367 8.06157 9.22515 8.31345L10.787 9.87531C11.0389 10.1272 11.0389 10.5356 10.787 10.787C10.6613 10.9128 10.4962 10.9759 10.3311 10.9759Z" fill="#181A1B"/>
<path d="M21.2307 21.8758C21.0656 21.8758 20.9006 21.8127 20.7748 21.687L19.213 20.1251C18.9611 19.8732 18.9611 19.4649 19.213 19.2134C19.4648 18.9615 19.8732 18.9615 20.1247 19.2134L21.6865 20.7752C21.9384 21.0271 21.9384 21.4355 21.6865 21.687C21.5608 21.8127 21.3957 21.8758 21.2307 21.8758Z" fill="#181A1B"/>
</g>
<defs>
<clipPath id="clip0_465_8357">
<rect width="30" height="30" fill="white"/>
</clipPath>
</defs>
</svg>
