<svg width="16" height="17" viewBox="0 0 16 17" fill="none" xmlns="http://www.w3.org/2000/svg">
<path d="M8.55233 5.79987L9.96654 4.38566C10.2269 4.12531 10.2269 3.7032 9.96654 3.44285L8.55233 2.02864C8.29198 1.76829 7.86987 1.76829 7.60952 2.02864C7.34917 2.28899 7.34917 2.7111 7.60952 2.97145L7.80816 3.17008C4.95148 3.27106 2.66663 5.61872 2.66663 8.50003C2.66663 9.63229 3.02021 10.684 3.62296 11.5481C3.8336 11.8501 4.24917 11.9241 4.55115 11.7135C4.85313 11.5028 4.92718 11.0873 4.71654 10.7853C4.2648 10.1377 3.99996 9.35077 3.99996 8.50003C3.99996 6.30208 5.77272 4.51818 7.96642 4.50017L7.60952 4.85706C7.34917 5.11741 7.34917 5.53952 7.60952 5.79987C7.86987 6.06022 8.29198 6.06022 8.55233 5.79987Z" fill="#7F8A94"/>
<path d="M6.19532 12.7762C5.93497 13.0365 5.93497 13.4586 6.19532 13.719L7.60954 15.1332C7.86988 15.3936 8.292 15.3936 8.55234 15.1332C8.81269 14.8729 8.81269 14.4507 8.55234 14.1904L8.19192 13.83C11.0485 13.7289 13.3333 11.3813 13.3333 8.50003C13.3333 7.36777 12.9797 6.3161 12.377 5.45196C12.1663 5.14998 11.7508 5.07593 11.4488 5.28657C11.1468 5.49721 11.0727 5.91278 11.2834 6.21476C11.7351 6.8624 12 7.64929 12 8.50003C12 10.5829 10.408 12.294 8.37439 12.4827L8.55234 12.3048C8.81269 12.0444 8.81269 11.6223 8.55234 11.362C8.292 11.1016 7.86988 11.1016 7.60954 11.362L6.19532 12.7762Z" fill="#7F8A94"/>
</svg>
