<svg width="12" height="14" viewBox="0 0 12 14" fill="none" xmlns="http://www.w3.org/2000/svg">
<path fill-rule="evenodd" clip-rule="evenodd" d="M12 1.86842L12 12.1316C12 12.8873 11.403 13.5 10.6667 13.5C9.93029 13.5 9.33333 12.8873 9.33333 12.1316L9.33333 1.86842C9.33333 1.11266 9.93029 0.5 10.6667 0.5C11.403 0.5 12 1.11266 12 1.86842ZM7.33333 12.1316V4.60526C7.33333 3.84951 6.73638 3.23684 6 3.23684C5.26362 3.23684 4.66667 3.84951 4.66667 4.60526L4.66667 12.1316C4.66667 12.8873 5.26362 13.5 6 13.5C6.73638 13.5 7.33333 12.8873 7.33333 12.1316ZM2.66667 12.1316L2.66667 7.3421C2.66667 6.58635 2.06971 5.97368 1.33333 5.97368C0.596954 5.97368 0 6.58635 0 7.3421V12.1316C0 12.8873 0.596954 13.5 1.33333 13.5C2.06971 13.5 2.66667 12.8873 2.66667 12.1316Z" fill="#7F8A94"/>
</svg>
