<svg width="24" height="24" viewBox="0 0 24 24" fill="none" xmlns="http://www.w3.org/2000/svg">
<rect width="24" height="24" rx="12" fill="#16439C"/>
<path fill-rule="evenodd" clip-rule="evenodd" d="M16 14.1068V16C16 16.3682 15.7016 16.6667 15.3334 16.6667H6.00004C5.63185 16.6667 5.33337 16.3682 5.33337 16V7.33332C5.33337 6.96513 5.63185 6.66666 6.00004 6.66666H15.3334C15.7016 6.66666 16 6.96513 16 7.33332V8.55988L16.875 7.88049C17.8761 7.10316 19.3334 7.81661 19.3334 9.08407V13.5826C19.3334 14.8501 17.8761 15.5635 16.875 14.7862L16 14.1068ZM6.66671 7.99999H14.6667V15.3333H6.66671V7.99999ZM16 12.4187L17.6927 13.733C17.8179 13.8302 18 13.741 18 13.5826V9.08407C18 8.92564 17.8179 8.83646 17.6927 8.93362L16 10.248V12.4187Z" fill="white"/>
</svg>
