<svg width="16" height="17" viewBox="0 0 16 17" fill="none" xmlns="http://www.w3.org/2000/svg">
<path d="M8.55221 5.79999L9.96642 4.38578C10.2268 4.12543 10.2268 3.70332 9.96642 3.44297L8.55221 2.02876C8.29186 1.76841 7.86975 1.76841 7.6094 2.02876C7.34905 2.28911 7.34905 2.71122 7.6094 2.97157L7.80803 3.1702C4.95135 3.27118 2.6665 5.61884 2.6665 8.50015C2.6665 9.63241 3.02008 10.6841 3.62284 11.5482C3.83348 11.8502 4.24904 11.9242 4.55103 11.7136C4.85301 11.503 4.92706 11.0874 4.71642 10.7854C4.26468 10.1378 3.99984 9.35089 3.99984 8.50015C3.99984 6.3022 5.7726 4.51831 7.96629 4.50029L7.6094 4.85719C7.34905 5.11754 7.34905 5.53964 7.6094 5.79999C7.86975 6.06034 8.29186 6.06034 8.55221 5.79999Z" fill="#7F8A94"/>
<path d="M6.1952 12.7763C5.93485 13.0367 5.93485 13.4588 6.1952 13.7191L7.60941 15.1333C7.86976 15.3937 8.29187 15.3937 8.55222 15.1333C8.81257 14.873 8.81257 14.4509 8.55222 14.1905L8.1918 13.8301C11.0484 13.729 13.3332 11.3814 13.3332 8.50015C13.3332 7.3679 12.9796 6.31623 12.3768 5.45209C12.1662 5.1501 11.7506 5.07605 11.4486 5.28669C11.1467 5.49733 11.0726 5.9129 11.2833 6.21488C11.735 6.86252 11.9998 7.64941 11.9998 8.50015C11.9998 10.583 10.4078 12.2941 8.37427 12.4829L8.55222 12.3049C8.81257 12.0446 8.81257 11.6224 8.55222 11.3621C8.29187 11.1017 7.86976 11.1017 7.60941 11.3621L6.1952 12.7763Z" fill="#7F8A94"/>
</svg>
