<svg width="56" height="56" viewBox="0 0 56 56" fill="none" xmlns="http://www.w3.org/2000/svg">
<path fill-rule="evenodd" clip-rule="evenodd" d="M28 56C43.464 56 56 43.464 56 28C56 12.536 43.464 0 28 0C12.536 0 0 12.536 0 28C0 43.464 12.536 56 28 56ZM28 50.4C40.3712 50.4 50.4 40.3712 50.4 28C50.4 15.6288 40.3712 5.6 28 5.6C15.6288 5.6 5.6 15.6288 5.6 28C5.6 40.3712 15.6288 50.4 28 50.4ZM21.5799 17.6201C20.4864 16.5266 18.7136 16.5266 17.6201 17.6201C16.5266 18.7136 16.5266 20.4864 17.6201 21.5799L24.0402 28L17.6201 34.4201C16.5266 35.5136 16.5266 37.2864 17.6201 38.3799C18.7136 39.4734 20.4864 39.4734 21.5799 38.3799L28 31.9598L34.4201 38.3799C35.5136 39.4734 37.2864 39.4734 38.3799 38.3799C39.4734 37.2864 39.4734 35.5136 38.3799 34.4201L31.9598 28L38.3799 21.5799C39.4734 20.4864 39.4734 18.7136 38.3799 17.6201C37.2864 16.5266 35.5136 16.5266 34.4201 17.6201L28 24.0402L21.5799 17.6201Z" fill="#A8B3BD"/>
</svg>
