<svg width="24" height="24" viewBox="0 0 24 24" fill="none" xmlns="http://www.w3.org/2000/svg">
<path fill-rule="evenodd" clip-rule="evenodd" d="M12 24C18.6274 24 24 18.6274 24 12C24 5.37258 18.6274 0 12 0C5.37258 0 0 5.37258 0 12C0 18.6274 5.37258 24 12 24ZM12.0001 6C12.7953 6 13.4401 6.53726 13.4401 7.2V13.2C13.4401 13.8627 12.7954 14.4 12.0001 14.4C11.2048 14.4 10.5601 13.8627 10.5601 13.2V7.2C10.5601 6.53726 11.2048 6 12.0001 6ZM12.0001 18.48C12.7954 18.48 13.4401 17.8353 13.4401 17.04C13.4401 16.2447 12.7954 15.6 12.0001 15.6C11.2048 15.6 10.5601 16.2447 10.5601 17.04C10.5601 17.8353 11.2048 18.48 12.0001 18.48Z" fill="#E22A21"/>
</svg>
