<svg width="16" height="16" viewBox="0 0 16 16" fill="none" xmlns="http://www.w3.org/2000/svg">
<path fill-rule="evenodd" clip-rule="evenodd" d="M6.66667 10C8.50762 10 10 8.50762 10 6.66667C10 4.82572 8.50762 3.33333 6.66667 3.33333C4.82572 3.33333 3.33333 4.82572 3.33333 6.66667C3.33333 8.50762 4.82572 10 6.66667 10ZM6.66667 11.3333C9.244 11.3333 11.3333 9.244 11.3333 6.66667C11.3333 4.08934 9.244 2 6.66667 2C4.08934 2 2 4.08934 2 6.66667C2 9.244 4.08934 11.3333 6.66667 11.3333Z" fill="white"/>
<path fill-rule="evenodd" clip-rule="evenodd" d="M9.5286 9.5286C9.78895 9.26825 10.2111 9.26825 10.4714 9.5286L13.8047 12.8619C14.0651 13.1223 14.0651 13.5444 13.8047 13.8047C13.5444 14.0651 13.1223 14.0651 12.8619 13.8047L9.5286 10.4714C9.26825 10.2111 9.26825 9.78895 9.5286 9.5286Z" fill="white"/>
</svg>
