<svg width="28" height="66" viewBox="0 0 28 66" fill="none" xmlns="http://www.w3.org/2000/svg">
<g clip-path="url(#clip0_90_26)">
<path d="M4.5 47.7107C4.5 47.2965 4.16421 46.9607 3.75 46.9607C3.33579 46.9607 3 47.2965 3 47.7107V64.2107C3 64.6249 3.33579 64.9607 3.75 64.9607C4.16421 64.9607 4.5 64.6249 4.5 64.2107V47.7107Z" fill="black"/>
<path d="M25 47.7107C25 47.2965 24.6642 46.9607 24.25 46.9607C23.8358 46.9607 23.5 47.2965 23.5 47.7107V64.2107C23.5 64.6249 23.8358 64.9607 24.25 64.9607C24.6642 64.9607 25 64.6249 25 64.2107V47.7107Z" fill="black"/>
<path d="M27.25 63.9607H0.75C0.335786 63.9607 0 64.2965 0 64.7107C0 65.1249 0.335786 65.4607 0.75 65.4607H27.25C27.6642 65.4607 28 65.1249 28 64.7107C28 64.2965 27.6642 63.9607 27.25 63.9607Z" fill="black"/>
<path d="M15.3924 1.08972L22.4466 4.59618C23.5514 5.14535 24.25 6.27272 24.25 7.50647V47.2159C24.25 48.4497 23.5514 49.577 22.4466 50.1262L15.3924 53.6326C14.4764 54.088 13.3994 54.0854 12.4855 53.6258L5.5397 50.1324C4.44242 49.5805 3.75 48.4571 3.75 47.2289V7.49346C3.75 6.26522 4.44242 5.1419 5.53969 4.59001L12.4855 1.09656C13.3994 0.6369 14.4764 0.634365 15.3924 1.08972Z" fill="#D9D9D9" stroke="black" stroke-width="1.5"/>
<mask id="mask0_90_26" style="mask-type:alpha" maskUnits="userSpaceOnUse" x="4" y="1" width="20" height="53">
<path d="M12.8225 1.76659C13.5255 1.413 14.354 1.41106 15.0585 1.76132L22.1128 5.26779C22.9626 5.69023 23.5 6.55744 23.5 7.50647V47.2159C23.5 48.165 22.9626 49.0321 22.1127 49.4546L15.0586 52.961C14.354 53.3113 13.5255 53.3093 12.8225 52.9558L5.8767 49.4624C5.03264 49.0378 4.5 48.1737 4.5 47.2289V7.49346C4.5 6.54866 5.03263 5.68457 5.87669 5.26004L12.8225 1.76659Z" fill="#D9D9D9"/>
</mask>
<g mask="url(#mask0_90_26)">
<rect x="4.5" y="1.1" width="19" height="52.12" fill="#FDD600"/>
</g>
</g>
<defs>
<clipPath id="clip0_90_26">
<rect width="28" height="66" fill="white"/>
</clipPath>
</defs>
</svg>
