<svg width="66" height="28" viewBox="0 0 66 28" fill="none" xmlns="http://www.w3.org/2000/svg">
<g clip-path="url(#clip0_91_57)">
<path d="M47.7109 23.5C47.2967 23.5 46.9609 23.8358 46.9609 24.25C46.9609 24.6642 47.2967 25 47.7109 25H64.2109C64.6251 25 64.9609 24.6642 64.9609 24.25C64.9609 23.8358 64.6251 23.5 64.2109 23.5H47.7109Z" fill="black"/>
<path d="M47.7109 3C47.2967 3 46.9609 3.33579 46.9609 3.75C46.9609 4.16421 47.2967 4.5 47.7109 4.5L64.2109 4.5C64.6251 4.5 64.9609 4.16421 64.9609 3.75C64.9609 3.33579 64.6251 3 64.2109 3L47.7109 3Z" fill="black"/>
<path d="M63.9609 0.75V27.25C63.9609 27.6642 64.2967 28 64.7109 28C65.1251 28 65.4609 27.6642 65.4609 27.25V0.75C65.4609 0.335787 65.1251 0 64.7109 0C64.2967 0 63.9609 0.335787 63.9609 0.75Z" fill="black"/>
<path d="M1.09656 15.5145C0.6369 14.6006 0.634365 13.5236 1.08972 12.6076L4.59618 5.55337C5.14535 4.44858 6.27272 3.75 7.50647 3.75H47.2159C48.4496 3.75 49.577 4.44858 50.1262 5.55338L53.6326 12.6076C54.088 13.5236 54.0854 14.6006 53.6258 15.5145L50.1324 22.4603C49.5805 23.5576 48.4571 24.25 47.2289 24.25H7.49346C6.26522 24.25 5.1419 23.5576 4.59001 22.4603L1.09656 15.5145Z" stroke="black" stroke-width="1.5"/>
<mask id="mask0_91_57" style="mask-type:alpha" maskUnits="userSpaceOnUse" x="1" y="4" width="53" height="20">
<path d="M1.76659 15.1775C1.413 14.4745 1.41106 13.646 1.76132 12.9415L5.26778 5.88724C5.69023 5.03738 6.55744 4.5 7.50647 4.5L47.2159 4.5C48.165 4.5 49.0321 5.03737 49.4546 5.88725L52.961 12.9414C53.3113 13.646 53.3093 14.4745 52.9558 15.1775L49.4624 22.1233C49.0378 22.9674 48.1737 23.5 47.2289 23.5L7.49346 23.5C6.54866 23.5 5.68457 22.9674 5.26003 22.1233L1.76659 15.1775Z" fill="#D9D9D9"/>
</mask>
<g mask="url(#mask0_91_57)">
<rect x="1.10001" y="23.5" width="19" height="52.12" transform="rotate(-90 1.10001 23.5)" fill="#FDD600"/>
</g>
</g>
<defs>
<clipPath id="clip0_91_57">
<rect width="66" height="28" fill="white"/>
</clipPath>
</defs>
</svg>
