<svg width="16" height="17" viewBox="0 0 16 17" fill="none" xmlns="http://www.w3.org/2000/svg">
<path fill-rule="evenodd" clip-rule="evenodd" d="M8 16.5C12.4183 16.5 16 12.9183 16 8.5C16 4.08172 12.4183 0.5 8 0.5C3.58172 0.5 0 4.08172 0 8.5C0 12.9183 3.58172 16.5 8 16.5ZM8.00004 4.5C8.53023 4.5 8.96004 4.85817 8.96004 5.3V9.3C8.96004 9.74183 8.53023 10.1 8.00004 10.1C7.46985 10.1 7.04004 9.74183 7.04004 9.3V5.3C7.04004 4.85817 7.46985 4.5 8.00004 4.5ZM8.00004 12.82C8.53023 12.82 8.96004 12.3902 8.96004 11.86C8.96004 11.3298 8.53023 10.9 8.00004 10.9C7.46985 10.9 7.04004 11.3298 7.04004 11.86C7.04004 12.3902 7.46985 12.82 8.00004 12.82Z" fill="#E22A21"/>
</svg>
