<svg width="20" height="24" viewBox="0 0 20 24" fill="none" xmlns="http://www.w3.org/2000/svg">
<path d="M10.712 0.224292C10.5033 0.0783026 10.2549 0 10.0002 0C9.7456 0 9.49712 0.0783026 9.2885 0.224292C7.6889 1.40316 6.2254 2.75632 4.92501 4.25881C2.01913 7.59607 0.48291 11.133 0.48291 14.4827C0.48291 17.0068 1.48562 19.4276 3.27047 21.2124C5.05531 22.9973 7.47608 24 10.0002 24C12.5244 24 14.9451 22.9973 16.73 21.2124C18.5148 19.4276 19.5175 17.0068 19.5175 14.4827C19.5175 6.47986 11.072 0.475673 10.712 0.224292ZM10.0002 21.5172C8.13514 21.5153 6.34699 20.7736 5.02817 19.4547C3.70936 18.1359 2.96761 16.3478 2.96569 14.4827C2.96569 11.0368 5.03467 7.92711 6.76227 5.92641C7.74862 4.79341 8.83206 3.74874 10.0002 2.80431C11.1684 3.74874 12.2518 4.79341 13.2382 5.92641C14.9658 7.92711 17.0348 11.0368 17.0348 14.4827C17.0329 16.3478 16.2911 18.1359 14.9723 19.4547C13.6535 20.7736 11.8653 21.5153 10.0002 21.5172ZM15.1334 16.0965C14.8735 16.9226 14.418 17.6737 13.8057 18.2861C13.1933 18.8984 12.4422 19.3539 11.6161 19.6138C11.4955 19.6513 11.37 19.6704 11.2437 19.6707C10.9469 19.6709 10.6599 19.5648 10.4347 19.3716C10.2094 19.1784 10.0608 18.9109 10.0158 18.6176C9.97074 18.3243 10.0323 18.0246 10.1892 17.7727C10.3462 17.5209 10.5881 17.3336 10.8713 17.2448C11.3165 17.1049 11.7213 16.8595 12.0512 16.5296C12.3812 16.1996 12.6266 15.7948 12.7665 15.3496C12.8154 15.194 12.8944 15.0496 12.9991 14.9246C13.1038 14.7997 13.2322 14.6965 13.3767 14.6211C13.6687 14.4688 14.0092 14.4387 14.3234 14.5375C14.4789 14.5864 14.6233 14.6655 14.7483 14.7702C14.8733 14.8749 14.9764 15.0032 15.0519 15.1478C15.1273 15.2924 15.1735 15.4504 15.1878 15.6128C15.2021 15.7752 15.1843 15.9389 15.1354 16.0944L15.1334 16.0965Z" fill="#525960"/>
</svg>
