<svg width="24" height="24" viewBox="0 0 24 24" fill="none" xmlns="http://www.w3.org/2000/svg">
<path d="M22.6154 -0.000976562H17.0771C16.7099 -0.000976562 16.3577 0.144898 16.0981 0.404557C15.8384 0.664216 15.6925 1.01639 15.6925 1.3836C15.6925 1.75081 15.8384 2.10299 16.0981 2.36265C16.3577 2.6223 16.7099 2.76818 17.0771 2.76818H19.2694L15.4941 6.54577C13.5315 5.07902 11.0862 4.41003 8.65025 4.67339C6.21431 4.93676 3.96851 6.11294 2.36476 7.96527C0.761002 9.81759 -0.0816892 12.2086 0.00625037 14.6571C0.09419 17.1057 1.10623 19.4301 2.83874 21.1626C4.57124 22.8951 6.89563 23.9071 9.34418 23.9951C11.7927 24.083 14.1837 23.2403 16.0361 21.6366C17.8884 20.0328 19.0646 17.787 19.3279 15.3511C19.5913 12.9151 18.9223 10.4699 17.4556 8.50725L21.2308 4.72966V6.92191C21.2308 7.28912 21.3767 7.6413 21.6364 7.90096C21.896 8.16061 22.2482 8.30649 22.6154 8.30649C22.9826 8.30649 23.3348 8.16061 23.5945 7.90096C23.8541 7.6413 24 7.28912 24 6.92191V1.3836C24 1.01639 23.8541 0.664216 23.5945 0.404557C23.3348 0.144898 22.9826 -0.000976562 22.6154 -0.000976562ZM14.586 19.2054C13.6177 20.1733 12.3842 20.8324 11.0414 21.0993C9.69852 21.3662 8.3067 21.2289 7.04187 20.7049C5.77704 20.1808 4.696 19.2935 3.93543 18.1551C3.17486 17.0167 2.76891 15.6783 2.76891 14.3092C2.76891 12.9401 3.17486 11.6018 3.93543 10.4634C4.696 9.32495 5.77704 8.43762 7.04187 7.91356C8.3067 7.3895 9.69852 7.25224 11.0414 7.51914C12.3842 7.78603 13.6177 8.44509 14.586 9.413C15.8821 10.7129 16.6099 12.4736 16.6099 14.3092C16.6099 16.1448 15.8821 17.9056 14.586 19.2054Z" fill="#525960"/>
</svg>
