<svg width="90" height="100" viewBox="0 0 90 100" fill="none" xmlns="http://www.w3.org/2000/svg">
<path fill-rule="evenodd" clip-rule="evenodd" d="M0 0V13.3956C10.7646 13.3956 21.4091 15.6499 31.2373 20.0123C41.1467 24.4107 49.9992 30.8514 57.2066 38.9065C64.4139 46.9616 69.811 56.4465 73.0392 66.7309C75.597 74.8793 76.7467 83.3818 76.456 91.8797C76.3295 95.5767 78.9293 98.9205 82.6295 99.3713C86.3296 99.8222 89.7241 97.2102 89.8999 93.5152C90.3942 83.1251 89.0561 72.7112 85.9285 62.7474C82.1306 50.648 75.7811 39.4893 67.3018 30.0128C58.8226 20.5362 48.4079 12.9589 36.7497 7.78427C25.1872 2.65209 12.6643 -7.62938e-06 0 0Z" fill="#007CDB"/>
</svg>
