<svg width="30" height="30" viewBox="0 0 30 30" fill="none" xmlns="http://www.w3.org/2000/svg">
<g clip-path="url(#clip0_711_2910)">
<circle cx="15" cy="15" r="14.5" fill="#A8B3BD" stroke="#66707A"/>
<path d="M14.0909 24.1151C9.07828 24.1151 5 20.0369 5 15.0243C5 10.4512 8.41686 6.57382 12.9479 6.00505C13.2111 5.97196 13.4676 6.10355 13.5945 6.33634C13.7214 6.56914 13.693 6.85606 13.5225 7.05927C12.2584 8.5678 11.562 10.4835 11.562 12.4541C11.562 16.9443 15.0719 20.6317 19.5527 20.8486C19.8178 20.8614 20.0479 21.035 20.1324 21.2865C20.2172 21.538 20.1394 21.8156 19.9362 21.9861C18.3027 23.3591 16.2265 24.1151 14.0905 24.1151H14.0909ZM11.5488 7.64633C8.46319 8.70872 6.28974 11.6452 6.28974 15.0243C6.28974 19.326 9.78913 22.8254 14.0909 22.8254C15.3833 22.8254 16.6501 22.5031 17.7763 21.8997C15.9486 21.4784 14.2781 20.5324 12.9568 19.1497C11.226 17.3383 10.2726 14.9601 10.2726 12.4538C10.2726 10.7603 10.7184 9.10191 11.5488 7.64672V7.64633Z" fill="#F3F5F6"/>
<path d="M21.3284 18.0393C21.0318 18.0393 20.7912 17.7987 20.7912 17.5021C20.7912 16.073 19.9402 14.9105 18.8942 14.9105C18.5975 14.9105 18.3569 14.6699 18.3569 14.3733C18.3569 14.0766 18.5975 13.8361 18.8942 13.8361C19.9402 13.8361 20.7912 12.6736 20.7912 11.2445C20.7912 10.9479 21.0318 10.7073 21.3284 10.7073C21.6251 10.7073 21.8657 10.9479 21.8657 11.2445C21.8657 12.6736 22.7167 13.8361 23.7627 13.8361C24.0594 13.8361 24.2999 14.0766 24.2999 14.3733C24.2999 14.6699 24.0594 14.9105 23.7627 14.9105C22.7167 14.9105 21.8657 16.073 21.8657 17.5021C21.8657 17.7987 21.6251 18.0393 21.3284 18.0393ZM20.451 14.3733C20.6639 14.5348 20.8617 14.731 21.0396 14.9596C21.1455 15.0958 21.242 15.2402 21.3284 15.3925C21.4149 15.2406 21.5114 15.0958 21.6173 14.9596C21.7952 14.731 21.993 14.5345 22.2059 14.3733C21.993 14.2117 21.7952 14.0155 21.6173 13.787C21.5114 13.6507 21.4149 13.5063 21.3284 13.3541C21.242 13.5059 21.1455 13.6507 21.0396 13.787C20.8617 14.0155 20.6639 14.2117 20.451 14.3733Z" fill="#F3F5F6"/>
<path d="M17.3251 11.7144C17.0284 11.7144 16.7878 11.4738 16.7878 11.1772C16.7878 10.4811 16.3281 9.91471 15.7628 9.91471C15.4662 9.91471 15.2256 9.67412 15.2256 9.37748C15.2256 9.08083 15.4662 8.84025 15.7628 8.84025C16.3281 8.84025 16.7878 8.27382 16.7878 7.57776C16.7878 7.28111 17.0284 7.04053 17.3251 7.04053C17.6217 7.04053 17.8623 7.28111 17.8623 7.57776C17.8623 8.27382 18.3221 8.84025 18.8873 8.84025C19.184 8.84025 19.4245 9.08083 19.4245 9.37748C19.4245 9.67412 19.184 9.91471 18.8873 9.91471C18.3221 9.91471 17.8623 10.4811 17.8623 11.1772C17.8623 11.4738 17.6217 11.7144 17.3251 11.7144ZM17.1008 9.37709C17.1806 9.45105 17.2558 9.53125 17.3251 9.61689C17.3944 9.53086 17.4695 9.45066 17.5493 9.37709C17.4695 9.30312 17.3944 9.22293 17.3251 9.13728C17.2558 9.22332 17.1806 9.30351 17.1008 9.37709Z" fill="#F3F5F6"/>
</g>
<defs>
<clipPath id="clip0_711_2910">
<rect width="30" height="30" fill="white"/>
</clipPath>
</defs>
</svg>
