<svg width="21" height="20" viewBox="0 0 21 20" fill="none" xmlns="http://www.w3.org/2000/svg">
<path fill-rule="evenodd" clip-rule="evenodd" d="M18.8332 10.0001C18.8332 14.6025 15.1022 18.3334 10.4998 18.3334C5.89746 18.3334 2.1665 14.6025 2.1665 10.0001C2.1665 5.39771 5.89746 1.66675 10.4998 1.66675C15.1022 1.66675 18.8332 5.39771 18.8332 10.0001ZM10.4998 5.83342C10.9601 5.83342 11.3332 6.20651 11.3332 6.66675L11.3332 9.16675H13.8332C14.2934 9.16675 14.6665 9.53984 14.6665 10.0001C14.6665 10.4603 14.2934 10.8334 13.8332 10.8334H11.3332L11.3332 13.3334C11.3332 13.7937 10.9601 14.1667 10.4998 14.1667C10.0396 14.1667 9.6665 13.7937 9.6665 13.3334L9.6665 10.8334H7.1665C6.70627 10.8334 6.33317 10.4603 6.33317 10.0001C6.33317 9.53984 6.70627 9.16675 7.1665 9.16675H9.6665L9.6665 6.66675C9.6665 6.20651 10.0396 5.83341 10.4998 5.83342Z" fill="#007CDB"/>
</svg>
